%TF.GenerationSoftware,KiCad,Pcbnew,8.0.0*%
%TF.CreationDate,2024-03-15T12:02:56+01:00*%
%TF.ProjectId,prueba,70727565-6261-42e6-9b69-6361645f7063,v0.1*%
%TF.SameCoordinates,Original*%
%TF.FileFunction,Legend,Top*%
%TF.FilePolarity,Positive*%
%FSLAX46Y46*%
G04 Gerber Fmt 4.6, Leading zero omitted, Abs format (unit mm)*
G04 Created by KiCad (PCBNEW 8.0.0) date 2024-03-15 12:02:56*
%MOMM*%
%LPD*%
G01*
G04 APERTURE LIST*
%ADD10C,0.152400*%
%ADD11C,0.200000*%
%ADD12C,0.150000*%
%ADD13C,0.120000*%
%ADD14C,0.127000*%
%ADD15C,0.400000*%
G04 APERTURE END LIST*
D10*
X189877694Y-53843070D02*
X189877694Y-54033546D01*
X189877694Y-54033546D02*
X189925313Y-54128784D01*
X189925313Y-54128784D02*
X189972932Y-54176403D01*
X189972932Y-54176403D02*
X190115789Y-54271641D01*
X190115789Y-54271641D02*
X190306265Y-54319260D01*
X190306265Y-54319260D02*
X190687217Y-54319260D01*
X190687217Y-54319260D02*
X190782455Y-54271641D01*
X190782455Y-54271641D02*
X190830075Y-54224022D01*
X190830075Y-54224022D02*
X190877694Y-54128784D01*
X190877694Y-54128784D02*
X190877694Y-53938308D01*
X190877694Y-53938308D02*
X190830075Y-53843070D01*
X190830075Y-53843070D02*
X190782455Y-53795451D01*
X190782455Y-53795451D02*
X190687217Y-53747832D01*
X190687217Y-53747832D02*
X190449122Y-53747832D01*
X190449122Y-53747832D02*
X190353884Y-53795451D01*
X190353884Y-53795451D02*
X190306265Y-53843070D01*
X190306265Y-53843070D02*
X190258646Y-53938308D01*
X190258646Y-53938308D02*
X190258646Y-54128784D01*
X190258646Y-54128784D02*
X190306265Y-54224022D01*
X190306265Y-54224022D02*
X190353884Y-54271641D01*
X190353884Y-54271641D02*
X190449122Y-54319260D01*
X189877694Y-53462117D02*
X190877694Y-53128784D01*
X190877694Y-53128784D02*
X189877694Y-52795451D01*
X190877694Y-52462117D02*
X189877694Y-52462117D01*
X190877694Y-51985927D02*
X189877694Y-51985927D01*
X189877694Y-51985927D02*
X190877694Y-51414499D01*
X190877694Y-51414499D02*
X189877694Y-51414499D01*
X190877694Y-38507832D02*
X190877694Y-39079260D01*
X190877694Y-38793546D02*
X189877694Y-38793546D01*
X189877694Y-38793546D02*
X190020551Y-38888784D01*
X190020551Y-38888784D02*
X190115789Y-38984022D01*
X190115789Y-38984022D02*
X190163408Y-39079260D01*
X189972932Y-38126879D02*
X189925313Y-38079260D01*
X189925313Y-38079260D02*
X189877694Y-37984022D01*
X189877694Y-37984022D02*
X189877694Y-37745927D01*
X189877694Y-37745927D02*
X189925313Y-37650689D01*
X189925313Y-37650689D02*
X189972932Y-37603070D01*
X189972932Y-37603070D02*
X190068170Y-37555451D01*
X190068170Y-37555451D02*
X190163408Y-37555451D01*
X190163408Y-37555451D02*
X190306265Y-37603070D01*
X190306265Y-37603070D02*
X190877694Y-38174498D01*
X190877694Y-38174498D02*
X190877694Y-37555451D01*
X189877694Y-37269736D02*
X190877694Y-36936403D01*
X190877694Y-36936403D02*
X189877694Y-36603070D01*
X190877694Y-36269736D02*
X189877694Y-36269736D01*
X190877694Y-35793546D02*
X189877694Y-35793546D01*
X189877694Y-35793546D02*
X190877694Y-35222118D01*
X190877694Y-35222118D02*
X189877694Y-35222118D01*
X179581258Y-46058358D02*
X179581258Y-46820263D01*
X179200305Y-46439310D02*
X179962210Y-46439310D01*
X179581258Y-59885448D02*
X179581258Y-60647353D01*
X173201167Y-28127313D02*
X173105929Y-28079694D01*
X173105929Y-28079694D02*
X172963072Y-28079694D01*
X172963072Y-28079694D02*
X172820215Y-28127313D01*
X172820215Y-28127313D02*
X172724977Y-28222551D01*
X172724977Y-28222551D02*
X172677358Y-28317789D01*
X172677358Y-28317789D02*
X172629739Y-28508265D01*
X172629739Y-28508265D02*
X172629739Y-28651122D01*
X172629739Y-28651122D02*
X172677358Y-28841598D01*
X172677358Y-28841598D02*
X172724977Y-28936836D01*
X172724977Y-28936836D02*
X172820215Y-29032075D01*
X172820215Y-29032075D02*
X172963072Y-29079694D01*
X172963072Y-29079694D02*
X173058310Y-29079694D01*
X173058310Y-29079694D02*
X173201167Y-29032075D01*
X173201167Y-29032075D02*
X173248786Y-28984455D01*
X173248786Y-28984455D02*
X173248786Y-28651122D01*
X173248786Y-28651122D02*
X173058310Y-28651122D01*
X173677358Y-29079694D02*
X173677358Y-28079694D01*
X173677358Y-28079694D02*
X174248786Y-29079694D01*
X174248786Y-29079694D02*
X174248786Y-28079694D01*
X174724977Y-29079694D02*
X174724977Y-28079694D01*
X174724977Y-28079694D02*
X174963072Y-28079694D01*
X174963072Y-28079694D02*
X175105929Y-28127313D01*
X175105929Y-28127313D02*
X175201167Y-28222551D01*
X175201167Y-28222551D02*
X175248786Y-28317789D01*
X175248786Y-28317789D02*
X175296405Y-28508265D01*
X175296405Y-28508265D02*
X175296405Y-28651122D01*
X175296405Y-28651122D02*
X175248786Y-28841598D01*
X175248786Y-28841598D02*
X175201167Y-28936836D01*
X175201167Y-28936836D02*
X175105929Y-29032075D01*
X175105929Y-29032075D02*
X174963072Y-29079694D01*
X174963072Y-29079694D02*
X174724977Y-29079694D01*
X157818358Y-29079694D02*
X157818358Y-28079694D01*
X157818358Y-28079694D02*
X158199310Y-28079694D01*
X158199310Y-28079694D02*
X158294548Y-28127313D01*
X158294548Y-28127313D02*
X158342167Y-28174932D01*
X158342167Y-28174932D02*
X158389786Y-28270170D01*
X158389786Y-28270170D02*
X158389786Y-28413027D01*
X158389786Y-28413027D02*
X158342167Y-28508265D01*
X158342167Y-28508265D02*
X158294548Y-28555884D01*
X158294548Y-28555884D02*
X158199310Y-28603503D01*
X158199310Y-28603503D02*
X157818358Y-28603503D01*
X158723120Y-28079694D02*
X158961215Y-29079694D01*
X158961215Y-29079694D02*
X159151691Y-28365408D01*
X159151691Y-28365408D02*
X159342167Y-29079694D01*
X159342167Y-29079694D02*
X159580263Y-28079694D01*
X159961215Y-29079694D02*
X159961215Y-28079694D01*
X159961215Y-28079694D02*
X160294548Y-28793979D01*
X160294548Y-28793979D02*
X160627881Y-28079694D01*
X160627881Y-28079694D02*
X160627881Y-29079694D01*
X168089501Y-28079694D02*
X168422834Y-29079694D01*
X168422834Y-29079694D02*
X168756167Y-28079694D01*
X169089501Y-29079694D02*
X169089501Y-28079694D01*
X169565691Y-29079694D02*
X169565691Y-28079694D01*
X169565691Y-28079694D02*
X170137119Y-29079694D01*
X170137119Y-29079694D02*
X170137119Y-28079694D01*
X162501501Y-28079694D02*
X163072929Y-28079694D01*
X162787215Y-29079694D02*
X162787215Y-28079694D01*
X163358644Y-28793979D02*
X163834834Y-28793979D01*
X163263406Y-29079694D02*
X163596739Y-28079694D01*
X163596739Y-28079694D02*
X163930072Y-29079694D01*
X164834834Y-28984455D02*
X164787215Y-29032075D01*
X164787215Y-29032075D02*
X164644358Y-29079694D01*
X164644358Y-29079694D02*
X164549120Y-29079694D01*
X164549120Y-29079694D02*
X164406263Y-29032075D01*
X164406263Y-29032075D02*
X164311025Y-28936836D01*
X164311025Y-28936836D02*
X164263406Y-28841598D01*
X164263406Y-28841598D02*
X164215787Y-28651122D01*
X164215787Y-28651122D02*
X164215787Y-28508265D01*
X164215787Y-28508265D02*
X164263406Y-28317789D01*
X164263406Y-28317789D02*
X164311025Y-28222551D01*
X164311025Y-28222551D02*
X164406263Y-28127313D01*
X164406263Y-28127313D02*
X164549120Y-28079694D01*
X164549120Y-28079694D02*
X164644358Y-28079694D01*
X164644358Y-28079694D02*
X164787215Y-28127313D01*
X164787215Y-28127313D02*
X164834834Y-28174932D01*
X165263406Y-29079694D02*
X165263406Y-28079694D01*
X165263406Y-28555884D02*
X165834834Y-28555884D01*
X165834834Y-29079694D02*
X165834834Y-28079694D01*
X150595167Y-28127313D02*
X150499929Y-28079694D01*
X150499929Y-28079694D02*
X150357072Y-28079694D01*
X150357072Y-28079694D02*
X150214215Y-28127313D01*
X150214215Y-28127313D02*
X150118977Y-28222551D01*
X150118977Y-28222551D02*
X150071358Y-28317789D01*
X150071358Y-28317789D02*
X150023739Y-28508265D01*
X150023739Y-28508265D02*
X150023739Y-28651122D01*
X150023739Y-28651122D02*
X150071358Y-28841598D01*
X150071358Y-28841598D02*
X150118977Y-28936836D01*
X150118977Y-28936836D02*
X150214215Y-29032075D01*
X150214215Y-29032075D02*
X150357072Y-29079694D01*
X150357072Y-29079694D02*
X150452310Y-29079694D01*
X150452310Y-29079694D02*
X150595167Y-29032075D01*
X150595167Y-29032075D02*
X150642786Y-28984455D01*
X150642786Y-28984455D02*
X150642786Y-28651122D01*
X150642786Y-28651122D02*
X150452310Y-28651122D01*
X151071358Y-29079694D02*
X151071358Y-28079694D01*
X151071358Y-28079694D02*
X151642786Y-29079694D01*
X151642786Y-29079694D02*
X151642786Y-28079694D01*
X152118977Y-29079694D02*
X152118977Y-28079694D01*
X152118977Y-28079694D02*
X152357072Y-28079694D01*
X152357072Y-28079694D02*
X152499929Y-28127313D01*
X152499929Y-28127313D02*
X152595167Y-28222551D01*
X152595167Y-28222551D02*
X152642786Y-28317789D01*
X152642786Y-28317789D02*
X152690405Y-28508265D01*
X152690405Y-28508265D02*
X152690405Y-28651122D01*
X152690405Y-28651122D02*
X152642786Y-28841598D01*
X152642786Y-28841598D02*
X152595167Y-28936836D01*
X152595167Y-28936836D02*
X152499929Y-29032075D01*
X152499929Y-29032075D02*
X152357072Y-29079694D01*
X152357072Y-29079694D02*
X152118977Y-29079694D01*
X135339358Y-29079694D02*
X135339358Y-28079694D01*
X135339358Y-28079694D02*
X135720310Y-28079694D01*
X135720310Y-28079694D02*
X135815548Y-28127313D01*
X135815548Y-28127313D02*
X135863167Y-28174932D01*
X135863167Y-28174932D02*
X135910786Y-28270170D01*
X135910786Y-28270170D02*
X135910786Y-28413027D01*
X135910786Y-28413027D02*
X135863167Y-28508265D01*
X135863167Y-28508265D02*
X135815548Y-28555884D01*
X135815548Y-28555884D02*
X135720310Y-28603503D01*
X135720310Y-28603503D02*
X135339358Y-28603503D01*
X136244120Y-28079694D02*
X136482215Y-29079694D01*
X136482215Y-29079694D02*
X136672691Y-28365408D01*
X136672691Y-28365408D02*
X136863167Y-29079694D01*
X136863167Y-29079694D02*
X137101263Y-28079694D01*
X137482215Y-29079694D02*
X137482215Y-28079694D01*
X137482215Y-28079694D02*
X137815548Y-28793979D01*
X137815548Y-28793979D02*
X138148881Y-28079694D01*
X138148881Y-28079694D02*
X138148881Y-29079694D01*
X145483501Y-28079694D02*
X145816834Y-29079694D01*
X145816834Y-29079694D02*
X146150167Y-28079694D01*
X146483501Y-29079694D02*
X146483501Y-28079694D01*
X146959691Y-29079694D02*
X146959691Y-28079694D01*
X146959691Y-28079694D02*
X147531119Y-29079694D01*
X147531119Y-29079694D02*
X147531119Y-28079694D01*
X139895501Y-28079694D02*
X140466929Y-28079694D01*
X140181215Y-29079694D02*
X140181215Y-28079694D01*
X140752644Y-28793979D02*
X141228834Y-28793979D01*
X140657406Y-29079694D02*
X140990739Y-28079694D01*
X140990739Y-28079694D02*
X141324072Y-29079694D01*
X142228834Y-28984455D02*
X142181215Y-29032075D01*
X142181215Y-29032075D02*
X142038358Y-29079694D01*
X142038358Y-29079694D02*
X141943120Y-29079694D01*
X141943120Y-29079694D02*
X141800263Y-29032075D01*
X141800263Y-29032075D02*
X141705025Y-28936836D01*
X141705025Y-28936836D02*
X141657406Y-28841598D01*
X141657406Y-28841598D02*
X141609787Y-28651122D01*
X141609787Y-28651122D02*
X141609787Y-28508265D01*
X141609787Y-28508265D02*
X141657406Y-28317789D01*
X141657406Y-28317789D02*
X141705025Y-28222551D01*
X141705025Y-28222551D02*
X141800263Y-28127313D01*
X141800263Y-28127313D02*
X141943120Y-28079694D01*
X141943120Y-28079694D02*
X142038358Y-28079694D01*
X142038358Y-28079694D02*
X142181215Y-28127313D01*
X142181215Y-28127313D02*
X142228834Y-28174932D01*
X142657406Y-29079694D02*
X142657406Y-28079694D01*
X142657406Y-28555884D02*
X143228834Y-28555884D01*
X143228834Y-29079694D02*
X143228834Y-28079694D01*
X128751167Y-28127313D02*
X128655929Y-28079694D01*
X128655929Y-28079694D02*
X128513072Y-28079694D01*
X128513072Y-28079694D02*
X128370215Y-28127313D01*
X128370215Y-28127313D02*
X128274977Y-28222551D01*
X128274977Y-28222551D02*
X128227358Y-28317789D01*
X128227358Y-28317789D02*
X128179739Y-28508265D01*
X128179739Y-28508265D02*
X128179739Y-28651122D01*
X128179739Y-28651122D02*
X128227358Y-28841598D01*
X128227358Y-28841598D02*
X128274977Y-28936836D01*
X128274977Y-28936836D02*
X128370215Y-29032075D01*
X128370215Y-29032075D02*
X128513072Y-29079694D01*
X128513072Y-29079694D02*
X128608310Y-29079694D01*
X128608310Y-29079694D02*
X128751167Y-29032075D01*
X128751167Y-29032075D02*
X128798786Y-28984455D01*
X128798786Y-28984455D02*
X128798786Y-28651122D01*
X128798786Y-28651122D02*
X128608310Y-28651122D01*
X129227358Y-29079694D02*
X129227358Y-28079694D01*
X129227358Y-28079694D02*
X129798786Y-29079694D01*
X129798786Y-29079694D02*
X129798786Y-28079694D01*
X130274977Y-29079694D02*
X130274977Y-28079694D01*
X130274977Y-28079694D02*
X130513072Y-28079694D01*
X130513072Y-28079694D02*
X130655929Y-28127313D01*
X130655929Y-28127313D02*
X130751167Y-28222551D01*
X130751167Y-28222551D02*
X130798786Y-28317789D01*
X130798786Y-28317789D02*
X130846405Y-28508265D01*
X130846405Y-28508265D02*
X130846405Y-28651122D01*
X130846405Y-28651122D02*
X130798786Y-28841598D01*
X130798786Y-28841598D02*
X130751167Y-28936836D01*
X130751167Y-28936836D02*
X130655929Y-29032075D01*
X130655929Y-29032075D02*
X130513072Y-29079694D01*
X130513072Y-29079694D02*
X130274977Y-29079694D01*
X113368358Y-29079694D02*
X113368358Y-28079694D01*
X113368358Y-28079694D02*
X113749310Y-28079694D01*
X113749310Y-28079694D02*
X113844548Y-28127313D01*
X113844548Y-28127313D02*
X113892167Y-28174932D01*
X113892167Y-28174932D02*
X113939786Y-28270170D01*
X113939786Y-28270170D02*
X113939786Y-28413027D01*
X113939786Y-28413027D02*
X113892167Y-28508265D01*
X113892167Y-28508265D02*
X113844548Y-28555884D01*
X113844548Y-28555884D02*
X113749310Y-28603503D01*
X113749310Y-28603503D02*
X113368358Y-28603503D01*
X114273120Y-28079694D02*
X114511215Y-29079694D01*
X114511215Y-29079694D02*
X114701691Y-28365408D01*
X114701691Y-28365408D02*
X114892167Y-29079694D01*
X114892167Y-29079694D02*
X115130263Y-28079694D01*
X115511215Y-29079694D02*
X115511215Y-28079694D01*
X115511215Y-28079694D02*
X115844548Y-28793979D01*
X115844548Y-28793979D02*
X116177881Y-28079694D01*
X116177881Y-28079694D02*
X116177881Y-29079694D01*
X123639501Y-28079694D02*
X123972834Y-29079694D01*
X123972834Y-29079694D02*
X124306167Y-28079694D01*
X124639501Y-29079694D02*
X124639501Y-28079694D01*
X125115691Y-29079694D02*
X125115691Y-28079694D01*
X125115691Y-28079694D02*
X125687119Y-29079694D01*
X125687119Y-29079694D02*
X125687119Y-28079694D01*
X118051501Y-28079694D02*
X118622929Y-28079694D01*
X118337215Y-29079694D02*
X118337215Y-28079694D01*
X118908644Y-28793979D02*
X119384834Y-28793979D01*
X118813406Y-29079694D02*
X119146739Y-28079694D01*
X119146739Y-28079694D02*
X119480072Y-29079694D01*
X120384834Y-28984455D02*
X120337215Y-29032075D01*
X120337215Y-29032075D02*
X120194358Y-29079694D01*
X120194358Y-29079694D02*
X120099120Y-29079694D01*
X120099120Y-29079694D02*
X119956263Y-29032075D01*
X119956263Y-29032075D02*
X119861025Y-28936836D01*
X119861025Y-28936836D02*
X119813406Y-28841598D01*
X119813406Y-28841598D02*
X119765787Y-28651122D01*
X119765787Y-28651122D02*
X119765787Y-28508265D01*
X119765787Y-28508265D02*
X119813406Y-28317789D01*
X119813406Y-28317789D02*
X119861025Y-28222551D01*
X119861025Y-28222551D02*
X119956263Y-28127313D01*
X119956263Y-28127313D02*
X120099120Y-28079694D01*
X120099120Y-28079694D02*
X120194358Y-28079694D01*
X120194358Y-28079694D02*
X120337215Y-28127313D01*
X120337215Y-28127313D02*
X120384834Y-28174932D01*
X120813406Y-29079694D02*
X120813406Y-28079694D01*
X120813406Y-28555884D02*
X121384834Y-28555884D01*
X121384834Y-29079694D02*
X121384834Y-28079694D01*
X106653167Y-28127313D02*
X106557929Y-28079694D01*
X106557929Y-28079694D02*
X106415072Y-28079694D01*
X106415072Y-28079694D02*
X106272215Y-28127313D01*
X106272215Y-28127313D02*
X106176977Y-28222551D01*
X106176977Y-28222551D02*
X106129358Y-28317789D01*
X106129358Y-28317789D02*
X106081739Y-28508265D01*
X106081739Y-28508265D02*
X106081739Y-28651122D01*
X106081739Y-28651122D02*
X106129358Y-28841598D01*
X106129358Y-28841598D02*
X106176977Y-28936836D01*
X106176977Y-28936836D02*
X106272215Y-29032075D01*
X106272215Y-29032075D02*
X106415072Y-29079694D01*
X106415072Y-29079694D02*
X106510310Y-29079694D01*
X106510310Y-29079694D02*
X106653167Y-29032075D01*
X106653167Y-29032075D02*
X106700786Y-28984455D01*
X106700786Y-28984455D02*
X106700786Y-28651122D01*
X106700786Y-28651122D02*
X106510310Y-28651122D01*
X107129358Y-29079694D02*
X107129358Y-28079694D01*
X107129358Y-28079694D02*
X107700786Y-29079694D01*
X107700786Y-29079694D02*
X107700786Y-28079694D01*
X108176977Y-29079694D02*
X108176977Y-28079694D01*
X108176977Y-28079694D02*
X108415072Y-28079694D01*
X108415072Y-28079694D02*
X108557929Y-28127313D01*
X108557929Y-28127313D02*
X108653167Y-28222551D01*
X108653167Y-28222551D02*
X108700786Y-28317789D01*
X108700786Y-28317789D02*
X108748405Y-28508265D01*
X108748405Y-28508265D02*
X108748405Y-28651122D01*
X108748405Y-28651122D02*
X108700786Y-28841598D01*
X108700786Y-28841598D02*
X108653167Y-28936836D01*
X108653167Y-28936836D02*
X108557929Y-29032075D01*
X108557929Y-29032075D02*
X108415072Y-29079694D01*
X108415072Y-29079694D02*
X108176977Y-29079694D01*
X91270358Y-29079694D02*
X91270358Y-28079694D01*
X91270358Y-28079694D02*
X91651310Y-28079694D01*
X91651310Y-28079694D02*
X91746548Y-28127313D01*
X91746548Y-28127313D02*
X91794167Y-28174932D01*
X91794167Y-28174932D02*
X91841786Y-28270170D01*
X91841786Y-28270170D02*
X91841786Y-28413027D01*
X91841786Y-28413027D02*
X91794167Y-28508265D01*
X91794167Y-28508265D02*
X91746548Y-28555884D01*
X91746548Y-28555884D02*
X91651310Y-28603503D01*
X91651310Y-28603503D02*
X91270358Y-28603503D01*
X92175120Y-28079694D02*
X92413215Y-29079694D01*
X92413215Y-29079694D02*
X92603691Y-28365408D01*
X92603691Y-28365408D02*
X92794167Y-29079694D01*
X92794167Y-29079694D02*
X93032263Y-28079694D01*
X93413215Y-29079694D02*
X93413215Y-28079694D01*
X93413215Y-28079694D02*
X93746548Y-28793979D01*
X93746548Y-28793979D02*
X94079881Y-28079694D01*
X94079881Y-28079694D02*
X94079881Y-29079694D01*
X101541501Y-28079694D02*
X101874834Y-29079694D01*
X101874834Y-29079694D02*
X102208167Y-28079694D01*
X102541501Y-29079694D02*
X102541501Y-28079694D01*
X103017691Y-29079694D02*
X103017691Y-28079694D01*
X103017691Y-28079694D02*
X103589119Y-29079694D01*
X103589119Y-29079694D02*
X103589119Y-28079694D01*
X95953501Y-28079694D02*
X96524929Y-28079694D01*
X96239215Y-29079694D02*
X96239215Y-28079694D01*
X96810644Y-28793979D02*
X97286834Y-28793979D01*
X96715406Y-29079694D02*
X97048739Y-28079694D01*
X97048739Y-28079694D02*
X97382072Y-29079694D01*
X98286834Y-28984455D02*
X98239215Y-29032075D01*
X98239215Y-29032075D02*
X98096358Y-29079694D01*
X98096358Y-29079694D02*
X98001120Y-29079694D01*
X98001120Y-29079694D02*
X97858263Y-29032075D01*
X97858263Y-29032075D02*
X97763025Y-28936836D01*
X97763025Y-28936836D02*
X97715406Y-28841598D01*
X97715406Y-28841598D02*
X97667787Y-28651122D01*
X97667787Y-28651122D02*
X97667787Y-28508265D01*
X97667787Y-28508265D02*
X97715406Y-28317789D01*
X97715406Y-28317789D02*
X97763025Y-28222551D01*
X97763025Y-28222551D02*
X97858263Y-28127313D01*
X97858263Y-28127313D02*
X98001120Y-28079694D01*
X98001120Y-28079694D02*
X98096358Y-28079694D01*
X98096358Y-28079694D02*
X98239215Y-28127313D01*
X98239215Y-28127313D02*
X98286834Y-28174932D01*
X98715406Y-29079694D02*
X98715406Y-28079694D01*
X98715406Y-28555884D02*
X99286834Y-28555884D01*
X99286834Y-29079694D02*
X99286834Y-28079694D01*
X84555167Y-28127313D02*
X84459929Y-28079694D01*
X84459929Y-28079694D02*
X84317072Y-28079694D01*
X84317072Y-28079694D02*
X84174215Y-28127313D01*
X84174215Y-28127313D02*
X84078977Y-28222551D01*
X84078977Y-28222551D02*
X84031358Y-28317789D01*
X84031358Y-28317789D02*
X83983739Y-28508265D01*
X83983739Y-28508265D02*
X83983739Y-28651122D01*
X83983739Y-28651122D02*
X84031358Y-28841598D01*
X84031358Y-28841598D02*
X84078977Y-28936836D01*
X84078977Y-28936836D02*
X84174215Y-29032075D01*
X84174215Y-29032075D02*
X84317072Y-29079694D01*
X84317072Y-29079694D02*
X84412310Y-29079694D01*
X84412310Y-29079694D02*
X84555167Y-29032075D01*
X84555167Y-29032075D02*
X84602786Y-28984455D01*
X84602786Y-28984455D02*
X84602786Y-28651122D01*
X84602786Y-28651122D02*
X84412310Y-28651122D01*
X85031358Y-29079694D02*
X85031358Y-28079694D01*
X85031358Y-28079694D02*
X85602786Y-29079694D01*
X85602786Y-29079694D02*
X85602786Y-28079694D01*
X86078977Y-29079694D02*
X86078977Y-28079694D01*
X86078977Y-28079694D02*
X86317072Y-28079694D01*
X86317072Y-28079694D02*
X86459929Y-28127313D01*
X86459929Y-28127313D02*
X86555167Y-28222551D01*
X86555167Y-28222551D02*
X86602786Y-28317789D01*
X86602786Y-28317789D02*
X86650405Y-28508265D01*
X86650405Y-28508265D02*
X86650405Y-28651122D01*
X86650405Y-28651122D02*
X86602786Y-28841598D01*
X86602786Y-28841598D02*
X86555167Y-28936836D01*
X86555167Y-28936836D02*
X86459929Y-29032075D01*
X86459929Y-29032075D02*
X86317072Y-29079694D01*
X86317072Y-29079694D02*
X86078977Y-29079694D01*
X69299358Y-29079694D02*
X69299358Y-28079694D01*
X69299358Y-28079694D02*
X69680310Y-28079694D01*
X69680310Y-28079694D02*
X69775548Y-28127313D01*
X69775548Y-28127313D02*
X69823167Y-28174932D01*
X69823167Y-28174932D02*
X69870786Y-28270170D01*
X69870786Y-28270170D02*
X69870786Y-28413027D01*
X69870786Y-28413027D02*
X69823167Y-28508265D01*
X69823167Y-28508265D02*
X69775548Y-28555884D01*
X69775548Y-28555884D02*
X69680310Y-28603503D01*
X69680310Y-28603503D02*
X69299358Y-28603503D01*
X70204120Y-28079694D02*
X70442215Y-29079694D01*
X70442215Y-29079694D02*
X70632691Y-28365408D01*
X70632691Y-28365408D02*
X70823167Y-29079694D01*
X70823167Y-29079694D02*
X71061263Y-28079694D01*
X71442215Y-29079694D02*
X71442215Y-28079694D01*
X71442215Y-28079694D02*
X71775548Y-28793979D01*
X71775548Y-28793979D02*
X72108881Y-28079694D01*
X72108881Y-28079694D02*
X72108881Y-29079694D01*
X79443501Y-28079694D02*
X79776834Y-29079694D01*
X79776834Y-29079694D02*
X80110167Y-28079694D01*
X80443501Y-29079694D02*
X80443501Y-28079694D01*
X80919691Y-29079694D02*
X80919691Y-28079694D01*
X80919691Y-28079694D02*
X81491119Y-29079694D01*
X81491119Y-29079694D02*
X81491119Y-28079694D01*
X73855501Y-28079694D02*
X74426929Y-28079694D01*
X74141215Y-29079694D02*
X74141215Y-28079694D01*
X74712644Y-28793979D02*
X75188834Y-28793979D01*
X74617406Y-29079694D02*
X74950739Y-28079694D01*
X74950739Y-28079694D02*
X75284072Y-29079694D01*
X76188834Y-28984455D02*
X76141215Y-29032075D01*
X76141215Y-29032075D02*
X75998358Y-29079694D01*
X75998358Y-29079694D02*
X75903120Y-29079694D01*
X75903120Y-29079694D02*
X75760263Y-29032075D01*
X75760263Y-29032075D02*
X75665025Y-28936836D01*
X75665025Y-28936836D02*
X75617406Y-28841598D01*
X75617406Y-28841598D02*
X75569787Y-28651122D01*
X75569787Y-28651122D02*
X75569787Y-28508265D01*
X75569787Y-28508265D02*
X75617406Y-28317789D01*
X75617406Y-28317789D02*
X75665025Y-28222551D01*
X75665025Y-28222551D02*
X75760263Y-28127313D01*
X75760263Y-28127313D02*
X75903120Y-28079694D01*
X75903120Y-28079694D02*
X75998358Y-28079694D01*
X75998358Y-28079694D02*
X76141215Y-28127313D01*
X76141215Y-28127313D02*
X76188834Y-28174932D01*
X76617406Y-29079694D02*
X76617406Y-28079694D01*
X76617406Y-28555884D02*
X77188834Y-28555884D01*
X77188834Y-29079694D02*
X77188834Y-28079694D01*
X62457167Y-28127313D02*
X62361929Y-28079694D01*
X62361929Y-28079694D02*
X62219072Y-28079694D01*
X62219072Y-28079694D02*
X62076215Y-28127313D01*
X62076215Y-28127313D02*
X61980977Y-28222551D01*
X61980977Y-28222551D02*
X61933358Y-28317789D01*
X61933358Y-28317789D02*
X61885739Y-28508265D01*
X61885739Y-28508265D02*
X61885739Y-28651122D01*
X61885739Y-28651122D02*
X61933358Y-28841598D01*
X61933358Y-28841598D02*
X61980977Y-28936836D01*
X61980977Y-28936836D02*
X62076215Y-29032075D01*
X62076215Y-29032075D02*
X62219072Y-29079694D01*
X62219072Y-29079694D02*
X62314310Y-29079694D01*
X62314310Y-29079694D02*
X62457167Y-29032075D01*
X62457167Y-29032075D02*
X62504786Y-28984455D01*
X62504786Y-28984455D02*
X62504786Y-28651122D01*
X62504786Y-28651122D02*
X62314310Y-28651122D01*
X62933358Y-29079694D02*
X62933358Y-28079694D01*
X62933358Y-28079694D02*
X63504786Y-29079694D01*
X63504786Y-29079694D02*
X63504786Y-28079694D01*
X63980977Y-29079694D02*
X63980977Y-28079694D01*
X63980977Y-28079694D02*
X64219072Y-28079694D01*
X64219072Y-28079694D02*
X64361929Y-28127313D01*
X64361929Y-28127313D02*
X64457167Y-28222551D01*
X64457167Y-28222551D02*
X64504786Y-28317789D01*
X64504786Y-28317789D02*
X64552405Y-28508265D01*
X64552405Y-28508265D02*
X64552405Y-28651122D01*
X64552405Y-28651122D02*
X64504786Y-28841598D01*
X64504786Y-28841598D02*
X64457167Y-28936836D01*
X64457167Y-28936836D02*
X64361929Y-29032075D01*
X64361929Y-29032075D02*
X64219072Y-29079694D01*
X64219072Y-29079694D02*
X63980977Y-29079694D01*
X57345501Y-28079694D02*
X57678834Y-29079694D01*
X57678834Y-29079694D02*
X58012167Y-28079694D01*
X58345501Y-29079694D02*
X58345501Y-28079694D01*
X58821691Y-29079694D02*
X58821691Y-28079694D01*
X58821691Y-28079694D02*
X59393119Y-29079694D01*
X59393119Y-29079694D02*
X59393119Y-28079694D01*
X51757501Y-28079694D02*
X52328929Y-28079694D01*
X52043215Y-29079694D02*
X52043215Y-28079694D01*
X52614644Y-28793979D02*
X53090834Y-28793979D01*
X52519406Y-29079694D02*
X52852739Y-28079694D01*
X52852739Y-28079694D02*
X53186072Y-29079694D01*
X54090834Y-28984455D02*
X54043215Y-29032075D01*
X54043215Y-29032075D02*
X53900358Y-29079694D01*
X53900358Y-29079694D02*
X53805120Y-29079694D01*
X53805120Y-29079694D02*
X53662263Y-29032075D01*
X53662263Y-29032075D02*
X53567025Y-28936836D01*
X53567025Y-28936836D02*
X53519406Y-28841598D01*
X53519406Y-28841598D02*
X53471787Y-28651122D01*
X53471787Y-28651122D02*
X53471787Y-28508265D01*
X53471787Y-28508265D02*
X53519406Y-28317789D01*
X53519406Y-28317789D02*
X53567025Y-28222551D01*
X53567025Y-28222551D02*
X53662263Y-28127313D01*
X53662263Y-28127313D02*
X53805120Y-28079694D01*
X53805120Y-28079694D02*
X53900358Y-28079694D01*
X53900358Y-28079694D02*
X54043215Y-28127313D01*
X54043215Y-28127313D02*
X54090834Y-28174932D01*
X54519406Y-29079694D02*
X54519406Y-28079694D01*
X54519406Y-28555884D02*
X55090834Y-28555884D01*
X55090834Y-29079694D02*
X55090834Y-28079694D01*
X47201358Y-29079694D02*
X47201358Y-28079694D01*
X47201358Y-28079694D02*
X47582310Y-28079694D01*
X47582310Y-28079694D02*
X47677548Y-28127313D01*
X47677548Y-28127313D02*
X47725167Y-28174932D01*
X47725167Y-28174932D02*
X47772786Y-28270170D01*
X47772786Y-28270170D02*
X47772786Y-28413027D01*
X47772786Y-28413027D02*
X47725167Y-28508265D01*
X47725167Y-28508265D02*
X47677548Y-28555884D01*
X47677548Y-28555884D02*
X47582310Y-28603503D01*
X47582310Y-28603503D02*
X47201358Y-28603503D01*
X48106120Y-28079694D02*
X48344215Y-29079694D01*
X48344215Y-29079694D02*
X48534691Y-28365408D01*
X48534691Y-28365408D02*
X48725167Y-29079694D01*
X48725167Y-29079694D02*
X48963263Y-28079694D01*
X49344215Y-29079694D02*
X49344215Y-28079694D01*
X49344215Y-28079694D02*
X49677548Y-28793979D01*
X49677548Y-28793979D02*
X50010881Y-28079694D01*
X50010881Y-28079694D02*
X50010881Y-29079694D01*
D11*
X92200149Y-53860809D02*
X92200149Y-54717952D01*
X92200149Y-54717952D02*
X92143006Y-54889381D01*
X92143006Y-54889381D02*
X92028720Y-55003667D01*
X92028720Y-55003667D02*
X91857292Y-55060809D01*
X91857292Y-55060809D02*
X91743006Y-55060809D01*
X93285864Y-55060809D02*
X93285864Y-54432238D01*
X93285864Y-54432238D02*
X93228721Y-54317952D01*
X93228721Y-54317952D02*
X93114435Y-54260809D01*
X93114435Y-54260809D02*
X92885864Y-54260809D01*
X92885864Y-54260809D02*
X92771578Y-54317952D01*
X93285864Y-55003667D02*
X93171578Y-55060809D01*
X93171578Y-55060809D02*
X92885864Y-55060809D01*
X92885864Y-55060809D02*
X92771578Y-55003667D01*
X92771578Y-55003667D02*
X92714435Y-54889381D01*
X92714435Y-54889381D02*
X92714435Y-54775095D01*
X92714435Y-54775095D02*
X92771578Y-54660809D01*
X92771578Y-54660809D02*
X92885864Y-54603667D01*
X92885864Y-54603667D02*
X93171578Y-54603667D01*
X93171578Y-54603667D02*
X93285864Y-54546524D01*
X93743006Y-54260809D02*
X94028720Y-55060809D01*
X94028720Y-55060809D02*
X94314435Y-54260809D01*
X95285864Y-55060809D02*
X95285864Y-54432238D01*
X95285864Y-54432238D02*
X95228721Y-54317952D01*
X95228721Y-54317952D02*
X95114435Y-54260809D01*
X95114435Y-54260809D02*
X94885864Y-54260809D01*
X94885864Y-54260809D02*
X94771578Y-54317952D01*
X95285864Y-55003667D02*
X95171578Y-55060809D01*
X95171578Y-55060809D02*
X94885864Y-55060809D01*
X94885864Y-55060809D02*
X94771578Y-55003667D01*
X94771578Y-55003667D02*
X94714435Y-54889381D01*
X94714435Y-54889381D02*
X94714435Y-54775095D01*
X94714435Y-54775095D02*
X94771578Y-54660809D01*
X94771578Y-54660809D02*
X94885864Y-54603667D01*
X94885864Y-54603667D02*
X95171578Y-54603667D01*
X95171578Y-54603667D02*
X95285864Y-54546524D01*
X96257292Y-54432238D02*
X95857292Y-54432238D01*
X95857292Y-55060809D02*
X95857292Y-53860809D01*
X95857292Y-53860809D02*
X96428720Y-53860809D01*
X96828720Y-54717952D02*
X97400149Y-54717952D01*
X96714434Y-55060809D02*
X97114434Y-53860809D01*
X97114434Y-53860809D02*
X97514434Y-55060809D01*
X97914434Y-55060809D02*
X97914434Y-53860809D01*
X97914434Y-53860809D02*
X98600148Y-55060809D01*
X98600148Y-55060809D02*
X98600148Y-53860809D01*
X100085863Y-55060809D02*
X100085863Y-53860809D01*
X100085863Y-53860809D02*
X100543006Y-53860809D01*
X100543006Y-53860809D02*
X100657291Y-53917952D01*
X100657291Y-53917952D02*
X100714434Y-53975095D01*
X100714434Y-53975095D02*
X100771577Y-54089381D01*
X100771577Y-54089381D02*
X100771577Y-54260809D01*
X100771577Y-54260809D02*
X100714434Y-54375095D01*
X100714434Y-54375095D02*
X100657291Y-54432238D01*
X100657291Y-54432238D02*
X100543006Y-54489381D01*
X100543006Y-54489381D02*
X100085863Y-54489381D01*
X101971577Y-54946524D02*
X101914434Y-55003667D01*
X101914434Y-55003667D02*
X101743006Y-55060809D01*
X101743006Y-55060809D02*
X101628720Y-55060809D01*
X101628720Y-55060809D02*
X101457291Y-55003667D01*
X101457291Y-55003667D02*
X101343006Y-54889381D01*
X101343006Y-54889381D02*
X101285863Y-54775095D01*
X101285863Y-54775095D02*
X101228720Y-54546524D01*
X101228720Y-54546524D02*
X101228720Y-54375095D01*
X101228720Y-54375095D02*
X101285863Y-54146524D01*
X101285863Y-54146524D02*
X101343006Y-54032238D01*
X101343006Y-54032238D02*
X101457291Y-53917952D01*
X101457291Y-53917952D02*
X101628720Y-53860809D01*
X101628720Y-53860809D02*
X101743006Y-53860809D01*
X101743006Y-53860809D02*
X101914434Y-53917952D01*
X101914434Y-53917952D02*
X101971577Y-53975095D01*
X102885863Y-54432238D02*
X103057291Y-54489381D01*
X103057291Y-54489381D02*
X103114434Y-54546524D01*
X103114434Y-54546524D02*
X103171577Y-54660809D01*
X103171577Y-54660809D02*
X103171577Y-54832238D01*
X103171577Y-54832238D02*
X103114434Y-54946524D01*
X103114434Y-54946524D02*
X103057291Y-55003667D01*
X103057291Y-55003667D02*
X102943006Y-55060809D01*
X102943006Y-55060809D02*
X102485863Y-55060809D01*
X102485863Y-55060809D02*
X102485863Y-53860809D01*
X102485863Y-53860809D02*
X102885863Y-53860809D01*
X102885863Y-53860809D02*
X103000149Y-53917952D01*
X103000149Y-53917952D02*
X103057291Y-53975095D01*
X103057291Y-53975095D02*
X103114434Y-54089381D01*
X103114434Y-54089381D02*
X103114434Y-54203667D01*
X103114434Y-54203667D02*
X103057291Y-54317952D01*
X103057291Y-54317952D02*
X103000149Y-54375095D01*
X103000149Y-54375095D02*
X102885863Y-54432238D01*
X102885863Y-54432238D02*
X102485863Y-54432238D01*
X104485863Y-54260809D02*
X104771577Y-55060809D01*
X104771577Y-55060809D02*
X105057292Y-54260809D01*
X105743006Y-53860809D02*
X105857292Y-53860809D01*
X105857292Y-53860809D02*
X105971578Y-53917952D01*
X105971578Y-53917952D02*
X106028721Y-53975095D01*
X106028721Y-53975095D02*
X106085863Y-54089381D01*
X106085863Y-54089381D02*
X106143006Y-54317952D01*
X106143006Y-54317952D02*
X106143006Y-54603667D01*
X106143006Y-54603667D02*
X106085863Y-54832238D01*
X106085863Y-54832238D02*
X106028721Y-54946524D01*
X106028721Y-54946524D02*
X105971578Y-55003667D01*
X105971578Y-55003667D02*
X105857292Y-55060809D01*
X105857292Y-55060809D02*
X105743006Y-55060809D01*
X105743006Y-55060809D02*
X105628721Y-55003667D01*
X105628721Y-55003667D02*
X105571578Y-54946524D01*
X105571578Y-54946524D02*
X105514435Y-54832238D01*
X105514435Y-54832238D02*
X105457292Y-54603667D01*
X105457292Y-54603667D02*
X105457292Y-54317952D01*
X105457292Y-54317952D02*
X105514435Y-54089381D01*
X105514435Y-54089381D02*
X105571578Y-53975095D01*
X105571578Y-53975095D02*
X105628721Y-53917952D01*
X105628721Y-53917952D02*
X105743006Y-53860809D01*
X106657292Y-54946524D02*
X106714435Y-55003667D01*
X106714435Y-55003667D02*
X106657292Y-55060809D01*
X106657292Y-55060809D02*
X106600149Y-55003667D01*
X106600149Y-55003667D02*
X106657292Y-54946524D01*
X106657292Y-54946524D02*
X106657292Y-55060809D01*
X107857292Y-55060809D02*
X107171578Y-55060809D01*
X107514435Y-55060809D02*
X107514435Y-53860809D01*
X107514435Y-53860809D02*
X107400149Y-54032238D01*
X107400149Y-54032238D02*
X107285864Y-54146524D01*
X107285864Y-54146524D02*
X107171578Y-54203667D01*
X91857292Y-55792742D02*
X91857292Y-56764171D01*
X91857292Y-56764171D02*
X91914435Y-56878457D01*
X91914435Y-56878457D02*
X91971578Y-56935600D01*
X91971578Y-56935600D02*
X92085863Y-56992742D01*
X92085863Y-56992742D02*
X92314435Y-56992742D01*
X92314435Y-56992742D02*
X92428720Y-56935600D01*
X92428720Y-56935600D02*
X92485863Y-56878457D01*
X92485863Y-56878457D02*
X92543006Y-56764171D01*
X92543006Y-56764171D02*
X92543006Y-55792742D01*
X93114435Y-56992742D02*
X93114435Y-55792742D01*
X93114435Y-55792742D02*
X93571578Y-55792742D01*
X93571578Y-55792742D02*
X93685863Y-55849885D01*
X93685863Y-55849885D02*
X93743006Y-55907028D01*
X93743006Y-55907028D02*
X93800149Y-56021314D01*
X93800149Y-56021314D02*
X93800149Y-56192742D01*
X93800149Y-56192742D02*
X93743006Y-56307028D01*
X93743006Y-56307028D02*
X93685863Y-56364171D01*
X93685863Y-56364171D02*
X93571578Y-56421314D01*
X93571578Y-56421314D02*
X93114435Y-56421314D01*
X94314435Y-56992742D02*
X94314435Y-55792742D01*
X94314435Y-55792742D02*
X95000149Y-56992742D01*
X95000149Y-56992742D02*
X95000149Y-55792742D01*
X95514435Y-56649885D02*
X96085864Y-56649885D01*
X95400149Y-56992742D02*
X95800149Y-55792742D01*
X95800149Y-55792742D02*
X96200149Y-56992742D01*
X97457292Y-55907028D02*
X97514435Y-55849885D01*
X97514435Y-55849885D02*
X97628721Y-55792742D01*
X97628721Y-55792742D02*
X97914435Y-55792742D01*
X97914435Y-55792742D02*
X98028721Y-55849885D01*
X98028721Y-55849885D02*
X98085863Y-55907028D01*
X98085863Y-55907028D02*
X98143006Y-56021314D01*
X98143006Y-56021314D02*
X98143006Y-56135600D01*
X98143006Y-56135600D02*
X98085863Y-56307028D01*
X98085863Y-56307028D02*
X97400149Y-56992742D01*
X97400149Y-56992742D02*
X98143006Y-56992742D01*
X98885863Y-55792742D02*
X99000149Y-55792742D01*
X99000149Y-55792742D02*
X99114435Y-55849885D01*
X99114435Y-55849885D02*
X99171578Y-55907028D01*
X99171578Y-55907028D02*
X99228720Y-56021314D01*
X99228720Y-56021314D02*
X99285863Y-56249885D01*
X99285863Y-56249885D02*
X99285863Y-56535600D01*
X99285863Y-56535600D02*
X99228720Y-56764171D01*
X99228720Y-56764171D02*
X99171578Y-56878457D01*
X99171578Y-56878457D02*
X99114435Y-56935600D01*
X99114435Y-56935600D02*
X99000149Y-56992742D01*
X99000149Y-56992742D02*
X98885863Y-56992742D01*
X98885863Y-56992742D02*
X98771578Y-56935600D01*
X98771578Y-56935600D02*
X98714435Y-56878457D01*
X98714435Y-56878457D02*
X98657292Y-56764171D01*
X98657292Y-56764171D02*
X98600149Y-56535600D01*
X98600149Y-56535600D02*
X98600149Y-56249885D01*
X98600149Y-56249885D02*
X98657292Y-56021314D01*
X98657292Y-56021314D02*
X98714435Y-55907028D01*
X98714435Y-55907028D02*
X98771578Y-55849885D01*
X98771578Y-55849885D02*
X98885863Y-55792742D01*
X99743006Y-55907028D02*
X99800149Y-55849885D01*
X99800149Y-55849885D02*
X99914435Y-55792742D01*
X99914435Y-55792742D02*
X100200149Y-55792742D01*
X100200149Y-55792742D02*
X100314435Y-55849885D01*
X100314435Y-55849885D02*
X100371577Y-55907028D01*
X100371577Y-55907028D02*
X100428720Y-56021314D01*
X100428720Y-56021314D02*
X100428720Y-56135600D01*
X100428720Y-56135600D02*
X100371577Y-56307028D01*
X100371577Y-56307028D02*
X99685863Y-56992742D01*
X99685863Y-56992742D02*
X100428720Y-56992742D01*
X101457292Y-56192742D02*
X101457292Y-56992742D01*
X101171577Y-55735600D02*
X100885863Y-56592742D01*
X100885863Y-56592742D02*
X101628720Y-56592742D01*
D12*
X143536666Y-41364819D02*
X143536666Y-42079104D01*
X143536666Y-42079104D02*
X143489047Y-42221961D01*
X143489047Y-42221961D02*
X143393809Y-42317200D01*
X143393809Y-42317200D02*
X143250952Y-42364819D01*
X143250952Y-42364819D02*
X143155714Y-42364819D01*
X143965238Y-41460057D02*
X144012857Y-41412438D01*
X144012857Y-41412438D02*
X144108095Y-41364819D01*
X144108095Y-41364819D02*
X144346190Y-41364819D01*
X144346190Y-41364819D02*
X144441428Y-41412438D01*
X144441428Y-41412438D02*
X144489047Y-41460057D01*
X144489047Y-41460057D02*
X144536666Y-41555295D01*
X144536666Y-41555295D02*
X144536666Y-41650533D01*
X144536666Y-41650533D02*
X144489047Y-41793390D01*
X144489047Y-41793390D02*
X143917619Y-42364819D01*
X143917619Y-42364819D02*
X144536666Y-42364819D01*
X121536666Y-41364819D02*
X121536666Y-42079104D01*
X121536666Y-42079104D02*
X121489047Y-42221961D01*
X121489047Y-42221961D02*
X121393809Y-42317200D01*
X121393809Y-42317200D02*
X121250952Y-42364819D01*
X121250952Y-42364819D02*
X121155714Y-42364819D01*
X121917619Y-41364819D02*
X122536666Y-41364819D01*
X122536666Y-41364819D02*
X122203333Y-41745771D01*
X122203333Y-41745771D02*
X122346190Y-41745771D01*
X122346190Y-41745771D02*
X122441428Y-41793390D01*
X122441428Y-41793390D02*
X122489047Y-41841009D01*
X122489047Y-41841009D02*
X122536666Y-41936247D01*
X122536666Y-41936247D02*
X122536666Y-42174342D01*
X122536666Y-42174342D02*
X122489047Y-42269580D01*
X122489047Y-42269580D02*
X122441428Y-42317200D01*
X122441428Y-42317200D02*
X122346190Y-42364819D01*
X122346190Y-42364819D02*
X122060476Y-42364819D01*
X122060476Y-42364819D02*
X121965238Y-42317200D01*
X121965238Y-42317200D02*
X121917619Y-42269580D01*
X119185057Y-52595238D02*
X119137438Y-52690476D01*
X119137438Y-52690476D02*
X119042200Y-52785714D01*
X119042200Y-52785714D02*
X118899342Y-52928571D01*
X118899342Y-52928571D02*
X118851723Y-53023809D01*
X118851723Y-53023809D02*
X118851723Y-53119047D01*
X119089819Y-53071428D02*
X119042200Y-53166666D01*
X119042200Y-53166666D02*
X118946961Y-53261904D01*
X118946961Y-53261904D02*
X118756485Y-53309523D01*
X118756485Y-53309523D02*
X118423152Y-53309523D01*
X118423152Y-53309523D02*
X118232676Y-53261904D01*
X118232676Y-53261904D02*
X118137438Y-53166666D01*
X118137438Y-53166666D02*
X118089819Y-53071428D01*
X118089819Y-53071428D02*
X118089819Y-52880952D01*
X118089819Y-52880952D02*
X118137438Y-52785714D01*
X118137438Y-52785714D02*
X118232676Y-52690476D01*
X118232676Y-52690476D02*
X118423152Y-52642857D01*
X118423152Y-52642857D02*
X118756485Y-52642857D01*
X118756485Y-52642857D02*
X118946961Y-52690476D01*
X118946961Y-52690476D02*
X119042200Y-52785714D01*
X119042200Y-52785714D02*
X119089819Y-52880952D01*
X119089819Y-52880952D02*
X119089819Y-53071428D01*
X118089819Y-51785714D02*
X118089819Y-51976190D01*
X118089819Y-51976190D02*
X118137438Y-52071428D01*
X118137438Y-52071428D02*
X118185057Y-52119047D01*
X118185057Y-52119047D02*
X118327914Y-52214285D01*
X118327914Y-52214285D02*
X118518390Y-52261904D01*
X118518390Y-52261904D02*
X118899342Y-52261904D01*
X118899342Y-52261904D02*
X118994580Y-52214285D01*
X118994580Y-52214285D02*
X119042200Y-52166666D01*
X119042200Y-52166666D02*
X119089819Y-52071428D01*
X119089819Y-52071428D02*
X119089819Y-51880952D01*
X119089819Y-51880952D02*
X119042200Y-51785714D01*
X119042200Y-51785714D02*
X118994580Y-51738095D01*
X118994580Y-51738095D02*
X118899342Y-51690476D01*
X118899342Y-51690476D02*
X118661247Y-51690476D01*
X118661247Y-51690476D02*
X118566009Y-51738095D01*
X118566009Y-51738095D02*
X118518390Y-51785714D01*
X118518390Y-51785714D02*
X118470771Y-51880952D01*
X118470771Y-51880952D02*
X118470771Y-52071428D01*
X118470771Y-52071428D02*
X118518390Y-52166666D01*
X118518390Y-52166666D02*
X118566009Y-52214285D01*
X118566009Y-52214285D02*
X118661247Y-52261904D01*
X115753019Y-56005199D02*
X115991114Y-56005199D01*
X115895876Y-56243294D02*
X115991114Y-56005199D01*
X115991114Y-56005199D02*
X115895876Y-55767104D01*
X116181590Y-56148056D02*
X115991114Y-56005199D01*
X115991114Y-56005199D02*
X116181590Y-55862342D01*
X115753019Y-56005199D02*
X115991114Y-56005199D01*
X115895876Y-56243294D02*
X115991114Y-56005199D01*
X115991114Y-56005199D02*
X115895876Y-55767104D01*
X116181590Y-56148056D02*
X115991114Y-56005199D01*
X115991114Y-56005199D02*
X116181590Y-55862342D01*
X175984819Y-53673333D02*
X176699104Y-53673333D01*
X176699104Y-53673333D02*
X176841961Y-53720952D01*
X176841961Y-53720952D02*
X176937200Y-53816190D01*
X176937200Y-53816190D02*
X176984819Y-53959047D01*
X176984819Y-53959047D02*
X176984819Y-54054285D01*
X176413390Y-53054285D02*
X176365771Y-53149523D01*
X176365771Y-53149523D02*
X176318152Y-53197142D01*
X176318152Y-53197142D02*
X176222914Y-53244761D01*
X176222914Y-53244761D02*
X176175295Y-53244761D01*
X176175295Y-53244761D02*
X176080057Y-53197142D01*
X176080057Y-53197142D02*
X176032438Y-53149523D01*
X176032438Y-53149523D02*
X175984819Y-53054285D01*
X175984819Y-53054285D02*
X175984819Y-52863809D01*
X175984819Y-52863809D02*
X176032438Y-52768571D01*
X176032438Y-52768571D02*
X176080057Y-52720952D01*
X176080057Y-52720952D02*
X176175295Y-52673333D01*
X176175295Y-52673333D02*
X176222914Y-52673333D01*
X176222914Y-52673333D02*
X176318152Y-52720952D01*
X176318152Y-52720952D02*
X176365771Y-52768571D01*
X176365771Y-52768571D02*
X176413390Y-52863809D01*
X176413390Y-52863809D02*
X176413390Y-53054285D01*
X176413390Y-53054285D02*
X176461009Y-53149523D01*
X176461009Y-53149523D02*
X176508628Y-53197142D01*
X176508628Y-53197142D02*
X176603866Y-53244761D01*
X176603866Y-53244761D02*
X176794342Y-53244761D01*
X176794342Y-53244761D02*
X176889580Y-53197142D01*
X176889580Y-53197142D02*
X176937200Y-53149523D01*
X176937200Y-53149523D02*
X176984819Y-53054285D01*
X176984819Y-53054285D02*
X176984819Y-52863809D01*
X176984819Y-52863809D02*
X176937200Y-52768571D01*
X176937200Y-52768571D02*
X176889580Y-52720952D01*
X176889580Y-52720952D02*
X176794342Y-52673333D01*
X176794342Y-52673333D02*
X176603866Y-52673333D01*
X176603866Y-52673333D02*
X176508628Y-52720952D01*
X176508628Y-52720952D02*
X176461009Y-52768571D01*
X176461009Y-52768571D02*
X176413390Y-52863809D01*
X179194819Y-37933333D02*
X179909104Y-37933333D01*
X179909104Y-37933333D02*
X180051961Y-37980952D01*
X180051961Y-37980952D02*
X180147200Y-38076190D01*
X180147200Y-38076190D02*
X180194819Y-38219047D01*
X180194819Y-38219047D02*
X180194819Y-38314285D01*
X179194819Y-37552380D02*
X179194819Y-36885714D01*
X179194819Y-36885714D02*
X180194819Y-37314285D01*
X123550057Y-52595238D02*
X123502438Y-52690476D01*
X123502438Y-52690476D02*
X123407200Y-52785714D01*
X123407200Y-52785714D02*
X123264342Y-52928571D01*
X123264342Y-52928571D02*
X123216723Y-53023809D01*
X123216723Y-53023809D02*
X123216723Y-53119047D01*
X123454819Y-53071428D02*
X123407200Y-53166666D01*
X123407200Y-53166666D02*
X123311961Y-53261904D01*
X123311961Y-53261904D02*
X123121485Y-53309523D01*
X123121485Y-53309523D02*
X122788152Y-53309523D01*
X122788152Y-53309523D02*
X122597676Y-53261904D01*
X122597676Y-53261904D02*
X122502438Y-53166666D01*
X122502438Y-53166666D02*
X122454819Y-53071428D01*
X122454819Y-53071428D02*
X122454819Y-52880952D01*
X122454819Y-52880952D02*
X122502438Y-52785714D01*
X122502438Y-52785714D02*
X122597676Y-52690476D01*
X122597676Y-52690476D02*
X122788152Y-52642857D01*
X122788152Y-52642857D02*
X123121485Y-52642857D01*
X123121485Y-52642857D02*
X123311961Y-52690476D01*
X123311961Y-52690476D02*
X123407200Y-52785714D01*
X123407200Y-52785714D02*
X123454819Y-52880952D01*
X123454819Y-52880952D02*
X123454819Y-53071428D01*
X122454819Y-51738095D02*
X122454819Y-52214285D01*
X122454819Y-52214285D02*
X122931009Y-52261904D01*
X122931009Y-52261904D02*
X122883390Y-52214285D01*
X122883390Y-52214285D02*
X122835771Y-52119047D01*
X122835771Y-52119047D02*
X122835771Y-51880952D01*
X122835771Y-51880952D02*
X122883390Y-51785714D01*
X122883390Y-51785714D02*
X122931009Y-51738095D01*
X122931009Y-51738095D02*
X123026247Y-51690476D01*
X123026247Y-51690476D02*
X123264342Y-51690476D01*
X123264342Y-51690476D02*
X123359580Y-51738095D01*
X123359580Y-51738095D02*
X123407200Y-51785714D01*
X123407200Y-51785714D02*
X123454819Y-51880952D01*
X123454819Y-51880952D02*
X123454819Y-52119047D01*
X123454819Y-52119047D02*
X123407200Y-52214285D01*
X123407200Y-52214285D02*
X123359580Y-52261904D01*
X120118019Y-56005199D02*
X120356114Y-56005199D01*
X120260876Y-56243294D02*
X120356114Y-56005199D01*
X120356114Y-56005199D02*
X120260876Y-55767104D01*
X120546590Y-56148056D02*
X120356114Y-56005199D01*
X120356114Y-56005199D02*
X120546590Y-55862342D01*
X120118019Y-56005199D02*
X120356114Y-56005199D01*
X120260876Y-56243294D02*
X120356114Y-56005199D01*
X120356114Y-56005199D02*
X120260876Y-55767104D01*
X120546590Y-56148056D02*
X120356114Y-56005199D01*
X120356114Y-56005199D02*
X120546590Y-55862342D01*
X141050057Y-52346438D02*
X141002438Y-52441676D01*
X141002438Y-52441676D02*
X140907200Y-52536914D01*
X140907200Y-52536914D02*
X140764342Y-52679771D01*
X140764342Y-52679771D02*
X140716723Y-52775009D01*
X140716723Y-52775009D02*
X140716723Y-52870247D01*
X140954819Y-52822628D02*
X140907200Y-52917866D01*
X140907200Y-52917866D02*
X140811961Y-53013104D01*
X140811961Y-53013104D02*
X140621485Y-53060723D01*
X140621485Y-53060723D02*
X140288152Y-53060723D01*
X140288152Y-53060723D02*
X140097676Y-53013104D01*
X140097676Y-53013104D02*
X140002438Y-52917866D01*
X140002438Y-52917866D02*
X139954819Y-52822628D01*
X139954819Y-52822628D02*
X139954819Y-52632152D01*
X139954819Y-52632152D02*
X140002438Y-52536914D01*
X140002438Y-52536914D02*
X140097676Y-52441676D01*
X140097676Y-52441676D02*
X140288152Y-52394057D01*
X140288152Y-52394057D02*
X140621485Y-52394057D01*
X140621485Y-52394057D02*
X140811961Y-52441676D01*
X140811961Y-52441676D02*
X140907200Y-52536914D01*
X140907200Y-52536914D02*
X140954819Y-52632152D01*
X140954819Y-52632152D02*
X140954819Y-52822628D01*
X140954819Y-51441676D02*
X140954819Y-52013104D01*
X140954819Y-51727390D02*
X139954819Y-51727390D01*
X139954819Y-51727390D02*
X140097676Y-51822628D01*
X140097676Y-51822628D02*
X140192914Y-51917866D01*
X140192914Y-51917866D02*
X140240533Y-52013104D01*
X137618019Y-55756399D02*
X137856114Y-55756399D01*
X137760876Y-55994494D02*
X137856114Y-55756399D01*
X137856114Y-55756399D02*
X137760876Y-55518304D01*
X138046590Y-55899256D02*
X137856114Y-55756399D01*
X137856114Y-55756399D02*
X138046590Y-55613542D01*
X137618019Y-55756399D02*
X137856114Y-55756399D01*
X137760876Y-55994494D02*
X137856114Y-55756399D01*
X137856114Y-55756399D02*
X137760876Y-55518304D01*
X138046590Y-55899256D02*
X137856114Y-55756399D01*
X137856114Y-55756399D02*
X138046590Y-55613542D01*
X86304819Y-45142857D02*
X85828628Y-45476190D01*
X86304819Y-45714285D02*
X85304819Y-45714285D01*
X85304819Y-45714285D02*
X85304819Y-45333333D01*
X85304819Y-45333333D02*
X85352438Y-45238095D01*
X85352438Y-45238095D02*
X85400057Y-45190476D01*
X85400057Y-45190476D02*
X85495295Y-45142857D01*
X85495295Y-45142857D02*
X85638152Y-45142857D01*
X85638152Y-45142857D02*
X85733390Y-45190476D01*
X85733390Y-45190476D02*
X85781009Y-45238095D01*
X85781009Y-45238095D02*
X85828628Y-45333333D01*
X85828628Y-45333333D02*
X85828628Y-45714285D01*
X86304819Y-44190476D02*
X86304819Y-44761904D01*
X86304819Y-44476190D02*
X85304819Y-44476190D01*
X85304819Y-44476190D02*
X85447676Y-44571428D01*
X85447676Y-44571428D02*
X85542914Y-44666666D01*
X85542914Y-44666666D02*
X85590533Y-44761904D01*
X86304819Y-43238095D02*
X86304819Y-43809523D01*
X86304819Y-43523809D02*
X85304819Y-43523809D01*
X85304819Y-43523809D02*
X85447676Y-43619047D01*
X85447676Y-43619047D02*
X85542914Y-43714285D01*
X85542914Y-43714285D02*
X85590533Y-43809523D01*
X129804819Y-44666666D02*
X129328628Y-44999999D01*
X129804819Y-45238094D02*
X128804819Y-45238094D01*
X128804819Y-45238094D02*
X128804819Y-44857142D01*
X128804819Y-44857142D02*
X128852438Y-44761904D01*
X128852438Y-44761904D02*
X128900057Y-44714285D01*
X128900057Y-44714285D02*
X128995295Y-44666666D01*
X128995295Y-44666666D02*
X129138152Y-44666666D01*
X129138152Y-44666666D02*
X129233390Y-44714285D01*
X129233390Y-44714285D02*
X129281009Y-44761904D01*
X129281009Y-44761904D02*
X129328628Y-44857142D01*
X129328628Y-44857142D02*
X129328628Y-45238094D01*
X129804819Y-44190475D02*
X129804819Y-43999999D01*
X129804819Y-43999999D02*
X129757200Y-43904761D01*
X129757200Y-43904761D02*
X129709580Y-43857142D01*
X129709580Y-43857142D02*
X129566723Y-43761904D01*
X129566723Y-43761904D02*
X129376247Y-43714285D01*
X129376247Y-43714285D02*
X128995295Y-43714285D01*
X128995295Y-43714285D02*
X128900057Y-43761904D01*
X128900057Y-43761904D02*
X128852438Y-43809523D01*
X128852438Y-43809523D02*
X128804819Y-43904761D01*
X128804819Y-43904761D02*
X128804819Y-44095237D01*
X128804819Y-44095237D02*
X128852438Y-44190475D01*
X128852438Y-44190475D02*
X128900057Y-44238094D01*
X128900057Y-44238094D02*
X128995295Y-44285713D01*
X128995295Y-44285713D02*
X129233390Y-44285713D01*
X129233390Y-44285713D02*
X129328628Y-44238094D01*
X129328628Y-44238094D02*
X129376247Y-44190475D01*
X129376247Y-44190475D02*
X129423866Y-44095237D01*
X129423866Y-44095237D02*
X129423866Y-43904761D01*
X129423866Y-43904761D02*
X129376247Y-43809523D01*
X129376247Y-43809523D02*
X129328628Y-43761904D01*
X129328628Y-43761904D02*
X129233390Y-43714285D01*
X174304819Y-44666666D02*
X173828628Y-44999999D01*
X174304819Y-45238094D02*
X173304819Y-45238094D01*
X173304819Y-45238094D02*
X173304819Y-44857142D01*
X173304819Y-44857142D02*
X173352438Y-44761904D01*
X173352438Y-44761904D02*
X173400057Y-44714285D01*
X173400057Y-44714285D02*
X173495295Y-44666666D01*
X173495295Y-44666666D02*
X173638152Y-44666666D01*
X173638152Y-44666666D02*
X173733390Y-44714285D01*
X173733390Y-44714285D02*
X173781009Y-44761904D01*
X173781009Y-44761904D02*
X173828628Y-44857142D01*
X173828628Y-44857142D02*
X173828628Y-45238094D01*
X173304819Y-44333332D02*
X173304819Y-43666666D01*
X173304819Y-43666666D02*
X174304819Y-44095237D01*
X55536666Y-41364819D02*
X55536666Y-42079104D01*
X55536666Y-42079104D02*
X55489047Y-42221961D01*
X55489047Y-42221961D02*
X55393809Y-42317200D01*
X55393809Y-42317200D02*
X55250952Y-42364819D01*
X55250952Y-42364819D02*
X55155714Y-42364819D01*
X56441428Y-41364819D02*
X56250952Y-41364819D01*
X56250952Y-41364819D02*
X56155714Y-41412438D01*
X56155714Y-41412438D02*
X56108095Y-41460057D01*
X56108095Y-41460057D02*
X56012857Y-41602914D01*
X56012857Y-41602914D02*
X55965238Y-41793390D01*
X55965238Y-41793390D02*
X55965238Y-42174342D01*
X55965238Y-42174342D02*
X56012857Y-42269580D01*
X56012857Y-42269580D02*
X56060476Y-42317200D01*
X56060476Y-42317200D02*
X56155714Y-42364819D01*
X56155714Y-42364819D02*
X56346190Y-42364819D01*
X56346190Y-42364819D02*
X56441428Y-42317200D01*
X56441428Y-42317200D02*
X56489047Y-42269580D01*
X56489047Y-42269580D02*
X56536666Y-42174342D01*
X56536666Y-42174342D02*
X56536666Y-41936247D01*
X56536666Y-41936247D02*
X56489047Y-41841009D01*
X56489047Y-41841009D02*
X56441428Y-41793390D01*
X56441428Y-41793390D02*
X56346190Y-41745771D01*
X56346190Y-41745771D02*
X56155714Y-41745771D01*
X56155714Y-41745771D02*
X56060476Y-41793390D01*
X56060476Y-41793390D02*
X56012857Y-41841009D01*
X56012857Y-41841009D02*
X55965238Y-41936247D01*
X83663095Y-61819819D02*
X83663095Y-62629342D01*
X83663095Y-62629342D02*
X83710714Y-62724580D01*
X83710714Y-62724580D02*
X83758333Y-62772200D01*
X83758333Y-62772200D02*
X83853571Y-62819819D01*
X83853571Y-62819819D02*
X84044047Y-62819819D01*
X84044047Y-62819819D02*
X84139285Y-62772200D01*
X84139285Y-62772200D02*
X84186904Y-62724580D01*
X84186904Y-62724580D02*
X84234523Y-62629342D01*
X84234523Y-62629342D02*
X84234523Y-61819819D01*
X85234523Y-62819819D02*
X84663095Y-62819819D01*
X84948809Y-62819819D02*
X84948809Y-61819819D01*
X84948809Y-61819819D02*
X84853571Y-61962676D01*
X84853571Y-61962676D02*
X84758333Y-62057914D01*
X84758333Y-62057914D02*
X84663095Y-62105533D01*
X99536666Y-41364819D02*
X99536666Y-42079104D01*
X99536666Y-42079104D02*
X99489047Y-42221961D01*
X99489047Y-42221961D02*
X99393809Y-42317200D01*
X99393809Y-42317200D02*
X99250952Y-42364819D01*
X99250952Y-42364819D02*
X99155714Y-42364819D01*
X100441428Y-41698152D02*
X100441428Y-42364819D01*
X100203333Y-41317200D02*
X99965238Y-42031485D01*
X99965238Y-42031485D02*
X100584285Y-42031485D01*
X166036666Y-41364819D02*
X166036666Y-42079104D01*
X166036666Y-42079104D02*
X165989047Y-42221961D01*
X165989047Y-42221961D02*
X165893809Y-42317200D01*
X165893809Y-42317200D02*
X165750952Y-42364819D01*
X165750952Y-42364819D02*
X165655714Y-42364819D01*
X167036666Y-42364819D02*
X166465238Y-42364819D01*
X166750952Y-42364819D02*
X166750952Y-41364819D01*
X166750952Y-41364819D02*
X166655714Y-41507676D01*
X166655714Y-41507676D02*
X166560476Y-41602914D01*
X166560476Y-41602914D02*
X166465238Y-41650533D01*
X152304819Y-44666666D02*
X151828628Y-44999999D01*
X152304819Y-45238094D02*
X151304819Y-45238094D01*
X151304819Y-45238094D02*
X151304819Y-44857142D01*
X151304819Y-44857142D02*
X151352438Y-44761904D01*
X151352438Y-44761904D02*
X151400057Y-44714285D01*
X151400057Y-44714285D02*
X151495295Y-44666666D01*
X151495295Y-44666666D02*
X151638152Y-44666666D01*
X151638152Y-44666666D02*
X151733390Y-44714285D01*
X151733390Y-44714285D02*
X151781009Y-44761904D01*
X151781009Y-44761904D02*
X151828628Y-44857142D01*
X151828628Y-44857142D02*
X151828628Y-45238094D01*
X151733390Y-44095237D02*
X151685771Y-44190475D01*
X151685771Y-44190475D02*
X151638152Y-44238094D01*
X151638152Y-44238094D02*
X151542914Y-44285713D01*
X151542914Y-44285713D02*
X151495295Y-44285713D01*
X151495295Y-44285713D02*
X151400057Y-44238094D01*
X151400057Y-44238094D02*
X151352438Y-44190475D01*
X151352438Y-44190475D02*
X151304819Y-44095237D01*
X151304819Y-44095237D02*
X151304819Y-43904761D01*
X151304819Y-43904761D02*
X151352438Y-43809523D01*
X151352438Y-43809523D02*
X151400057Y-43761904D01*
X151400057Y-43761904D02*
X151495295Y-43714285D01*
X151495295Y-43714285D02*
X151542914Y-43714285D01*
X151542914Y-43714285D02*
X151638152Y-43761904D01*
X151638152Y-43761904D02*
X151685771Y-43809523D01*
X151685771Y-43809523D02*
X151733390Y-43904761D01*
X151733390Y-43904761D02*
X151733390Y-44095237D01*
X151733390Y-44095237D02*
X151781009Y-44190475D01*
X151781009Y-44190475D02*
X151828628Y-44238094D01*
X151828628Y-44238094D02*
X151923866Y-44285713D01*
X151923866Y-44285713D02*
X152114342Y-44285713D01*
X152114342Y-44285713D02*
X152209580Y-44238094D01*
X152209580Y-44238094D02*
X152257200Y-44190475D01*
X152257200Y-44190475D02*
X152304819Y-44095237D01*
X152304819Y-44095237D02*
X152304819Y-43904761D01*
X152304819Y-43904761D02*
X152257200Y-43809523D01*
X152257200Y-43809523D02*
X152209580Y-43761904D01*
X152209580Y-43761904D02*
X152114342Y-43714285D01*
X152114342Y-43714285D02*
X151923866Y-43714285D01*
X151923866Y-43714285D02*
X151828628Y-43761904D01*
X151828628Y-43761904D02*
X151781009Y-43809523D01*
X151781009Y-43809523D02*
X151733390Y-43904761D01*
X126804819Y-59666666D02*
X126328628Y-59999999D01*
X126804819Y-60238094D02*
X125804819Y-60238094D01*
X125804819Y-60238094D02*
X125804819Y-59857142D01*
X125804819Y-59857142D02*
X125852438Y-59761904D01*
X125852438Y-59761904D02*
X125900057Y-59714285D01*
X125900057Y-59714285D02*
X125995295Y-59666666D01*
X125995295Y-59666666D02*
X126138152Y-59666666D01*
X126138152Y-59666666D02*
X126233390Y-59714285D01*
X126233390Y-59714285D02*
X126281009Y-59761904D01*
X126281009Y-59761904D02*
X126328628Y-59857142D01*
X126328628Y-59857142D02*
X126328628Y-60238094D01*
X126138152Y-58809523D02*
X126804819Y-58809523D01*
X125757200Y-59047618D02*
X126471485Y-59285713D01*
X126471485Y-59285713D02*
X126471485Y-58666666D01*
X117804819Y-59666666D02*
X117328628Y-59999999D01*
X117804819Y-60238094D02*
X116804819Y-60238094D01*
X116804819Y-60238094D02*
X116804819Y-59857142D01*
X116804819Y-59857142D02*
X116852438Y-59761904D01*
X116852438Y-59761904D02*
X116900057Y-59714285D01*
X116900057Y-59714285D02*
X116995295Y-59666666D01*
X116995295Y-59666666D02*
X117138152Y-59666666D01*
X117138152Y-59666666D02*
X117233390Y-59714285D01*
X117233390Y-59714285D02*
X117281009Y-59761904D01*
X117281009Y-59761904D02*
X117328628Y-59857142D01*
X117328628Y-59857142D02*
X117328628Y-60238094D01*
X116804819Y-58809523D02*
X116804819Y-58999999D01*
X116804819Y-58999999D02*
X116852438Y-59095237D01*
X116852438Y-59095237D02*
X116900057Y-59142856D01*
X116900057Y-59142856D02*
X117042914Y-59238094D01*
X117042914Y-59238094D02*
X117233390Y-59285713D01*
X117233390Y-59285713D02*
X117614342Y-59285713D01*
X117614342Y-59285713D02*
X117709580Y-59238094D01*
X117709580Y-59238094D02*
X117757200Y-59190475D01*
X117757200Y-59190475D02*
X117804819Y-59095237D01*
X117804819Y-59095237D02*
X117804819Y-58904761D01*
X117804819Y-58904761D02*
X117757200Y-58809523D01*
X117757200Y-58809523D02*
X117709580Y-58761904D01*
X117709580Y-58761904D02*
X117614342Y-58714285D01*
X117614342Y-58714285D02*
X117376247Y-58714285D01*
X117376247Y-58714285D02*
X117281009Y-58761904D01*
X117281009Y-58761904D02*
X117233390Y-58809523D01*
X117233390Y-58809523D02*
X117185771Y-58904761D01*
X117185771Y-58904761D02*
X117185771Y-59095237D01*
X117185771Y-59095237D02*
X117233390Y-59190475D01*
X117233390Y-59190475D02*
X117281009Y-59238094D01*
X117281009Y-59238094D02*
X117376247Y-59285713D01*
X136550057Y-52595238D02*
X136502438Y-52690476D01*
X136502438Y-52690476D02*
X136407200Y-52785714D01*
X136407200Y-52785714D02*
X136264342Y-52928571D01*
X136264342Y-52928571D02*
X136216723Y-53023809D01*
X136216723Y-53023809D02*
X136216723Y-53119047D01*
X136454819Y-53071428D02*
X136407200Y-53166666D01*
X136407200Y-53166666D02*
X136311961Y-53261904D01*
X136311961Y-53261904D02*
X136121485Y-53309523D01*
X136121485Y-53309523D02*
X135788152Y-53309523D01*
X135788152Y-53309523D02*
X135597676Y-53261904D01*
X135597676Y-53261904D02*
X135502438Y-53166666D01*
X135502438Y-53166666D02*
X135454819Y-53071428D01*
X135454819Y-53071428D02*
X135454819Y-52880952D01*
X135454819Y-52880952D02*
X135502438Y-52785714D01*
X135502438Y-52785714D02*
X135597676Y-52690476D01*
X135597676Y-52690476D02*
X135788152Y-52642857D01*
X135788152Y-52642857D02*
X136121485Y-52642857D01*
X136121485Y-52642857D02*
X136311961Y-52690476D01*
X136311961Y-52690476D02*
X136407200Y-52785714D01*
X136407200Y-52785714D02*
X136454819Y-52880952D01*
X136454819Y-52880952D02*
X136454819Y-53071428D01*
X135550057Y-52261904D02*
X135502438Y-52214285D01*
X135502438Y-52214285D02*
X135454819Y-52119047D01*
X135454819Y-52119047D02*
X135454819Y-51880952D01*
X135454819Y-51880952D02*
X135502438Y-51785714D01*
X135502438Y-51785714D02*
X135550057Y-51738095D01*
X135550057Y-51738095D02*
X135645295Y-51690476D01*
X135645295Y-51690476D02*
X135740533Y-51690476D01*
X135740533Y-51690476D02*
X135883390Y-51738095D01*
X135883390Y-51738095D02*
X136454819Y-52309523D01*
X136454819Y-52309523D02*
X136454819Y-51690476D01*
X133118019Y-56005199D02*
X133356114Y-56005199D01*
X133260876Y-56243294D02*
X133356114Y-56005199D01*
X133356114Y-56005199D02*
X133260876Y-55767104D01*
X133546590Y-56148056D02*
X133356114Y-56005199D01*
X133356114Y-56005199D02*
X133546590Y-55862342D01*
X133118019Y-56005199D02*
X133356114Y-56005199D01*
X133260876Y-56243294D02*
X133356114Y-56005199D01*
X133356114Y-56005199D02*
X133260876Y-55767104D01*
X133546590Y-56148056D02*
X133356114Y-56005199D01*
X133356114Y-56005199D02*
X133546590Y-55862342D01*
X132415057Y-52595238D02*
X132367438Y-52690476D01*
X132367438Y-52690476D02*
X132272200Y-52785714D01*
X132272200Y-52785714D02*
X132129342Y-52928571D01*
X132129342Y-52928571D02*
X132081723Y-53023809D01*
X132081723Y-53023809D02*
X132081723Y-53119047D01*
X132319819Y-53071428D02*
X132272200Y-53166666D01*
X132272200Y-53166666D02*
X132176961Y-53261904D01*
X132176961Y-53261904D02*
X131986485Y-53309523D01*
X131986485Y-53309523D02*
X131653152Y-53309523D01*
X131653152Y-53309523D02*
X131462676Y-53261904D01*
X131462676Y-53261904D02*
X131367438Y-53166666D01*
X131367438Y-53166666D02*
X131319819Y-53071428D01*
X131319819Y-53071428D02*
X131319819Y-52880952D01*
X131319819Y-52880952D02*
X131367438Y-52785714D01*
X131367438Y-52785714D02*
X131462676Y-52690476D01*
X131462676Y-52690476D02*
X131653152Y-52642857D01*
X131653152Y-52642857D02*
X131986485Y-52642857D01*
X131986485Y-52642857D02*
X132176961Y-52690476D01*
X132176961Y-52690476D02*
X132272200Y-52785714D01*
X132272200Y-52785714D02*
X132319819Y-52880952D01*
X132319819Y-52880952D02*
X132319819Y-53071428D01*
X131319819Y-52309523D02*
X131319819Y-51690476D01*
X131319819Y-51690476D02*
X131700771Y-52023809D01*
X131700771Y-52023809D02*
X131700771Y-51880952D01*
X131700771Y-51880952D02*
X131748390Y-51785714D01*
X131748390Y-51785714D02*
X131796009Y-51738095D01*
X131796009Y-51738095D02*
X131891247Y-51690476D01*
X131891247Y-51690476D02*
X132129342Y-51690476D01*
X132129342Y-51690476D02*
X132224580Y-51738095D01*
X132224580Y-51738095D02*
X132272200Y-51785714D01*
X132272200Y-51785714D02*
X132319819Y-51880952D01*
X132319819Y-51880952D02*
X132319819Y-52166666D01*
X132319819Y-52166666D02*
X132272200Y-52261904D01*
X132272200Y-52261904D02*
X132224580Y-52309523D01*
X128983019Y-56005199D02*
X129221114Y-56005199D01*
X129125876Y-56243294D02*
X129221114Y-56005199D01*
X129221114Y-56005199D02*
X129125876Y-55767104D01*
X129411590Y-56148056D02*
X129221114Y-56005199D01*
X129221114Y-56005199D02*
X129411590Y-55862342D01*
X128983019Y-56005199D02*
X129221114Y-56005199D01*
X129125876Y-56243294D02*
X129221114Y-56005199D01*
X129221114Y-56005199D02*
X129125876Y-55767104D01*
X129411590Y-56148056D02*
X129221114Y-56005199D01*
X129221114Y-56005199D02*
X129411590Y-55862342D01*
X77536666Y-41364819D02*
X77536666Y-42079104D01*
X77536666Y-42079104D02*
X77489047Y-42221961D01*
X77489047Y-42221961D02*
X77393809Y-42317200D01*
X77393809Y-42317200D02*
X77250952Y-42364819D01*
X77250952Y-42364819D02*
X77155714Y-42364819D01*
X78489047Y-41364819D02*
X78012857Y-41364819D01*
X78012857Y-41364819D02*
X77965238Y-41841009D01*
X77965238Y-41841009D02*
X78012857Y-41793390D01*
X78012857Y-41793390D02*
X78108095Y-41745771D01*
X78108095Y-41745771D02*
X78346190Y-41745771D01*
X78346190Y-41745771D02*
X78441428Y-41793390D01*
X78441428Y-41793390D02*
X78489047Y-41841009D01*
X78489047Y-41841009D02*
X78536666Y-41936247D01*
X78536666Y-41936247D02*
X78536666Y-42174342D01*
X78536666Y-42174342D02*
X78489047Y-42269580D01*
X78489047Y-42269580D02*
X78441428Y-42317200D01*
X78441428Y-42317200D02*
X78346190Y-42364819D01*
X78346190Y-42364819D02*
X78108095Y-42364819D01*
X78108095Y-42364819D02*
X78012857Y-42317200D01*
X78012857Y-42317200D02*
X77965238Y-42269580D01*
X128050057Y-52595238D02*
X128002438Y-52690476D01*
X128002438Y-52690476D02*
X127907200Y-52785714D01*
X127907200Y-52785714D02*
X127764342Y-52928571D01*
X127764342Y-52928571D02*
X127716723Y-53023809D01*
X127716723Y-53023809D02*
X127716723Y-53119047D01*
X127954819Y-53071428D02*
X127907200Y-53166666D01*
X127907200Y-53166666D02*
X127811961Y-53261904D01*
X127811961Y-53261904D02*
X127621485Y-53309523D01*
X127621485Y-53309523D02*
X127288152Y-53309523D01*
X127288152Y-53309523D02*
X127097676Y-53261904D01*
X127097676Y-53261904D02*
X127002438Y-53166666D01*
X127002438Y-53166666D02*
X126954819Y-53071428D01*
X126954819Y-53071428D02*
X126954819Y-52880952D01*
X126954819Y-52880952D02*
X127002438Y-52785714D01*
X127002438Y-52785714D02*
X127097676Y-52690476D01*
X127097676Y-52690476D02*
X127288152Y-52642857D01*
X127288152Y-52642857D02*
X127621485Y-52642857D01*
X127621485Y-52642857D02*
X127811961Y-52690476D01*
X127811961Y-52690476D02*
X127907200Y-52785714D01*
X127907200Y-52785714D02*
X127954819Y-52880952D01*
X127954819Y-52880952D02*
X127954819Y-53071428D01*
X127288152Y-51785714D02*
X127954819Y-51785714D01*
X126907200Y-52023809D02*
X127621485Y-52261904D01*
X127621485Y-52261904D02*
X127621485Y-51642857D01*
X124618019Y-56005199D02*
X124856114Y-56005199D01*
X124760876Y-56243294D02*
X124856114Y-56005199D01*
X124856114Y-56005199D02*
X124760876Y-55767104D01*
X125046590Y-56148056D02*
X124856114Y-56005199D01*
X124856114Y-56005199D02*
X125046590Y-55862342D01*
X124618019Y-56005199D02*
X124856114Y-56005199D01*
X124760876Y-56243294D02*
X124856114Y-56005199D01*
X124856114Y-56005199D02*
X124760876Y-55767104D01*
X125046590Y-56148056D02*
X124856114Y-56005199D01*
X124856114Y-56005199D02*
X125046590Y-55862342D01*
X131304819Y-59666666D02*
X130828628Y-59999999D01*
X131304819Y-60238094D02*
X130304819Y-60238094D01*
X130304819Y-60238094D02*
X130304819Y-59857142D01*
X130304819Y-59857142D02*
X130352438Y-59761904D01*
X130352438Y-59761904D02*
X130400057Y-59714285D01*
X130400057Y-59714285D02*
X130495295Y-59666666D01*
X130495295Y-59666666D02*
X130638152Y-59666666D01*
X130638152Y-59666666D02*
X130733390Y-59714285D01*
X130733390Y-59714285D02*
X130781009Y-59761904D01*
X130781009Y-59761904D02*
X130828628Y-59857142D01*
X130828628Y-59857142D02*
X130828628Y-60238094D01*
X130304819Y-59333332D02*
X130304819Y-58714285D01*
X130304819Y-58714285D02*
X130685771Y-59047618D01*
X130685771Y-59047618D02*
X130685771Y-58904761D01*
X130685771Y-58904761D02*
X130733390Y-58809523D01*
X130733390Y-58809523D02*
X130781009Y-58761904D01*
X130781009Y-58761904D02*
X130876247Y-58714285D01*
X130876247Y-58714285D02*
X131114342Y-58714285D01*
X131114342Y-58714285D02*
X131209580Y-58761904D01*
X131209580Y-58761904D02*
X131257200Y-58809523D01*
X131257200Y-58809523D02*
X131304819Y-58904761D01*
X131304819Y-58904761D02*
X131304819Y-59190475D01*
X131304819Y-59190475D02*
X131257200Y-59285713D01*
X131257200Y-59285713D02*
X131209580Y-59333332D01*
X122304819Y-59666666D02*
X121828628Y-59999999D01*
X122304819Y-60238094D02*
X121304819Y-60238094D01*
X121304819Y-60238094D02*
X121304819Y-59857142D01*
X121304819Y-59857142D02*
X121352438Y-59761904D01*
X121352438Y-59761904D02*
X121400057Y-59714285D01*
X121400057Y-59714285D02*
X121495295Y-59666666D01*
X121495295Y-59666666D02*
X121638152Y-59666666D01*
X121638152Y-59666666D02*
X121733390Y-59714285D01*
X121733390Y-59714285D02*
X121781009Y-59761904D01*
X121781009Y-59761904D02*
X121828628Y-59857142D01*
X121828628Y-59857142D02*
X121828628Y-60238094D01*
X121304819Y-58761904D02*
X121304819Y-59238094D01*
X121304819Y-59238094D02*
X121781009Y-59285713D01*
X121781009Y-59285713D02*
X121733390Y-59238094D01*
X121733390Y-59238094D02*
X121685771Y-59142856D01*
X121685771Y-59142856D02*
X121685771Y-58904761D01*
X121685771Y-58904761D02*
X121733390Y-58809523D01*
X121733390Y-58809523D02*
X121781009Y-58761904D01*
X121781009Y-58761904D02*
X121876247Y-58714285D01*
X121876247Y-58714285D02*
X122114342Y-58714285D01*
X122114342Y-58714285D02*
X122209580Y-58761904D01*
X122209580Y-58761904D02*
X122257200Y-58809523D01*
X122257200Y-58809523D02*
X122304819Y-58904761D01*
X122304819Y-58904761D02*
X122304819Y-59142856D01*
X122304819Y-59142856D02*
X122257200Y-59238094D01*
X122257200Y-59238094D02*
X122209580Y-59285713D01*
X139804819Y-59666666D02*
X139328628Y-59999999D01*
X139804819Y-60238094D02*
X138804819Y-60238094D01*
X138804819Y-60238094D02*
X138804819Y-59857142D01*
X138804819Y-59857142D02*
X138852438Y-59761904D01*
X138852438Y-59761904D02*
X138900057Y-59714285D01*
X138900057Y-59714285D02*
X138995295Y-59666666D01*
X138995295Y-59666666D02*
X139138152Y-59666666D01*
X139138152Y-59666666D02*
X139233390Y-59714285D01*
X139233390Y-59714285D02*
X139281009Y-59761904D01*
X139281009Y-59761904D02*
X139328628Y-59857142D01*
X139328628Y-59857142D02*
X139328628Y-60238094D01*
X139804819Y-58714285D02*
X139804819Y-59285713D01*
X139804819Y-58999999D02*
X138804819Y-58999999D01*
X138804819Y-58999999D02*
X138947676Y-59095237D01*
X138947676Y-59095237D02*
X139042914Y-59190475D01*
X139042914Y-59190475D02*
X139090533Y-59285713D01*
X64304819Y-45142857D02*
X63828628Y-45476190D01*
X64304819Y-45714285D02*
X63304819Y-45714285D01*
X63304819Y-45714285D02*
X63304819Y-45333333D01*
X63304819Y-45333333D02*
X63352438Y-45238095D01*
X63352438Y-45238095D02*
X63400057Y-45190476D01*
X63400057Y-45190476D02*
X63495295Y-45142857D01*
X63495295Y-45142857D02*
X63638152Y-45142857D01*
X63638152Y-45142857D02*
X63733390Y-45190476D01*
X63733390Y-45190476D02*
X63781009Y-45238095D01*
X63781009Y-45238095D02*
X63828628Y-45333333D01*
X63828628Y-45333333D02*
X63828628Y-45714285D01*
X64304819Y-44190476D02*
X64304819Y-44761904D01*
X64304819Y-44476190D02*
X63304819Y-44476190D01*
X63304819Y-44476190D02*
X63447676Y-44571428D01*
X63447676Y-44571428D02*
X63542914Y-44666666D01*
X63542914Y-44666666D02*
X63590533Y-44761904D01*
X63400057Y-43809523D02*
X63352438Y-43761904D01*
X63352438Y-43761904D02*
X63304819Y-43666666D01*
X63304819Y-43666666D02*
X63304819Y-43428571D01*
X63304819Y-43428571D02*
X63352438Y-43333333D01*
X63352438Y-43333333D02*
X63400057Y-43285714D01*
X63400057Y-43285714D02*
X63495295Y-43238095D01*
X63495295Y-43238095D02*
X63590533Y-43238095D01*
X63590533Y-43238095D02*
X63733390Y-43285714D01*
X63733390Y-43285714D02*
X64304819Y-43857142D01*
X64304819Y-43857142D02*
X64304819Y-43238095D01*
X135304819Y-59666666D02*
X134828628Y-59999999D01*
X135304819Y-60238094D02*
X134304819Y-60238094D01*
X134304819Y-60238094D02*
X134304819Y-59857142D01*
X134304819Y-59857142D02*
X134352438Y-59761904D01*
X134352438Y-59761904D02*
X134400057Y-59714285D01*
X134400057Y-59714285D02*
X134495295Y-59666666D01*
X134495295Y-59666666D02*
X134638152Y-59666666D01*
X134638152Y-59666666D02*
X134733390Y-59714285D01*
X134733390Y-59714285D02*
X134781009Y-59761904D01*
X134781009Y-59761904D02*
X134828628Y-59857142D01*
X134828628Y-59857142D02*
X134828628Y-60238094D01*
X134400057Y-59285713D02*
X134352438Y-59238094D01*
X134352438Y-59238094D02*
X134304819Y-59142856D01*
X134304819Y-59142856D02*
X134304819Y-58904761D01*
X134304819Y-58904761D02*
X134352438Y-58809523D01*
X134352438Y-58809523D02*
X134400057Y-58761904D01*
X134400057Y-58761904D02*
X134495295Y-58714285D01*
X134495295Y-58714285D02*
X134590533Y-58714285D01*
X134590533Y-58714285D02*
X134733390Y-58761904D01*
X134733390Y-58761904D02*
X135304819Y-59333332D01*
X135304819Y-59333332D02*
X135304819Y-58714285D01*
X108304819Y-45142857D02*
X107828628Y-45476190D01*
X108304819Y-45714285D02*
X107304819Y-45714285D01*
X107304819Y-45714285D02*
X107304819Y-45333333D01*
X107304819Y-45333333D02*
X107352438Y-45238095D01*
X107352438Y-45238095D02*
X107400057Y-45190476D01*
X107400057Y-45190476D02*
X107495295Y-45142857D01*
X107495295Y-45142857D02*
X107638152Y-45142857D01*
X107638152Y-45142857D02*
X107733390Y-45190476D01*
X107733390Y-45190476D02*
X107781009Y-45238095D01*
X107781009Y-45238095D02*
X107828628Y-45333333D01*
X107828628Y-45333333D02*
X107828628Y-45714285D01*
X108304819Y-44190476D02*
X108304819Y-44761904D01*
X108304819Y-44476190D02*
X107304819Y-44476190D01*
X107304819Y-44476190D02*
X107447676Y-44571428D01*
X107447676Y-44571428D02*
X107542914Y-44666666D01*
X107542914Y-44666666D02*
X107590533Y-44761904D01*
X107304819Y-43571428D02*
X107304819Y-43476190D01*
X107304819Y-43476190D02*
X107352438Y-43380952D01*
X107352438Y-43380952D02*
X107400057Y-43333333D01*
X107400057Y-43333333D02*
X107495295Y-43285714D01*
X107495295Y-43285714D02*
X107685771Y-43238095D01*
X107685771Y-43238095D02*
X107923866Y-43238095D01*
X107923866Y-43238095D02*
X108114342Y-43285714D01*
X108114342Y-43285714D02*
X108209580Y-43333333D01*
X108209580Y-43333333D02*
X108257200Y-43380952D01*
X108257200Y-43380952D02*
X108304819Y-43476190D01*
X108304819Y-43476190D02*
X108304819Y-43571428D01*
X108304819Y-43571428D02*
X108257200Y-43666666D01*
X108257200Y-43666666D02*
X108209580Y-43714285D01*
X108209580Y-43714285D02*
X108114342Y-43761904D01*
X108114342Y-43761904D02*
X107923866Y-43809523D01*
X107923866Y-43809523D02*
X107685771Y-43809523D01*
X107685771Y-43809523D02*
X107495295Y-43761904D01*
X107495295Y-43761904D02*
X107400057Y-43714285D01*
X107400057Y-43714285D02*
X107352438Y-43666666D01*
X107352438Y-43666666D02*
X107304819Y-43571428D01*
D13*
%TO.C,J2*%
X133700000Y-38810000D02*
X133700000Y-41050000D01*
X133700000Y-41050000D02*
X135700000Y-41050000D01*
X133940000Y-30190000D02*
X133940000Y-40810000D01*
X133940000Y-30190000D02*
X154061000Y-30190000D01*
X133940000Y-33750000D02*
X154061000Y-33750000D01*
X133940000Y-34750000D02*
X154061000Y-34750000D01*
X133940000Y-38750000D02*
X154061000Y-38750000D01*
X133940000Y-40810000D02*
X154061000Y-40810000D01*
X140200000Y-37833000D02*
X140150000Y-37883000D01*
X140392000Y-38075000D02*
X140368000Y-38100000D01*
X142633000Y-35400000D02*
X142608000Y-35424000D01*
X142850000Y-35617000D02*
X142801000Y-35667000D01*
X145200000Y-37833000D02*
X145150000Y-37883000D01*
X145392000Y-38075000D02*
X145368000Y-38100000D01*
X147633000Y-35400000D02*
X147608000Y-35424000D01*
X147850000Y-35617000D02*
X147801000Y-35667000D01*
X150200000Y-37833000D02*
X150150000Y-37883000D01*
X150392000Y-38075000D02*
X150368000Y-38100000D01*
X152633000Y-35400000D02*
X152608000Y-35424000D01*
X152850000Y-35617000D02*
X152801000Y-35667000D01*
X154061000Y-30190000D02*
X154061000Y-40810000D01*
X134860795Y-37445516D02*
G75*
G02*
X134861001Y-36054000I1639200J695515D01*
G01*
X135804484Y-35110795D02*
G75*
G02*
X137196000Y-35111001I695515J-1639200D01*
G01*
X136530814Y-38530389D02*
G75*
G02*
X135804000Y-38388999I-30816J1780375D01*
G01*
X137195501Y-38388499D02*
G75*
G02*
X136500000Y-38530000I-695501J1638501D01*
G01*
X138139205Y-36054484D02*
G75*
G02*
X138139000Y-37446000I-1639205J-695516D01*
G01*
X143280000Y-36750000D02*
G75*
G02*
X139720000Y-36750000I-1780000J0D01*
G01*
X139720000Y-36750000D02*
G75*
G02*
X143280000Y-36750000I1780000J0D01*
G01*
X148280000Y-36750000D02*
G75*
G02*
X144720000Y-36750000I-1780000J0D01*
G01*
X144720000Y-36750000D02*
G75*
G02*
X148280000Y-36750000I1780000J0D01*
G01*
X153280000Y-36750000D02*
G75*
G02*
X149720000Y-36750000I-1780000J0D01*
G01*
X149720000Y-36750000D02*
G75*
G02*
X153280000Y-36750000I1780000J0D01*
G01*
%TO.C,J3*%
X111700000Y-38810000D02*
X111700000Y-41050000D01*
X111700000Y-41050000D02*
X113700000Y-41050000D01*
X111940000Y-30190000D02*
X111940000Y-40810000D01*
X111940000Y-30190000D02*
X132061000Y-30190000D01*
X111940000Y-33750000D02*
X132061000Y-33750000D01*
X111940000Y-34750000D02*
X132061000Y-34750000D01*
X111940000Y-38750000D02*
X132061000Y-38750000D01*
X111940000Y-40810000D02*
X132061000Y-40810000D01*
X118200000Y-37833000D02*
X118150000Y-37883000D01*
X118392000Y-38075000D02*
X118368000Y-38100000D01*
X120633000Y-35400000D02*
X120608000Y-35424000D01*
X120850000Y-35617000D02*
X120801000Y-35667000D01*
X123200000Y-37833000D02*
X123150000Y-37883000D01*
X123392000Y-38075000D02*
X123368000Y-38100000D01*
X125633000Y-35400000D02*
X125608000Y-35424000D01*
X125850000Y-35617000D02*
X125801000Y-35667000D01*
X128200000Y-37833000D02*
X128150000Y-37883000D01*
X128392000Y-38075000D02*
X128368000Y-38100000D01*
X130633000Y-35400000D02*
X130608000Y-35424000D01*
X130850000Y-35617000D02*
X130801000Y-35667000D01*
X132061000Y-30190000D02*
X132061000Y-40810000D01*
X112860795Y-37445516D02*
G75*
G02*
X112861001Y-36054000I1639200J695515D01*
G01*
X113804484Y-35110795D02*
G75*
G02*
X115196000Y-35111001I695515J-1639200D01*
G01*
X114530814Y-38530389D02*
G75*
G02*
X113804000Y-38388999I-30816J1780375D01*
G01*
X115195501Y-38388499D02*
G75*
G02*
X114500000Y-38530000I-695501J1638501D01*
G01*
X116139205Y-36054484D02*
G75*
G02*
X116139000Y-37446000I-1639205J-695516D01*
G01*
X121280000Y-36750000D02*
G75*
G02*
X117720000Y-36750000I-1780000J0D01*
G01*
X117720000Y-36750000D02*
G75*
G02*
X121280000Y-36750000I1780000J0D01*
G01*
X126280000Y-36750000D02*
G75*
G02*
X122720000Y-36750000I-1780000J0D01*
G01*
X122720000Y-36750000D02*
G75*
G02*
X126280000Y-36750000I1780000J0D01*
G01*
X131280000Y-36750000D02*
G75*
G02*
X127720000Y-36750000I-1780000J0D01*
G01*
X127720000Y-36750000D02*
G75*
G02*
X131280000Y-36750000I1780000J0D01*
G01*
D10*
%TO.C,Q6*%
X117161800Y-50175900D02*
X117161800Y-54824100D01*
X120108200Y-54824100D02*
X120108200Y-50175900D01*
D13*
%TO.C,J8*%
X180220000Y-48000000D02*
X177980000Y-48000000D01*
X177980000Y-48000000D02*
X177980000Y-50000000D01*
X188840000Y-48240000D02*
X178220000Y-48240000D01*
X188840000Y-48240000D02*
X188840000Y-58360000D01*
X185280000Y-48240000D02*
X185280000Y-58360000D01*
X184280000Y-48240000D02*
X184280000Y-58360000D01*
X180280000Y-48240000D02*
X180280000Y-58360000D01*
X178220000Y-48240000D02*
X178220000Y-58360000D01*
X181197000Y-54500000D02*
X181147000Y-54450000D01*
X180955000Y-54692000D02*
X180930000Y-54668000D01*
X183630000Y-56933000D02*
X183606000Y-56908000D01*
X183413000Y-57150000D02*
X183363000Y-57101000D01*
X188840000Y-58360000D02*
X178220000Y-58360000D01*
X181584484Y-49160795D02*
G75*
G02*
X182976000Y-49161001I695515J-1639200D01*
G01*
X183919205Y-50104484D02*
G75*
G02*
X183918999Y-51496000I-1639200J-695515D01*
G01*
X180499611Y-50830814D02*
G75*
G02*
X180641001Y-50104000I1780375J30816D01*
G01*
X180641501Y-51495501D02*
G75*
G02*
X180500000Y-50800000I1638501J695501D01*
G01*
X182975516Y-52439205D02*
G75*
G02*
X181584000Y-52439000I-695516J1639205D01*
G01*
X184060000Y-55800000D02*
G75*
G02*
X180500000Y-55800000I-1780000J0D01*
G01*
X180500000Y-55800000D02*
G75*
G02*
X184060000Y-55800000I1780000J0D01*
G01*
D14*
%TO.C,J7*%
X180770000Y-29850000D02*
X188870000Y-29850000D01*
X180770000Y-42550000D02*
X180770000Y-29850000D01*
X183220000Y-45350000D02*
X180770000Y-42550000D01*
X184820000Y-28100000D02*
X184820000Y-29100000D01*
X184820000Y-46100000D02*
X184820000Y-47100000D01*
X185320000Y-28600000D02*
X184320000Y-28600000D01*
X186420000Y-45350000D02*
X183220000Y-45350000D01*
X188870000Y-29850000D02*
X188870000Y-42550000D01*
X188870000Y-42550000D02*
X186420000Y-45350000D01*
D10*
%TO.C,Q5*%
X121526800Y-50175900D02*
X121526800Y-54824100D01*
X124473200Y-54824100D02*
X124473200Y-50175900D01*
%TO.C,Q1*%
X139026800Y-49927100D02*
X139026800Y-54575300D01*
X141973200Y-54575300D02*
X141973200Y-49927100D01*
D13*
%TO.C,R11*%
X86765000Y-44727064D02*
X86765000Y-44272936D01*
X88235000Y-44727064D02*
X88235000Y-44272936D01*
%TO.C,R9*%
X130265000Y-44727064D02*
X130265000Y-44272936D01*
X131735000Y-44727064D02*
X131735000Y-44272936D01*
%TO.C,R7*%
X174765000Y-44727064D02*
X174765000Y-44272936D01*
X176235000Y-44727064D02*
X176235000Y-44272936D01*
%TO.C,J6*%
X45700000Y-38810000D02*
X45700000Y-41050000D01*
X45700000Y-41050000D02*
X47700000Y-41050000D01*
X45940000Y-30190000D02*
X45940000Y-40810000D01*
X45940000Y-30190000D02*
X66061000Y-30190000D01*
X45940000Y-33750000D02*
X66061000Y-33750000D01*
X45940000Y-34750000D02*
X66061000Y-34750000D01*
X45940000Y-38750000D02*
X66061000Y-38750000D01*
X45940000Y-40810000D02*
X66061000Y-40810000D01*
X52200000Y-37833000D02*
X52150000Y-37883000D01*
X52392000Y-38075000D02*
X52368000Y-38100000D01*
X54633000Y-35400000D02*
X54608000Y-35424000D01*
X54850000Y-35617000D02*
X54801000Y-35667000D01*
X57200000Y-37833000D02*
X57150000Y-37883000D01*
X57392000Y-38075000D02*
X57368000Y-38100000D01*
X59633000Y-35400000D02*
X59608000Y-35424000D01*
X59850000Y-35617000D02*
X59801000Y-35667000D01*
X62200000Y-37833000D02*
X62150000Y-37883000D01*
X62392000Y-38075000D02*
X62368000Y-38100000D01*
X64633000Y-35400000D02*
X64608000Y-35424000D01*
X64850000Y-35617000D02*
X64801000Y-35667000D01*
X66061000Y-30190000D02*
X66061000Y-40810000D01*
X46860795Y-37445516D02*
G75*
G02*
X46861001Y-36054000I1639200J695515D01*
G01*
X47804484Y-35110795D02*
G75*
G02*
X49196000Y-35111001I695515J-1639200D01*
G01*
X48530814Y-38530389D02*
G75*
G02*
X47804000Y-38388999I-30816J1780375D01*
G01*
X49195501Y-38388499D02*
G75*
G02*
X48500000Y-38530000I-695501J1638501D01*
G01*
X50139205Y-36054484D02*
G75*
G02*
X50139000Y-37446000I-1639205J-695516D01*
G01*
X55280000Y-36750000D02*
G75*
G02*
X51720000Y-36750000I-1780000J0D01*
G01*
X51720000Y-36750000D02*
G75*
G02*
X55280000Y-36750000I1780000J0D01*
G01*
X60280000Y-36750000D02*
G75*
G02*
X56720000Y-36750000I-1780000J0D01*
G01*
X56720000Y-36750000D02*
G75*
G02*
X60280000Y-36750000I1780000J0D01*
G01*
X65280000Y-36750000D02*
G75*
G02*
X61720000Y-36750000I-1780000J0D01*
G01*
X61720000Y-36750000D02*
G75*
G02*
X65280000Y-36750000I1780000J0D01*
G01*
D14*
%TO.C,U1*%
X81500000Y-67000000D02*
X81500000Y-117000000D01*
X84500000Y-120000000D02*
X163500000Y-120000000D01*
X163500000Y-64000000D02*
X84500000Y-64000000D01*
X166500000Y-117000000D02*
X166500000Y-67000000D01*
X81500000Y-67000000D02*
G75*
G02*
X84500000Y-64000000I3000001J-1D01*
G01*
X84500000Y-120000000D02*
G75*
G02*
X81500000Y-117000000I1J3000001D01*
G01*
X163500000Y-64000000D02*
G75*
G02*
X166500000Y-67000000I0J-3000000D01*
G01*
X166500000Y-117000000D02*
G75*
G02*
X163500000Y-120000000I-3000000J0D01*
G01*
D15*
X80800000Y-69000000D02*
G75*
G02*
X80400000Y-69000000I-200000J0D01*
G01*
X80400000Y-69000000D02*
G75*
G02*
X80800000Y-69000000I200000J0D01*
G01*
D13*
%TO.C,J4*%
X89700000Y-38810000D02*
X89700000Y-41050000D01*
X89700000Y-41050000D02*
X91700000Y-41050000D01*
X89940000Y-30190000D02*
X89940000Y-40810000D01*
X89940000Y-30190000D02*
X110061000Y-30190000D01*
X89940000Y-33750000D02*
X110061000Y-33750000D01*
X89940000Y-34750000D02*
X110061000Y-34750000D01*
X89940000Y-38750000D02*
X110061000Y-38750000D01*
X89940000Y-40810000D02*
X110061000Y-40810000D01*
X96200000Y-37833000D02*
X96150000Y-37883000D01*
X96392000Y-38075000D02*
X96368000Y-38100000D01*
X98633000Y-35400000D02*
X98608000Y-35424000D01*
X98850000Y-35617000D02*
X98801000Y-35667000D01*
X101200000Y-37833000D02*
X101150000Y-37883000D01*
X101392000Y-38075000D02*
X101368000Y-38100000D01*
X103633000Y-35400000D02*
X103608000Y-35424000D01*
X103850000Y-35617000D02*
X103801000Y-35667000D01*
X106200000Y-37833000D02*
X106150000Y-37883000D01*
X106392000Y-38075000D02*
X106368000Y-38100000D01*
X108633000Y-35400000D02*
X108608000Y-35424000D01*
X108850000Y-35617000D02*
X108801000Y-35667000D01*
X110061000Y-30190000D02*
X110061000Y-40810000D01*
X90860795Y-37445516D02*
G75*
G02*
X90861001Y-36054000I1639200J695515D01*
G01*
X91804484Y-35110795D02*
G75*
G02*
X93196000Y-35111001I695515J-1639200D01*
G01*
X92530814Y-38530389D02*
G75*
G02*
X91804000Y-38388999I-30816J1780375D01*
G01*
X93195501Y-38388499D02*
G75*
G02*
X92500000Y-38530000I-695501J1638501D01*
G01*
X94139205Y-36054484D02*
G75*
G02*
X94139000Y-37446000I-1639205J-695516D01*
G01*
X99280000Y-36750000D02*
G75*
G02*
X95720000Y-36750000I-1780000J0D01*
G01*
X95720000Y-36750000D02*
G75*
G02*
X99280000Y-36750000I1780000J0D01*
G01*
X104280000Y-36750000D02*
G75*
G02*
X100720000Y-36750000I-1780000J0D01*
G01*
X100720000Y-36750000D02*
G75*
G02*
X104280000Y-36750000I1780000J0D01*
G01*
X109280000Y-36750000D02*
G75*
G02*
X105720000Y-36750000I-1780000J0D01*
G01*
X105720000Y-36750000D02*
G75*
G02*
X109280000Y-36750000I1780000J0D01*
G01*
%TO.C,J1*%
X156200000Y-38810000D02*
X156200000Y-41050000D01*
X156200000Y-41050000D02*
X158200000Y-41050000D01*
X156440000Y-30190000D02*
X156440000Y-40810000D01*
X156440000Y-30190000D02*
X176561000Y-30190000D01*
X156440000Y-33750000D02*
X176561000Y-33750000D01*
X156440000Y-34750000D02*
X176561000Y-34750000D01*
X156440000Y-38750000D02*
X176561000Y-38750000D01*
X156440000Y-40810000D02*
X176561000Y-40810000D01*
X162700000Y-37833000D02*
X162650000Y-37883000D01*
X162892000Y-38075000D02*
X162868000Y-38100000D01*
X165133000Y-35400000D02*
X165108000Y-35424000D01*
X165350000Y-35617000D02*
X165301000Y-35667000D01*
X167700000Y-37833000D02*
X167650000Y-37883000D01*
X167892000Y-38075000D02*
X167868000Y-38100000D01*
X170133000Y-35400000D02*
X170108000Y-35424000D01*
X170350000Y-35617000D02*
X170301000Y-35667000D01*
X172700000Y-37833000D02*
X172650000Y-37883000D01*
X172892000Y-38075000D02*
X172868000Y-38100000D01*
X175133000Y-35400000D02*
X175108000Y-35424000D01*
X175350000Y-35617000D02*
X175301000Y-35667000D01*
X176561000Y-30190000D02*
X176561000Y-40810000D01*
X157360795Y-37445516D02*
G75*
G02*
X157361001Y-36054000I1639200J695515D01*
G01*
X158304484Y-35110795D02*
G75*
G02*
X159696000Y-35111001I695515J-1639200D01*
G01*
X159030814Y-38530389D02*
G75*
G02*
X158304000Y-38388999I-30816J1780375D01*
G01*
X159695501Y-38388499D02*
G75*
G02*
X159000000Y-38530000I-695501J1638501D01*
G01*
X160639205Y-36054484D02*
G75*
G02*
X160639000Y-37446000I-1639205J-695516D01*
G01*
X165780000Y-36750000D02*
G75*
G02*
X162220000Y-36750000I-1780000J0D01*
G01*
X162220000Y-36750000D02*
G75*
G02*
X165780000Y-36750000I1780000J0D01*
G01*
X170780000Y-36750000D02*
G75*
G02*
X167220000Y-36750000I-1780000J0D01*
G01*
X167220000Y-36750000D02*
G75*
G02*
X170780000Y-36750000I1780000J0D01*
G01*
X175780000Y-36750000D02*
G75*
G02*
X172220000Y-36750000I-1780000J0D01*
G01*
X172220000Y-36750000D02*
G75*
G02*
X175780000Y-36750000I1780000J0D01*
G01*
%TO.C,R8*%
X152765000Y-44727064D02*
X152765000Y-44272936D01*
X154235000Y-44727064D02*
X154235000Y-44272936D01*
%TO.C,R4*%
X127265000Y-59727064D02*
X127265000Y-59272936D01*
X128735000Y-59727064D02*
X128735000Y-59272936D01*
%TO.C,R6*%
X118265000Y-59727064D02*
X118265000Y-59272936D01*
X119735000Y-59727064D02*
X119735000Y-59272936D01*
D10*
%TO.C,Q2*%
X137473200Y-54824100D02*
X137473200Y-50175900D01*
X134526800Y-50175900D02*
X134526800Y-54824100D01*
%TO.C,Q3*%
X130391800Y-50175900D02*
X130391800Y-54824100D01*
X133338200Y-54824100D02*
X133338200Y-50175900D01*
D13*
%TO.C,J5*%
X67700000Y-38810000D02*
X67700000Y-41050000D01*
X67700000Y-41050000D02*
X69700000Y-41050000D01*
X67940000Y-30190000D02*
X67940000Y-40810000D01*
X67940000Y-30190000D02*
X88061000Y-30190000D01*
X67940000Y-33750000D02*
X88061000Y-33750000D01*
X67940000Y-34750000D02*
X88061000Y-34750000D01*
X67940000Y-38750000D02*
X88061000Y-38750000D01*
X67940000Y-40810000D02*
X88061000Y-40810000D01*
X74200000Y-37833000D02*
X74150000Y-37883000D01*
X74392000Y-38075000D02*
X74368000Y-38100000D01*
X76633000Y-35400000D02*
X76608000Y-35424000D01*
X76850000Y-35617000D02*
X76801000Y-35667000D01*
X79200000Y-37833000D02*
X79150000Y-37883000D01*
X79392000Y-38075000D02*
X79368000Y-38100000D01*
X81633000Y-35400000D02*
X81608000Y-35424000D01*
X81850000Y-35617000D02*
X81801000Y-35667000D01*
X84200000Y-37833000D02*
X84150000Y-37883000D01*
X84392000Y-38075000D02*
X84368000Y-38100000D01*
X86633000Y-35400000D02*
X86608000Y-35424000D01*
X86850000Y-35617000D02*
X86801000Y-35667000D01*
X88061000Y-30190000D02*
X88061000Y-40810000D01*
X68860795Y-37445516D02*
G75*
G02*
X68861001Y-36054000I1639200J695515D01*
G01*
X69804484Y-35110795D02*
G75*
G02*
X71196000Y-35111001I695515J-1639200D01*
G01*
X70530814Y-38530389D02*
G75*
G02*
X69804000Y-38388999I-30816J1780375D01*
G01*
X71195501Y-38388499D02*
G75*
G02*
X70500000Y-38530000I-695501J1638501D01*
G01*
X72139205Y-36054484D02*
G75*
G02*
X72139000Y-37446000I-1639205J-695516D01*
G01*
X77280000Y-36750000D02*
G75*
G02*
X73720000Y-36750000I-1780000J0D01*
G01*
X73720000Y-36750000D02*
G75*
G02*
X77280000Y-36750000I1780000J0D01*
G01*
X82280000Y-36750000D02*
G75*
G02*
X78720000Y-36750000I-1780000J0D01*
G01*
X78720000Y-36750000D02*
G75*
G02*
X82280000Y-36750000I1780000J0D01*
G01*
X87280000Y-36750000D02*
G75*
G02*
X83720000Y-36750000I-1780000J0D01*
G01*
X83720000Y-36750000D02*
G75*
G02*
X87280000Y-36750000I1780000J0D01*
G01*
D10*
%TO.C,Q4*%
X126026800Y-50175900D02*
X126026800Y-54824100D01*
X128973200Y-54824100D02*
X128973200Y-50175900D01*
D13*
%TO.C,R3*%
X131765000Y-59727064D02*
X131765000Y-59272936D01*
X133235000Y-59727064D02*
X133235000Y-59272936D01*
%TO.C,R5*%
X122765000Y-59727064D02*
X122765000Y-59272936D01*
X124235000Y-59727064D02*
X124235000Y-59272936D01*
%TO.C,R1*%
X140265000Y-59727064D02*
X140265000Y-59272936D01*
X141735000Y-59727064D02*
X141735000Y-59272936D01*
%TO.C,R12*%
X64765000Y-44727064D02*
X64765000Y-44272936D01*
X66235000Y-44727064D02*
X66235000Y-44272936D01*
%TO.C,R2*%
X135765000Y-59727064D02*
X135765000Y-59272936D01*
X137235000Y-59727064D02*
X137235000Y-59272936D01*
%TO.C,R10*%
X108765000Y-44727064D02*
X108765000Y-44272936D01*
X110235000Y-44727064D02*
X110235000Y-44272936D01*
%TD*%
M02*
