%TF.GenerationSoftware,KiCad,Pcbnew,8.0.0*%
%TF.CreationDate,2024-03-15T12:02:56+01:00*%
%TF.ProjectId,prueba,70727565-6261-42e6-9b69-6361645f7063,v0.1*%
%TF.SameCoordinates,Original*%
%TF.FileFunction,Soldermask,Bot*%
%TF.FilePolarity,Negative*%
%FSLAX46Y46*%
G04 Gerber Fmt 4.6, Leading zero omitted, Abs format (unit mm)*
G04 Created by KiCad (PCBNEW 8.0.0) date 2024-03-15 12:02:56*
%MOMM*%
%LPD*%
G01*
G04 APERTURE LIST*
G04 Aperture macros list*
%AMRoundRect*
0 Rectangle with rounded corners*
0 $1 Rounding radius*
0 $2 $3 $4 $5 $6 $7 $8 $9 X,Y pos of 4 corners*
0 Add a 4 corners polygon primitive as box body*
4,1,4,$2,$3,$4,$5,$6,$7,$8,$9,$2,$3,0*
0 Add four circle primitives for the rounded corners*
1,1,$1+$1,$2,$3*
1,1,$1+$1,$4,$5*
1,1,$1+$1,$6,$7*
1,1,$1+$1,$8,$9*
0 Add four rect primitives between the rounded corners*
20,1,$1+$1,$2,$3,$4,$5,0*
20,1,$1+$1,$4,$5,$6,$7,0*
20,1,$1+$1,$6,$7,$8,$9,0*
20,1,$1+$1,$8,$9,$2,$3,0*%
G04 Aperture macros list end*
%ADD10R,2.800000X2.800000*%
%ADD11C,2.800000*%
%ADD12C,6.204000*%
%ADD13RoundRect,0.102000X-3.000000X3.000000X-3.000000X-3.000000X3.000000X-3.000000X3.000000X3.000000X0*%
%ADD14RoundRect,0.102000X-0.762000X-0.762000X0.762000X-0.762000X0.762000X0.762000X-0.762000X0.762000X0*%
%ADD15C,1.728000*%
%ADD16C,6.404000*%
G04 APERTURE END LIST*
D10*
%TO.C,J2*%
X136500000Y-36750000D03*
D11*
X141500000Y-36750000D03*
X146500000Y-36750000D03*
X151500000Y-36750000D03*
%TD*%
D10*
%TO.C,J3*%
X114500000Y-36750000D03*
D11*
X119500000Y-36750000D03*
X124500000Y-36750000D03*
X129500000Y-36750000D03*
%TD*%
D10*
%TO.C,J8*%
X182280000Y-50800000D03*
D11*
X182280000Y-55800000D03*
%TD*%
D12*
%TO.C,J7*%
X184820000Y-41200000D03*
D13*
X184820000Y-34000000D03*
%TD*%
D10*
%TO.C,J6*%
X48500000Y-36750000D03*
D11*
X53500000Y-36750000D03*
X58500000Y-36750000D03*
X63500000Y-36750000D03*
%TD*%
D14*
%TO.C,U1*%
X89870000Y-68770000D03*
D15*
X89870000Y-66230000D03*
X92410000Y-68770000D03*
X92410000Y-66230000D03*
X94950000Y-68770000D03*
X94950000Y-66230000D03*
X97490000Y-68770000D03*
X97490000Y-66230000D03*
X100030000Y-68770000D03*
X100030000Y-66230000D03*
X102570000Y-68770000D03*
X102570000Y-66230000D03*
X105110000Y-68770000D03*
X105110000Y-66230000D03*
X107650000Y-68770000D03*
X107650000Y-66230000D03*
X110190000Y-68770000D03*
X110190000Y-66230000D03*
X112730000Y-68770000D03*
X112730000Y-66230000D03*
X115270000Y-68770000D03*
X115270000Y-66230000D03*
X117810000Y-68770000D03*
X117810000Y-66230000D03*
X120350000Y-68770000D03*
X120350000Y-66230000D03*
X122890000Y-68770000D03*
X122890000Y-66230000D03*
X125430000Y-68770000D03*
X125430000Y-66230000D03*
X127970000Y-68770000D03*
X127970000Y-66230000D03*
X130510000Y-68770000D03*
X130510000Y-66230000D03*
X133050000Y-68770000D03*
X133050000Y-66230000D03*
X135590000Y-68770000D03*
X135590000Y-66230000D03*
X138130000Y-68770000D03*
X138130000Y-66230000D03*
X144230000Y-74893000D03*
X144230000Y-72353000D03*
X141690000Y-74893000D03*
X141690000Y-72353000D03*
D16*
X85000000Y-67500000D03*
X143000000Y-67500000D03*
X143000000Y-116500000D03*
X85000000Y-116500000D03*
%TD*%
D10*
%TO.C,J4*%
X92500000Y-36750000D03*
D11*
X97500000Y-36750000D03*
X102500000Y-36750000D03*
X107500000Y-36750000D03*
%TD*%
D10*
%TO.C,J1*%
X159000000Y-36750000D03*
D11*
X164000000Y-36750000D03*
X169000000Y-36750000D03*
X174000000Y-36750000D03*
%TD*%
D10*
%TO.C,J5*%
X70500000Y-36750000D03*
D11*
X75500000Y-36750000D03*
X80500000Y-36750000D03*
X85500000Y-36750000D03*
%TD*%
M02*
