%TF.GenerationSoftware,KiCad,Pcbnew,8.0.0*%
%TF.CreationDate,2024-03-15T12:02:56+01:00*%
%TF.ProjectId,prueba,70727565-6261-42e6-9b69-6361645f7063,v0.1*%
%TF.SameCoordinates,Original*%
%TF.FileFunction,Profile,NP*%
%FSLAX46Y46*%
G04 Gerber Fmt 4.6, Leading zero omitted, Abs format (unit mm)*
G04 Created by KiCad (PCBNEW 8.0.0) date 2024-03-15 12:02:56*
%MOMM*%
%LPD*%
G01*
G04 APERTURE LIST*
%TA.AperFunction,Profile*%
%ADD10C,0.050000*%
%TD*%
G04 APERTURE END LIST*
D10*
X78088772Y-62401650D02*
X45411228Y-52778350D01*
X79000000Y-76170000D02*
X79000000Y-63619920D01*
X145730000Y-77440000D02*
X80270000Y-77440000D01*
X147000000Y-63870337D02*
X147000000Y-76170000D01*
X192000000Y-27940000D02*
X192000000Y-58929663D01*
X190801571Y-60197645D02*
X148198429Y-62602355D01*
X44500000Y-51560080D02*
X44500000Y-27940000D01*
X45770000Y-26670000D02*
X190730000Y-26670000D01*
X78088772Y-62401650D02*
G75*
G02*
X78999980Y-63619920I-358772J-1218250D01*
G01*
X80270000Y-77440000D02*
G75*
G02*
X79000000Y-76170000I0J1270000D01*
G01*
X147000000Y-76170000D02*
G75*
G02*
X145730000Y-77440000I-1270000J0D01*
G01*
X147000000Y-63870337D02*
G75*
G02*
X148198427Y-62602318I1270000J37D01*
G01*
X192000000Y-58929663D02*
G75*
G02*
X190801573Y-60197682I-1270000J-37D01*
G01*
X45411228Y-52778350D02*
G75*
G02*
X44500020Y-51560080I358772J1218250D01*
G01*
X190730000Y-26670000D02*
G75*
G02*
X192000000Y-27940000I0J-1270000D01*
G01*
X44500000Y-27940000D02*
G75*
G02*
X45770000Y-26670000I1270000J0D01*
G01*
X49000000Y-49238000D02*
G75*
G02*
X46000000Y-49238000I-1500000J0D01*
G01*
X46000000Y-49238000D02*
G75*
G02*
X49000000Y-49238000I1500000J0D01*
G01*
X174220000Y-49238000D02*
G75*
G02*
X171220000Y-49238000I-1500000J0D01*
G01*
X171220000Y-49238000D02*
G75*
G02*
X174220000Y-49238000I1500000J0D01*
G01*
M02*
