%TF.GenerationSoftware,KiCad,Pcbnew,8.0.0*%
%TF.CreationDate,2024-03-15T12:02:43+01:00*%
%TF.ProjectId,prueba,70727565-6261-42e6-9b69-6361645f7063,v0.1*%
%TF.SameCoordinates,Original*%
%TF.FileFunction,Drillmap*%
%TF.FilePolarity,Positive*%
%FSLAX45Y45*%
G04 Gerber Fmt 4.5, Leading zero omitted, Abs format (unit mm)*
G04 Created by KiCad (PCBNEW 8.0.0) date 2024-03-15 12:02:43*
%MOMM*%
%LPD*%
G01*
G04 APERTURE LIST*
%ADD10C,0.050000*%
%ADD11C,0.200000*%
G04 APERTURE END LIST*
D10*
X7808877Y-6240165D02*
X4541123Y-5277835D01*
X7900000Y-7617000D02*
X7900000Y-6361992D01*
X14573000Y-7744000D02*
X8027000Y-7744000D01*
X14700000Y-6387034D02*
X14700000Y-7617000D01*
X19200000Y-2794000D02*
X19200000Y-5892966D01*
X19080157Y-6019764D02*
X14819843Y-6260235D01*
X4450000Y-5156008D02*
X4450000Y-2794000D01*
X4577000Y-2667000D02*
X19073000Y-2667000D01*
X7808877Y-6240165D02*
G75*
G02*
X7899998Y-6361992I-35877J-121825D01*
G01*
X8027000Y-7744000D02*
G75*
G02*
X7900000Y-7617000I0J127000D01*
G01*
X14700000Y-7617000D02*
G75*
G02*
X14573000Y-7744000I-127000J0D01*
G01*
X14700000Y-6387034D02*
G75*
G02*
X14819843Y-6260232I127000J4D01*
G01*
X19200000Y-5892966D02*
G75*
G02*
X19080157Y-6019768I-127000J-4D01*
G01*
X4541123Y-5277835D02*
G75*
G02*
X4450002Y-5156008I35877J121825D01*
G01*
X19073000Y-2667000D02*
G75*
G02*
X19200000Y-2794000I0J-127000D01*
G01*
X4450000Y-2794000D02*
G75*
G02*
X4577000Y-2667000I127000J0D01*
G01*
X4900000Y-4923800D02*
G75*
G02*
X4600000Y-4923800I-150000J0D01*
G01*
X4600000Y-4923800D02*
G75*
G02*
X4900000Y-4923800I150000J0D01*
G01*
X17422000Y-4923800D02*
G75*
G02*
X17122000Y-4923800I-150000J0D01*
G01*
X17122000Y-4923800D02*
G75*
G02*
X17422000Y-4923800I150000J0D01*
G01*
D11*
X4708277Y-8057984D02*
X4708277Y-7857984D01*
X4708277Y-7857984D02*
X4755896Y-7857984D01*
X4755896Y-7857984D02*
X4784467Y-7867508D01*
X4784467Y-7867508D02*
X4803515Y-7886555D01*
X4803515Y-7886555D02*
X4813039Y-7905603D01*
X4813039Y-7905603D02*
X4822563Y-7943698D01*
X4822563Y-7943698D02*
X4822563Y-7972269D01*
X4822563Y-7972269D02*
X4813039Y-8010365D01*
X4813039Y-8010365D02*
X4803515Y-8029412D01*
X4803515Y-8029412D02*
X4784467Y-8048460D01*
X4784467Y-8048460D02*
X4755896Y-8057984D01*
X4755896Y-8057984D02*
X4708277Y-8057984D01*
X4908277Y-8057984D02*
X4908277Y-7924650D01*
X4908277Y-7962746D02*
X4917801Y-7943698D01*
X4917801Y-7943698D02*
X4927324Y-7934174D01*
X4927324Y-7934174D02*
X4946372Y-7924650D01*
X4946372Y-7924650D02*
X4965420Y-7924650D01*
X5032086Y-8057984D02*
X5032086Y-7924650D01*
X5032086Y-7857984D02*
X5022563Y-7867508D01*
X5022563Y-7867508D02*
X5032086Y-7877031D01*
X5032086Y-7877031D02*
X5041610Y-7867508D01*
X5041610Y-7867508D02*
X5032086Y-7857984D01*
X5032086Y-7857984D02*
X5032086Y-7877031D01*
X5155896Y-8057984D02*
X5136848Y-8048460D01*
X5136848Y-8048460D02*
X5127324Y-8029412D01*
X5127324Y-8029412D02*
X5127324Y-7857984D01*
X5260658Y-8057984D02*
X5241610Y-8048460D01*
X5241610Y-8048460D02*
X5232086Y-8029412D01*
X5232086Y-8029412D02*
X5232086Y-7857984D01*
X5489229Y-8057984D02*
X5489229Y-7857984D01*
X5489229Y-7857984D02*
X5555896Y-8000841D01*
X5555896Y-8000841D02*
X5622562Y-7857984D01*
X5622562Y-7857984D02*
X5622562Y-8057984D01*
X5803515Y-8057984D02*
X5803515Y-7953222D01*
X5803515Y-7953222D02*
X5793991Y-7934174D01*
X5793991Y-7934174D02*
X5774943Y-7924650D01*
X5774943Y-7924650D02*
X5736848Y-7924650D01*
X5736848Y-7924650D02*
X5717801Y-7934174D01*
X5803515Y-8048460D02*
X5784467Y-8057984D01*
X5784467Y-8057984D02*
X5736848Y-8057984D01*
X5736848Y-8057984D02*
X5717801Y-8048460D01*
X5717801Y-8048460D02*
X5708277Y-8029412D01*
X5708277Y-8029412D02*
X5708277Y-8010365D01*
X5708277Y-8010365D02*
X5717801Y-7991317D01*
X5717801Y-7991317D02*
X5736848Y-7981793D01*
X5736848Y-7981793D02*
X5784467Y-7981793D01*
X5784467Y-7981793D02*
X5803515Y-7972269D01*
X5898753Y-7924650D02*
X5898753Y-8124650D01*
X5898753Y-7934174D02*
X5917801Y-7924650D01*
X5917801Y-7924650D02*
X5955896Y-7924650D01*
X5955896Y-7924650D02*
X5974943Y-7934174D01*
X5974943Y-7934174D02*
X5984467Y-7943698D01*
X5984467Y-7943698D02*
X5993991Y-7962746D01*
X5993991Y-7962746D02*
X5993991Y-8019888D01*
X5993991Y-8019888D02*
X5984467Y-8038936D01*
X5984467Y-8038936D02*
X5974943Y-8048460D01*
X5974943Y-8048460D02*
X5955896Y-8057984D01*
X5955896Y-8057984D02*
X5917801Y-8057984D01*
X5917801Y-8057984D02*
X5898753Y-8048460D01*
X6079705Y-8038936D02*
X6089229Y-8048460D01*
X6089229Y-8048460D02*
X6079705Y-8057984D01*
X6079705Y-8057984D02*
X6070182Y-8048460D01*
X6070182Y-8048460D02*
X6079705Y-8038936D01*
X6079705Y-8038936D02*
X6079705Y-8057984D01*
X6079705Y-7934174D02*
X6089229Y-7943698D01*
X6089229Y-7943698D02*
X6079705Y-7953222D01*
X6079705Y-7953222D02*
X6070182Y-7943698D01*
X6070182Y-7943698D02*
X6079705Y-7934174D01*
X6079705Y-7934174D02*
X6079705Y-7953222D01*
M02*
