M48
; DRILL file {KiCad 8.0.0} date 2024-03-15T12:02:28+0100
; FORMAT={-:-/ absolute / inch / decimal}
; #@! TF.CreationDate,2024-03-15T12:02:28+01:00
; #@! TF.GenerationSoftware,Kicad,Pcbnew,8.0.0
; #@! TF.FileFunction,Plated,1,2,PTH
FMAT,2
INCH
; #@! TA.AperFunction,Plated,PTH,ViaDrill
T1C0.0118
; #@! TA.AperFunction,Plated,PTH,ComponentDrill
T2C0.0400
; #@! TA.AperFunction,Plated,PTH,ComponentDrill
T3C0.0551
; #@! TA.AperFunction,Plated,PTH,ComponentDrill
T4C0.1083
; #@! TA.AperFunction,Plated,PTH,ComponentDrill
T5C0.1791
%
G90
G05
T1
X2.6531Y-1.4469
X3.35Y-1.8343
X3.5Y-1.45
X4.2087Y-1.7913
X4.4Y-1.45
X5.2165Y-1.8504
X5.25Y-1.45
X5.3841Y-1.7919
X6.1Y-1.45
X6.25Y-1.9291
T2
X3.5382Y-2.6075
X3.5382Y-2.7075
X3.6382Y-2.6075
X3.6382Y-2.7075
X3.7382Y-2.6075
X3.7382Y-2.7075
X3.8382Y-2.6075
X3.8382Y-2.7075
X3.9382Y-2.6075
X3.9382Y-2.7075
X4.0382Y-2.6075
X4.0382Y-2.7075
X4.1382Y-2.6075
X4.1382Y-2.7075
X4.2382Y-2.6075
X4.2382Y-2.7075
X4.3382Y-2.6075
X4.3382Y-2.7075
X4.4382Y-2.6075
X4.4382Y-2.7075
X4.5382Y-2.6075
X4.5382Y-2.7075
X4.6382Y-2.6075
X4.6382Y-2.7075
X4.7382Y-2.6075
X4.7382Y-2.7075
X4.8382Y-2.6075
X4.8382Y-2.7075
X4.9382Y-2.6075
X4.9382Y-2.7075
X5.0382Y-2.6075
X5.0382Y-2.7075
X5.1382Y-2.6075
X5.1382Y-2.7075
X5.2382Y-2.6075
X5.2382Y-2.7075
X5.3382Y-2.6075
X5.3382Y-2.7075
X5.4382Y-2.6075
X5.4382Y-2.7075
X5.5783Y-2.8485
X5.5783Y-2.9485
X5.6783Y-2.8485
X5.6783Y-2.9485
T3
X1.9094Y-1.4469
X2.1063Y-1.4469
X2.3031Y-1.4469
X2.5Y-1.4469
X2.7756Y-1.4469
X2.9724Y-1.4469
X3.1693Y-1.4469
X3.3661Y-1.4469
X3.6417Y-1.4469
X3.8386Y-1.4469
X4.0354Y-1.4469
X4.2323Y-1.4469
X4.5079Y-1.4469
X4.7047Y-1.4469
X4.9016Y-1.4469
X5.0984Y-1.4469
X5.374Y-1.4469
X5.5709Y-1.4469
X5.7677Y-1.4469
X5.9646Y-1.4469
X6.2598Y-1.4469
X6.4567Y-1.4469
X6.6535Y-1.4469
X6.8504Y-1.4469
X7.1764Y-2.0
X7.1764Y-2.1969
T4
X3.3465Y-2.6575
X3.3465Y-4.5866
X5.6299Y-2.6575
X5.6299Y-4.5866
T5
X7.2764Y-1.3386
X7.2764Y-1.622
M30
