%TF.GenerationSoftware,KiCad,Pcbnew,8.0.0*%
%TF.CreationDate,2024-03-15T12:02:43+01:00*%
%TF.ProjectId,prueba,70727565-6261-42e6-9b69-6361645f7063,v0.1*%
%TF.SameCoordinates,Original*%
%TF.FileFunction,Drillmap*%
%TF.FilePolarity,Positive*%
%FSLAX45Y45*%
G04 Gerber Fmt 4.5, Leading zero omitted, Abs format (unit mm)*
G04 Created by KiCad (PCBNEW 8.0.0) date 2024-03-15 12:02:43*
%MOMM*%
%LPD*%
G01*
G04 APERTURE LIST*
%ADD10C,0.050000*%
%ADD11C,0.200000*%
%ADD12C,0.100000*%
%ADD13C,0.101600*%
%ADD14C,0.140000*%
%ADD15C,0.275000*%
%ADD16C,0.455000*%
G04 APERTURE END LIST*
D10*
X7808877Y-6240165D02*
X4541123Y-5277835D01*
X7900000Y-7617000D02*
X7900000Y-6361992D01*
X14573000Y-7744000D02*
X8027000Y-7744000D01*
X14700000Y-6387034D02*
X14700000Y-7617000D01*
X19200000Y-2794000D02*
X19200000Y-5892966D01*
X19080157Y-6019764D02*
X14819843Y-6260235D01*
X4450000Y-5156008D02*
X4450000Y-2794000D01*
X4577000Y-2667000D02*
X19073000Y-2667000D01*
X7808877Y-6240165D02*
G75*
G02*
X7899998Y-6361992I-35877J-121825D01*
G01*
X8027000Y-7744000D02*
G75*
G02*
X7900000Y-7617000I0J127000D01*
G01*
X14700000Y-7617000D02*
G75*
G02*
X14573000Y-7744000I-127000J0D01*
G01*
X14700000Y-6387034D02*
G75*
G02*
X14819843Y-6260232I127000J4D01*
G01*
X19200000Y-5892966D02*
G75*
G02*
X19080157Y-6019768I-127000J-4D01*
G01*
X4541123Y-5277835D02*
G75*
G02*
X4450002Y-5156008I35877J121825D01*
G01*
X19073000Y-2667000D02*
G75*
G02*
X19200000Y-2794000I0J-127000D01*
G01*
X4450000Y-2794000D02*
G75*
G02*
X4577000Y-2667000I127000J0D01*
G01*
X4900000Y-4923800D02*
G75*
G02*
X4600000Y-4923800I-150000J0D01*
G01*
X4600000Y-4923800D02*
G75*
G02*
X4900000Y-4923800I150000J0D01*
G01*
X17422000Y-4923800D02*
G75*
G02*
X17122000Y-4923800I-150000J0D01*
G01*
X17122000Y-4923800D02*
G75*
G02*
X17422000Y-4923800I150000J0D01*
G01*
D11*
D12*
X6724000Y-3660000D02*
X6754000Y-3690000D01*
X6754000Y-3660000D02*
X6724000Y-3690000D01*
X8494000Y-4644000D02*
X8524000Y-4674000D01*
X8524000Y-4644000D02*
X8494000Y-4674000D01*
X8875000Y-3668000D02*
X8905000Y-3698000D01*
X8905000Y-3668000D02*
X8875000Y-3698000D01*
X10675000Y-4535000D02*
X10705000Y-4565000D01*
X10705000Y-4535000D02*
X10675000Y-4565000D01*
X11161000Y-3668000D02*
X11191000Y-3698000D01*
X11191000Y-3668000D02*
X11161000Y-3698000D01*
X13235000Y-4685000D02*
X13265000Y-4715000D01*
X13265000Y-4685000D02*
X13235000Y-4715000D01*
X13320000Y-3668000D02*
X13350000Y-3698000D01*
X13350000Y-3668000D02*
X13320000Y-3698000D01*
X13660628Y-4536372D02*
X13690628Y-4566372D01*
X13690628Y-4536372D02*
X13660628Y-4566372D01*
X15479000Y-3668000D02*
X15509000Y-3698000D01*
X15509000Y-3668000D02*
X15479000Y-3698000D01*
X15860000Y-4885000D02*
X15890000Y-4915000D01*
X15890000Y-4885000D02*
X15860000Y-4915000D01*
D13*
X9037800Y-6623000D02*
G75*
G02*
X8936200Y-6623000I-50800J0D01*
G01*
X8936200Y-6623000D02*
G75*
G02*
X9037800Y-6623000I50800J0D01*
G01*
X9037800Y-6877000D02*
G75*
G02*
X8936200Y-6877000I-50800J0D01*
G01*
X8936200Y-6877000D02*
G75*
G02*
X9037800Y-6877000I50800J0D01*
G01*
X9291800Y-6623000D02*
G75*
G02*
X9190200Y-6623000I-50800J0D01*
G01*
X9190200Y-6623000D02*
G75*
G02*
X9291800Y-6623000I50800J0D01*
G01*
X9291800Y-6877000D02*
G75*
G02*
X9190200Y-6877000I-50800J0D01*
G01*
X9190200Y-6877000D02*
G75*
G02*
X9291800Y-6877000I50800J0D01*
G01*
X9545800Y-6623000D02*
G75*
G02*
X9444200Y-6623000I-50800J0D01*
G01*
X9444200Y-6623000D02*
G75*
G02*
X9545800Y-6623000I50800J0D01*
G01*
X9545800Y-6877000D02*
G75*
G02*
X9444200Y-6877000I-50800J0D01*
G01*
X9444200Y-6877000D02*
G75*
G02*
X9545800Y-6877000I50800J0D01*
G01*
X9799800Y-6623000D02*
G75*
G02*
X9698200Y-6623000I-50800J0D01*
G01*
X9698200Y-6623000D02*
G75*
G02*
X9799800Y-6623000I50800J0D01*
G01*
X9799800Y-6877000D02*
G75*
G02*
X9698200Y-6877000I-50800J0D01*
G01*
X9698200Y-6877000D02*
G75*
G02*
X9799800Y-6877000I50800J0D01*
G01*
X10053800Y-6623000D02*
G75*
G02*
X9952200Y-6623000I-50800J0D01*
G01*
X9952200Y-6623000D02*
G75*
G02*
X10053800Y-6623000I50800J0D01*
G01*
X10053800Y-6877000D02*
G75*
G02*
X9952200Y-6877000I-50800J0D01*
G01*
X9952200Y-6877000D02*
G75*
G02*
X10053800Y-6877000I50800J0D01*
G01*
X10307800Y-6623000D02*
G75*
G02*
X10206200Y-6623000I-50800J0D01*
G01*
X10206200Y-6623000D02*
G75*
G02*
X10307800Y-6623000I50800J0D01*
G01*
X10307800Y-6877000D02*
G75*
G02*
X10206200Y-6877000I-50800J0D01*
G01*
X10206200Y-6877000D02*
G75*
G02*
X10307800Y-6877000I50800J0D01*
G01*
X10561800Y-6623000D02*
G75*
G02*
X10460200Y-6623000I-50800J0D01*
G01*
X10460200Y-6623000D02*
G75*
G02*
X10561800Y-6623000I50800J0D01*
G01*
X10561800Y-6877000D02*
G75*
G02*
X10460200Y-6877000I-50800J0D01*
G01*
X10460200Y-6877000D02*
G75*
G02*
X10561800Y-6877000I50800J0D01*
G01*
X10815800Y-6623000D02*
G75*
G02*
X10714200Y-6623000I-50800J0D01*
G01*
X10714200Y-6623000D02*
G75*
G02*
X10815800Y-6623000I50800J0D01*
G01*
X10815800Y-6877000D02*
G75*
G02*
X10714200Y-6877000I-50800J0D01*
G01*
X10714200Y-6877000D02*
G75*
G02*
X10815800Y-6877000I50800J0D01*
G01*
X11069800Y-6623000D02*
G75*
G02*
X10968200Y-6623000I-50800J0D01*
G01*
X10968200Y-6623000D02*
G75*
G02*
X11069800Y-6623000I50800J0D01*
G01*
X11069800Y-6877000D02*
G75*
G02*
X10968200Y-6877000I-50800J0D01*
G01*
X10968200Y-6877000D02*
G75*
G02*
X11069800Y-6877000I50800J0D01*
G01*
X11323800Y-6623000D02*
G75*
G02*
X11222200Y-6623000I-50800J0D01*
G01*
X11222200Y-6623000D02*
G75*
G02*
X11323800Y-6623000I50800J0D01*
G01*
X11323800Y-6877000D02*
G75*
G02*
X11222200Y-6877000I-50800J0D01*
G01*
X11222200Y-6877000D02*
G75*
G02*
X11323800Y-6877000I50800J0D01*
G01*
X11577800Y-6623000D02*
G75*
G02*
X11476200Y-6623000I-50800J0D01*
G01*
X11476200Y-6623000D02*
G75*
G02*
X11577800Y-6623000I50800J0D01*
G01*
X11577800Y-6877000D02*
G75*
G02*
X11476200Y-6877000I-50800J0D01*
G01*
X11476200Y-6877000D02*
G75*
G02*
X11577800Y-6877000I50800J0D01*
G01*
X11831800Y-6623000D02*
G75*
G02*
X11730200Y-6623000I-50800J0D01*
G01*
X11730200Y-6623000D02*
G75*
G02*
X11831800Y-6623000I50800J0D01*
G01*
X11831800Y-6877000D02*
G75*
G02*
X11730200Y-6877000I-50800J0D01*
G01*
X11730200Y-6877000D02*
G75*
G02*
X11831800Y-6877000I50800J0D01*
G01*
X12085800Y-6623000D02*
G75*
G02*
X11984200Y-6623000I-50800J0D01*
G01*
X11984200Y-6623000D02*
G75*
G02*
X12085800Y-6623000I50800J0D01*
G01*
X12085800Y-6877000D02*
G75*
G02*
X11984200Y-6877000I-50800J0D01*
G01*
X11984200Y-6877000D02*
G75*
G02*
X12085800Y-6877000I50800J0D01*
G01*
X12339800Y-6623000D02*
G75*
G02*
X12238200Y-6623000I-50800J0D01*
G01*
X12238200Y-6623000D02*
G75*
G02*
X12339800Y-6623000I50800J0D01*
G01*
X12339800Y-6877000D02*
G75*
G02*
X12238200Y-6877000I-50800J0D01*
G01*
X12238200Y-6877000D02*
G75*
G02*
X12339800Y-6877000I50800J0D01*
G01*
X12593800Y-6623000D02*
G75*
G02*
X12492200Y-6623000I-50800J0D01*
G01*
X12492200Y-6623000D02*
G75*
G02*
X12593800Y-6623000I50800J0D01*
G01*
X12593800Y-6877000D02*
G75*
G02*
X12492200Y-6877000I-50800J0D01*
G01*
X12492200Y-6877000D02*
G75*
G02*
X12593800Y-6877000I50800J0D01*
G01*
X12847800Y-6623000D02*
G75*
G02*
X12746200Y-6623000I-50800J0D01*
G01*
X12746200Y-6623000D02*
G75*
G02*
X12847800Y-6623000I50800J0D01*
G01*
X12847800Y-6877000D02*
G75*
G02*
X12746200Y-6877000I-50800J0D01*
G01*
X12746200Y-6877000D02*
G75*
G02*
X12847800Y-6877000I50800J0D01*
G01*
X13101800Y-6623000D02*
G75*
G02*
X13000200Y-6623000I-50800J0D01*
G01*
X13000200Y-6623000D02*
G75*
G02*
X13101800Y-6623000I50800J0D01*
G01*
X13101800Y-6877000D02*
G75*
G02*
X13000200Y-6877000I-50800J0D01*
G01*
X13000200Y-6877000D02*
G75*
G02*
X13101800Y-6877000I50800J0D01*
G01*
X13355800Y-6623000D02*
G75*
G02*
X13254200Y-6623000I-50800J0D01*
G01*
X13254200Y-6623000D02*
G75*
G02*
X13355800Y-6623000I50800J0D01*
G01*
X13355800Y-6877000D02*
G75*
G02*
X13254200Y-6877000I-50800J0D01*
G01*
X13254200Y-6877000D02*
G75*
G02*
X13355800Y-6877000I50800J0D01*
G01*
X13609800Y-6623000D02*
G75*
G02*
X13508200Y-6623000I-50800J0D01*
G01*
X13508200Y-6623000D02*
G75*
G02*
X13609800Y-6623000I50800J0D01*
G01*
X13609800Y-6877000D02*
G75*
G02*
X13508200Y-6877000I-50800J0D01*
G01*
X13508200Y-6877000D02*
G75*
G02*
X13609800Y-6877000I50800J0D01*
G01*
X13863800Y-6623000D02*
G75*
G02*
X13762200Y-6623000I-50800J0D01*
G01*
X13762200Y-6623000D02*
G75*
G02*
X13863800Y-6623000I50800J0D01*
G01*
X13863800Y-6877000D02*
G75*
G02*
X13762200Y-6877000I-50800J0D01*
G01*
X13762200Y-6877000D02*
G75*
G02*
X13863800Y-6877000I50800J0D01*
G01*
X14219800Y-7235300D02*
G75*
G02*
X14118200Y-7235300I-50800J0D01*
G01*
X14118200Y-7235300D02*
G75*
G02*
X14219800Y-7235300I50800J0D01*
G01*
X14219800Y-7489300D02*
G75*
G02*
X14118200Y-7489300I-50800J0D01*
G01*
X14118200Y-7489300D02*
G75*
G02*
X14219800Y-7489300I50800J0D01*
G01*
X14473800Y-7235300D02*
G75*
G02*
X14372200Y-7235300I-50800J0D01*
G01*
X14372200Y-7235300D02*
G75*
G02*
X14473800Y-7235300I50800J0D01*
G01*
X14473800Y-7489300D02*
G75*
G02*
X14372200Y-7489300I-50800J0D01*
G01*
X14372200Y-7489300D02*
G75*
G02*
X14473800Y-7489300I50800J0D01*
G01*
D14*
X4850000Y-3605000D02*
X4850000Y-3745000D01*
X4780000Y-3675000D02*
X4920000Y-3675000D01*
X5350000Y-3605000D02*
X5350000Y-3745000D01*
X5280000Y-3675000D02*
X5420000Y-3675000D01*
X5850000Y-3605000D02*
X5850000Y-3745000D01*
X5780000Y-3675000D02*
X5920000Y-3675000D01*
X6350000Y-3605000D02*
X6350000Y-3745000D01*
X6280000Y-3675000D02*
X6420000Y-3675000D01*
X7050000Y-3605000D02*
X7050000Y-3745000D01*
X6980000Y-3675000D02*
X7120000Y-3675000D01*
X7550000Y-3605000D02*
X7550000Y-3745000D01*
X7480000Y-3675000D02*
X7620000Y-3675000D01*
X8050000Y-3605000D02*
X8050000Y-3745000D01*
X7980000Y-3675000D02*
X8120000Y-3675000D01*
X8550000Y-3605000D02*
X8550000Y-3745000D01*
X8480000Y-3675000D02*
X8620000Y-3675000D01*
X9250000Y-3605000D02*
X9250000Y-3745000D01*
X9180000Y-3675000D02*
X9320000Y-3675000D01*
X9750000Y-3605000D02*
X9750000Y-3745000D01*
X9680000Y-3675000D02*
X9820000Y-3675000D01*
X10250000Y-3605000D02*
X10250000Y-3745000D01*
X10180000Y-3675000D02*
X10320000Y-3675000D01*
X10750000Y-3605000D02*
X10750000Y-3745000D01*
X10680000Y-3675000D02*
X10820000Y-3675000D01*
X11450000Y-3605000D02*
X11450000Y-3745000D01*
X11380000Y-3675000D02*
X11520000Y-3675000D01*
X11950000Y-3605000D02*
X11950000Y-3745000D01*
X11880000Y-3675000D02*
X12020000Y-3675000D01*
X12450000Y-3605000D02*
X12450000Y-3745000D01*
X12380000Y-3675000D02*
X12520000Y-3675000D01*
X12950000Y-3605000D02*
X12950000Y-3745000D01*
X12880000Y-3675000D02*
X13020000Y-3675000D01*
X13650000Y-3605000D02*
X13650000Y-3745000D01*
X13580000Y-3675000D02*
X13720000Y-3675000D01*
X14150000Y-3605000D02*
X14150000Y-3745000D01*
X14080000Y-3675000D02*
X14220000Y-3675000D01*
X14650000Y-3605000D02*
X14650000Y-3745000D01*
X14580000Y-3675000D02*
X14720000Y-3675000D01*
X15150000Y-3605000D02*
X15150000Y-3745000D01*
X15080000Y-3675000D02*
X15220000Y-3675000D01*
X15900000Y-3605000D02*
X15900000Y-3745000D01*
X15830000Y-3675000D02*
X15970000Y-3675000D01*
X16400000Y-3605000D02*
X16400000Y-3745000D01*
X16330000Y-3675000D02*
X16470000Y-3675000D01*
X16900000Y-3605000D02*
X16900000Y-3745000D01*
X16830000Y-3675000D02*
X16970000Y-3675000D01*
X17400000Y-3605000D02*
X17400000Y-3745000D01*
X17330000Y-3675000D02*
X17470000Y-3675000D01*
X18228000Y-5010000D02*
X18228000Y-5150000D01*
X18158000Y-5080000D02*
X18298000Y-5080000D01*
X18228000Y-5510000D02*
X18228000Y-5650000D01*
X18158000Y-5580000D02*
X18298000Y-5580000D01*
D15*
X8597228Y-6847228D02*
X8597228Y-6652772D01*
X8402772Y-6652772D01*
X8402772Y-6847228D01*
X8597228Y-6847228D01*
X8597228Y-11747228D02*
X8597228Y-11552772D01*
X8402772Y-11552772D01*
X8402772Y-11747228D01*
X8597228Y-11747228D01*
X14397228Y-6847228D02*
X14397228Y-6652772D01*
X14202772Y-6652772D01*
X14202772Y-6847228D01*
X14397228Y-6847228D01*
X14397228Y-11747228D02*
X14397228Y-11552772D01*
X14202772Y-11552772D01*
X14202772Y-11747228D01*
X14397228Y-11747228D01*
D16*
X18482000Y-3627500D02*
X18709500Y-3400000D01*
X18482000Y-3172500D01*
X18254500Y-3400000D01*
X18482000Y-3627500D01*
X18482000Y-4347500D02*
X18709500Y-4120000D01*
X18482000Y-3892500D01*
X18254500Y-4120000D01*
X18482000Y-4347500D01*
D11*
X4708277Y-8057984D02*
X4708277Y-7857984D01*
X4708277Y-7857984D02*
X4755896Y-7857984D01*
X4755896Y-7857984D02*
X4784467Y-7867508D01*
X4784467Y-7867508D02*
X4803515Y-7886555D01*
X4803515Y-7886555D02*
X4813039Y-7905603D01*
X4813039Y-7905603D02*
X4822563Y-7943698D01*
X4822563Y-7943698D02*
X4822563Y-7972269D01*
X4822563Y-7972269D02*
X4813039Y-8010365D01*
X4813039Y-8010365D02*
X4803515Y-8029412D01*
X4803515Y-8029412D02*
X4784467Y-8048460D01*
X4784467Y-8048460D02*
X4755896Y-8057984D01*
X4755896Y-8057984D02*
X4708277Y-8057984D01*
X4908277Y-8057984D02*
X4908277Y-7924650D01*
X4908277Y-7962746D02*
X4917801Y-7943698D01*
X4917801Y-7943698D02*
X4927324Y-7934174D01*
X4927324Y-7934174D02*
X4946372Y-7924650D01*
X4946372Y-7924650D02*
X4965420Y-7924650D01*
X5032086Y-8057984D02*
X5032086Y-7924650D01*
X5032086Y-7857984D02*
X5022563Y-7867508D01*
X5022563Y-7867508D02*
X5032086Y-7877031D01*
X5032086Y-7877031D02*
X5041610Y-7867508D01*
X5041610Y-7867508D02*
X5032086Y-7857984D01*
X5032086Y-7857984D02*
X5032086Y-7877031D01*
X5155896Y-8057984D02*
X5136848Y-8048460D01*
X5136848Y-8048460D02*
X5127324Y-8029412D01*
X5127324Y-8029412D02*
X5127324Y-7857984D01*
X5260658Y-8057984D02*
X5241610Y-8048460D01*
X5241610Y-8048460D02*
X5232086Y-8029412D01*
X5232086Y-8029412D02*
X5232086Y-7857984D01*
X5489229Y-8057984D02*
X5489229Y-7857984D01*
X5489229Y-7857984D02*
X5555896Y-8000841D01*
X5555896Y-8000841D02*
X5622562Y-7857984D01*
X5622562Y-7857984D02*
X5622562Y-8057984D01*
X5803515Y-8057984D02*
X5803515Y-7953222D01*
X5803515Y-7953222D02*
X5793991Y-7934174D01*
X5793991Y-7934174D02*
X5774943Y-7924650D01*
X5774943Y-7924650D02*
X5736848Y-7924650D01*
X5736848Y-7924650D02*
X5717801Y-7934174D01*
X5803515Y-8048460D02*
X5784467Y-8057984D01*
X5784467Y-8057984D02*
X5736848Y-8057984D01*
X5736848Y-8057984D02*
X5717801Y-8048460D01*
X5717801Y-8048460D02*
X5708277Y-8029412D01*
X5708277Y-8029412D02*
X5708277Y-8010365D01*
X5708277Y-8010365D02*
X5717801Y-7991317D01*
X5717801Y-7991317D02*
X5736848Y-7981793D01*
X5736848Y-7981793D02*
X5784467Y-7981793D01*
X5784467Y-7981793D02*
X5803515Y-7972269D01*
X5898753Y-7924650D02*
X5898753Y-8124650D01*
X5898753Y-7934174D02*
X5917801Y-7924650D01*
X5917801Y-7924650D02*
X5955896Y-7924650D01*
X5955896Y-7924650D02*
X5974943Y-7934174D01*
X5974943Y-7934174D02*
X5984467Y-7943698D01*
X5984467Y-7943698D02*
X5993991Y-7962746D01*
X5993991Y-7962746D02*
X5993991Y-8019888D01*
X5993991Y-8019888D02*
X5984467Y-8038936D01*
X5984467Y-8038936D02*
X5974943Y-8048460D01*
X5974943Y-8048460D02*
X5955896Y-8057984D01*
X5955896Y-8057984D02*
X5917801Y-8057984D01*
X5917801Y-8057984D02*
X5898753Y-8048460D01*
X6079705Y-8038936D02*
X6089229Y-8048460D01*
X6089229Y-8048460D02*
X6079705Y-8057984D01*
X6079705Y-8057984D02*
X6070182Y-8048460D01*
X6070182Y-8048460D02*
X6079705Y-8038936D01*
X6079705Y-8038936D02*
X6079705Y-8057984D01*
X6079705Y-7934174D02*
X6089229Y-7943698D01*
X6089229Y-7943698D02*
X6079705Y-7953222D01*
X6079705Y-7953222D02*
X6070182Y-7943698D01*
X6070182Y-7943698D02*
X6079705Y-7934174D01*
X6079705Y-7934174D02*
X6079705Y-7953222D01*
D12*
X4417500Y-8371500D02*
X4447500Y-8401500D01*
X4447500Y-8371500D02*
X4417500Y-8401500D01*
D11*
X4746372Y-8277984D02*
X4765420Y-8277984D01*
X4765420Y-8277984D02*
X4784467Y-8287508D01*
X4784467Y-8287508D02*
X4793991Y-8297031D01*
X4793991Y-8297031D02*
X4803515Y-8316079D01*
X4803515Y-8316079D02*
X4813039Y-8354174D01*
X4813039Y-8354174D02*
X4813039Y-8401793D01*
X4813039Y-8401793D02*
X4803515Y-8439889D01*
X4803515Y-8439889D02*
X4793991Y-8458936D01*
X4793991Y-8458936D02*
X4784467Y-8468460D01*
X4784467Y-8468460D02*
X4765420Y-8477984D01*
X4765420Y-8477984D02*
X4746372Y-8477984D01*
X4746372Y-8477984D02*
X4727324Y-8468460D01*
X4727324Y-8468460D02*
X4717801Y-8458936D01*
X4717801Y-8458936D02*
X4708277Y-8439889D01*
X4708277Y-8439889D02*
X4698753Y-8401793D01*
X4698753Y-8401793D02*
X4698753Y-8354174D01*
X4698753Y-8354174D02*
X4708277Y-8316079D01*
X4708277Y-8316079D02*
X4717801Y-8297031D01*
X4717801Y-8297031D02*
X4727324Y-8287508D01*
X4727324Y-8287508D02*
X4746372Y-8277984D01*
X4898753Y-8458936D02*
X4908277Y-8468460D01*
X4908277Y-8468460D02*
X4898753Y-8477984D01*
X4898753Y-8477984D02*
X4889229Y-8468460D01*
X4889229Y-8468460D02*
X4898753Y-8458936D01*
X4898753Y-8458936D02*
X4898753Y-8477984D01*
X4974944Y-8277984D02*
X5098753Y-8277984D01*
X5098753Y-8277984D02*
X5032086Y-8354174D01*
X5032086Y-8354174D02*
X5060658Y-8354174D01*
X5060658Y-8354174D02*
X5079705Y-8363698D01*
X5079705Y-8363698D02*
X5089229Y-8373222D01*
X5089229Y-8373222D02*
X5098753Y-8392270D01*
X5098753Y-8392270D02*
X5098753Y-8439889D01*
X5098753Y-8439889D02*
X5089229Y-8458936D01*
X5089229Y-8458936D02*
X5079705Y-8468460D01*
X5079705Y-8468460D02*
X5060658Y-8477984D01*
X5060658Y-8477984D02*
X5003515Y-8477984D01*
X5003515Y-8477984D02*
X4984467Y-8468460D01*
X4984467Y-8468460D02*
X4974944Y-8458936D01*
X5222563Y-8277984D02*
X5241610Y-8277984D01*
X5241610Y-8277984D02*
X5260658Y-8287508D01*
X5260658Y-8287508D02*
X5270182Y-8297031D01*
X5270182Y-8297031D02*
X5279705Y-8316079D01*
X5279705Y-8316079D02*
X5289229Y-8354174D01*
X5289229Y-8354174D02*
X5289229Y-8401793D01*
X5289229Y-8401793D02*
X5279705Y-8439889D01*
X5279705Y-8439889D02*
X5270182Y-8458936D01*
X5270182Y-8458936D02*
X5260658Y-8468460D01*
X5260658Y-8468460D02*
X5241610Y-8477984D01*
X5241610Y-8477984D02*
X5222563Y-8477984D01*
X5222563Y-8477984D02*
X5203515Y-8468460D01*
X5203515Y-8468460D02*
X5193991Y-8458936D01*
X5193991Y-8458936D02*
X5184467Y-8439889D01*
X5184467Y-8439889D02*
X5174944Y-8401793D01*
X5174944Y-8401793D02*
X5174944Y-8354174D01*
X5174944Y-8354174D02*
X5184467Y-8316079D01*
X5184467Y-8316079D02*
X5193991Y-8297031D01*
X5193991Y-8297031D02*
X5203515Y-8287508D01*
X5203515Y-8287508D02*
X5222563Y-8277984D01*
X5413039Y-8277984D02*
X5432086Y-8277984D01*
X5432086Y-8277984D02*
X5451134Y-8287508D01*
X5451134Y-8287508D02*
X5460658Y-8297031D01*
X5460658Y-8297031D02*
X5470182Y-8316079D01*
X5470182Y-8316079D02*
X5479705Y-8354174D01*
X5479705Y-8354174D02*
X5479705Y-8401793D01*
X5479705Y-8401793D02*
X5470182Y-8439889D01*
X5470182Y-8439889D02*
X5460658Y-8458936D01*
X5460658Y-8458936D02*
X5451134Y-8468460D01*
X5451134Y-8468460D02*
X5432086Y-8477984D01*
X5432086Y-8477984D02*
X5413039Y-8477984D01*
X5413039Y-8477984D02*
X5393991Y-8468460D01*
X5393991Y-8468460D02*
X5384467Y-8458936D01*
X5384467Y-8458936D02*
X5374944Y-8439889D01*
X5374944Y-8439889D02*
X5365420Y-8401793D01*
X5365420Y-8401793D02*
X5365420Y-8354174D01*
X5365420Y-8354174D02*
X5374944Y-8316079D01*
X5374944Y-8316079D02*
X5384467Y-8297031D01*
X5384467Y-8297031D02*
X5393991Y-8287508D01*
X5393991Y-8287508D02*
X5413039Y-8277984D01*
X5565420Y-8477984D02*
X5565420Y-8344650D01*
X5565420Y-8363698D02*
X5574944Y-8354174D01*
X5574944Y-8354174D02*
X5593991Y-8344650D01*
X5593991Y-8344650D02*
X5622563Y-8344650D01*
X5622563Y-8344650D02*
X5641610Y-8354174D01*
X5641610Y-8354174D02*
X5651134Y-8373222D01*
X5651134Y-8373222D02*
X5651134Y-8477984D01*
X5651134Y-8373222D02*
X5660658Y-8354174D01*
X5660658Y-8354174D02*
X5679705Y-8344650D01*
X5679705Y-8344650D02*
X5708277Y-8344650D01*
X5708277Y-8344650D02*
X5727324Y-8354174D01*
X5727324Y-8354174D02*
X5736848Y-8373222D01*
X5736848Y-8373222D02*
X5736848Y-8477984D01*
X5832086Y-8477984D02*
X5832086Y-8344650D01*
X5832086Y-8363698D02*
X5841610Y-8354174D01*
X5841610Y-8354174D02*
X5860658Y-8344650D01*
X5860658Y-8344650D02*
X5889229Y-8344650D01*
X5889229Y-8344650D02*
X5908277Y-8354174D01*
X5908277Y-8354174D02*
X5917801Y-8373222D01*
X5917801Y-8373222D02*
X5917801Y-8477984D01*
X5917801Y-8373222D02*
X5927324Y-8354174D01*
X5927324Y-8354174D02*
X5946372Y-8344650D01*
X5946372Y-8344650D02*
X5974943Y-8344650D01*
X5974943Y-8344650D02*
X5993991Y-8354174D01*
X5993991Y-8354174D02*
X6003515Y-8373222D01*
X6003515Y-8373222D02*
X6003515Y-8477984D01*
X6393991Y-8268460D02*
X6222563Y-8525603D01*
X6651134Y-8277984D02*
X6670182Y-8277984D01*
X6670182Y-8277984D02*
X6689229Y-8287508D01*
X6689229Y-8287508D02*
X6698753Y-8297031D01*
X6698753Y-8297031D02*
X6708277Y-8316079D01*
X6708277Y-8316079D02*
X6717801Y-8354174D01*
X6717801Y-8354174D02*
X6717801Y-8401793D01*
X6717801Y-8401793D02*
X6708277Y-8439889D01*
X6708277Y-8439889D02*
X6698753Y-8458936D01*
X6698753Y-8458936D02*
X6689229Y-8468460D01*
X6689229Y-8468460D02*
X6670182Y-8477984D01*
X6670182Y-8477984D02*
X6651134Y-8477984D01*
X6651134Y-8477984D02*
X6632086Y-8468460D01*
X6632086Y-8468460D02*
X6622563Y-8458936D01*
X6622563Y-8458936D02*
X6613039Y-8439889D01*
X6613039Y-8439889D02*
X6603515Y-8401793D01*
X6603515Y-8401793D02*
X6603515Y-8354174D01*
X6603515Y-8354174D02*
X6613039Y-8316079D01*
X6613039Y-8316079D02*
X6622563Y-8297031D01*
X6622563Y-8297031D02*
X6632086Y-8287508D01*
X6632086Y-8287508D02*
X6651134Y-8277984D01*
X6803515Y-8458936D02*
X6813039Y-8468460D01*
X6813039Y-8468460D02*
X6803515Y-8477984D01*
X6803515Y-8477984D02*
X6793991Y-8468460D01*
X6793991Y-8468460D02*
X6803515Y-8458936D01*
X6803515Y-8458936D02*
X6803515Y-8477984D01*
X6936848Y-8277984D02*
X6955896Y-8277984D01*
X6955896Y-8277984D02*
X6974944Y-8287508D01*
X6974944Y-8287508D02*
X6984467Y-8297031D01*
X6984467Y-8297031D02*
X6993991Y-8316079D01*
X6993991Y-8316079D02*
X7003515Y-8354174D01*
X7003515Y-8354174D02*
X7003515Y-8401793D01*
X7003515Y-8401793D02*
X6993991Y-8439889D01*
X6993991Y-8439889D02*
X6984467Y-8458936D01*
X6984467Y-8458936D02*
X6974944Y-8468460D01*
X6974944Y-8468460D02*
X6955896Y-8477984D01*
X6955896Y-8477984D02*
X6936848Y-8477984D01*
X6936848Y-8477984D02*
X6917801Y-8468460D01*
X6917801Y-8468460D02*
X6908277Y-8458936D01*
X6908277Y-8458936D02*
X6898753Y-8439889D01*
X6898753Y-8439889D02*
X6889229Y-8401793D01*
X6889229Y-8401793D02*
X6889229Y-8354174D01*
X6889229Y-8354174D02*
X6898753Y-8316079D01*
X6898753Y-8316079D02*
X6908277Y-8297031D01*
X6908277Y-8297031D02*
X6917801Y-8287508D01*
X6917801Y-8287508D02*
X6936848Y-8277984D01*
X7193991Y-8477984D02*
X7079706Y-8477984D01*
X7136848Y-8477984D02*
X7136848Y-8277984D01*
X7136848Y-8277984D02*
X7117801Y-8306555D01*
X7117801Y-8306555D02*
X7098753Y-8325603D01*
X7098753Y-8325603D02*
X7079706Y-8335127D01*
X7384467Y-8477984D02*
X7270182Y-8477984D01*
X7327325Y-8477984D02*
X7327325Y-8277984D01*
X7327325Y-8277984D02*
X7308277Y-8306555D01*
X7308277Y-8306555D02*
X7289229Y-8325603D01*
X7289229Y-8325603D02*
X7270182Y-8335127D01*
X7498753Y-8363698D02*
X7479706Y-8354174D01*
X7479706Y-8354174D02*
X7470182Y-8344650D01*
X7470182Y-8344650D02*
X7460658Y-8325603D01*
X7460658Y-8325603D02*
X7460658Y-8316079D01*
X7460658Y-8316079D02*
X7470182Y-8297031D01*
X7470182Y-8297031D02*
X7479706Y-8287508D01*
X7479706Y-8287508D02*
X7498753Y-8277984D01*
X7498753Y-8277984D02*
X7536848Y-8277984D01*
X7536848Y-8277984D02*
X7555896Y-8287508D01*
X7555896Y-8287508D02*
X7565420Y-8297031D01*
X7565420Y-8297031D02*
X7574944Y-8316079D01*
X7574944Y-8316079D02*
X7574944Y-8325603D01*
X7574944Y-8325603D02*
X7565420Y-8344650D01*
X7565420Y-8344650D02*
X7555896Y-8354174D01*
X7555896Y-8354174D02*
X7536848Y-8363698D01*
X7536848Y-8363698D02*
X7498753Y-8363698D01*
X7498753Y-8363698D02*
X7479706Y-8373222D01*
X7479706Y-8373222D02*
X7470182Y-8382746D01*
X7470182Y-8382746D02*
X7460658Y-8401793D01*
X7460658Y-8401793D02*
X7460658Y-8439889D01*
X7460658Y-8439889D02*
X7470182Y-8458936D01*
X7470182Y-8458936D02*
X7479706Y-8468460D01*
X7479706Y-8468460D02*
X7498753Y-8477984D01*
X7498753Y-8477984D02*
X7536848Y-8477984D01*
X7536848Y-8477984D02*
X7555896Y-8468460D01*
X7555896Y-8468460D02*
X7565420Y-8458936D01*
X7565420Y-8458936D02*
X7574944Y-8439889D01*
X7574944Y-8439889D02*
X7574944Y-8401793D01*
X7574944Y-8401793D02*
X7565420Y-8382746D01*
X7565420Y-8382746D02*
X7555896Y-8373222D01*
X7555896Y-8373222D02*
X7536848Y-8363698D01*
X7651134Y-8277984D02*
X7651134Y-8316079D01*
X7727325Y-8277984D02*
X7727325Y-8316079D01*
X8022563Y-8554174D02*
X8013039Y-8544650D01*
X8013039Y-8544650D02*
X7993991Y-8516079D01*
X7993991Y-8516079D02*
X7984468Y-8497031D01*
X7984468Y-8497031D02*
X7974944Y-8468460D01*
X7974944Y-8468460D02*
X7965420Y-8420841D01*
X7965420Y-8420841D02*
X7965420Y-8382746D01*
X7965420Y-8382746D02*
X7974944Y-8335127D01*
X7974944Y-8335127D02*
X7984468Y-8306555D01*
X7984468Y-8306555D02*
X7993991Y-8287508D01*
X7993991Y-8287508D02*
X8013039Y-8258936D01*
X8013039Y-8258936D02*
X8022563Y-8249412D01*
X8203515Y-8477984D02*
X8089229Y-8477984D01*
X8146372Y-8477984D02*
X8146372Y-8277984D01*
X8146372Y-8277984D02*
X8127325Y-8306555D01*
X8127325Y-8306555D02*
X8108277Y-8325603D01*
X8108277Y-8325603D02*
X8089229Y-8335127D01*
X8327325Y-8277984D02*
X8346372Y-8277984D01*
X8346372Y-8277984D02*
X8365420Y-8287508D01*
X8365420Y-8287508D02*
X8374944Y-8297031D01*
X8374944Y-8297031D02*
X8384468Y-8316079D01*
X8384468Y-8316079D02*
X8393991Y-8354174D01*
X8393991Y-8354174D02*
X8393991Y-8401793D01*
X8393991Y-8401793D02*
X8384468Y-8439889D01*
X8384468Y-8439889D02*
X8374944Y-8458936D01*
X8374944Y-8458936D02*
X8365420Y-8468460D01*
X8365420Y-8468460D02*
X8346372Y-8477984D01*
X8346372Y-8477984D02*
X8327325Y-8477984D01*
X8327325Y-8477984D02*
X8308277Y-8468460D01*
X8308277Y-8468460D02*
X8298753Y-8458936D01*
X8298753Y-8458936D02*
X8289229Y-8439889D01*
X8289229Y-8439889D02*
X8279706Y-8401793D01*
X8279706Y-8401793D02*
X8279706Y-8354174D01*
X8279706Y-8354174D02*
X8289229Y-8316079D01*
X8289229Y-8316079D02*
X8298753Y-8297031D01*
X8298753Y-8297031D02*
X8308277Y-8287508D01*
X8308277Y-8287508D02*
X8327325Y-8277984D01*
X8632087Y-8477984D02*
X8632087Y-8277984D01*
X8717801Y-8477984D02*
X8717801Y-8373222D01*
X8717801Y-8373222D02*
X8708277Y-8354174D01*
X8708277Y-8354174D02*
X8689230Y-8344650D01*
X8689230Y-8344650D02*
X8660658Y-8344650D01*
X8660658Y-8344650D02*
X8641611Y-8354174D01*
X8641611Y-8354174D02*
X8632087Y-8363698D01*
X8841611Y-8477984D02*
X8822563Y-8468460D01*
X8822563Y-8468460D02*
X8813039Y-8458936D01*
X8813039Y-8458936D02*
X8803515Y-8439889D01*
X8803515Y-8439889D02*
X8803515Y-8382746D01*
X8803515Y-8382746D02*
X8813039Y-8363698D01*
X8813039Y-8363698D02*
X8822563Y-8354174D01*
X8822563Y-8354174D02*
X8841611Y-8344650D01*
X8841611Y-8344650D02*
X8870182Y-8344650D01*
X8870182Y-8344650D02*
X8889230Y-8354174D01*
X8889230Y-8354174D02*
X8898753Y-8363698D01*
X8898753Y-8363698D02*
X8908277Y-8382746D01*
X8908277Y-8382746D02*
X8908277Y-8439889D01*
X8908277Y-8439889D02*
X8898753Y-8458936D01*
X8898753Y-8458936D02*
X8889230Y-8468460D01*
X8889230Y-8468460D02*
X8870182Y-8477984D01*
X8870182Y-8477984D02*
X8841611Y-8477984D01*
X9022563Y-8477984D02*
X9003515Y-8468460D01*
X9003515Y-8468460D02*
X8993992Y-8449412D01*
X8993992Y-8449412D02*
X8993992Y-8277984D01*
X9174944Y-8468460D02*
X9155896Y-8477984D01*
X9155896Y-8477984D02*
X9117801Y-8477984D01*
X9117801Y-8477984D02*
X9098753Y-8468460D01*
X9098753Y-8468460D02*
X9089230Y-8449412D01*
X9089230Y-8449412D02*
X9089230Y-8373222D01*
X9089230Y-8373222D02*
X9098753Y-8354174D01*
X9098753Y-8354174D02*
X9117801Y-8344650D01*
X9117801Y-8344650D02*
X9155896Y-8344650D01*
X9155896Y-8344650D02*
X9174944Y-8354174D01*
X9174944Y-8354174D02*
X9184468Y-8373222D01*
X9184468Y-8373222D02*
X9184468Y-8392270D01*
X9184468Y-8392270D02*
X9089230Y-8411317D01*
X9260658Y-8468460D02*
X9279706Y-8477984D01*
X9279706Y-8477984D02*
X9317801Y-8477984D01*
X9317801Y-8477984D02*
X9336849Y-8468460D01*
X9336849Y-8468460D02*
X9346373Y-8449412D01*
X9346373Y-8449412D02*
X9346373Y-8439889D01*
X9346373Y-8439889D02*
X9336849Y-8420841D01*
X9336849Y-8420841D02*
X9317801Y-8411317D01*
X9317801Y-8411317D02*
X9289230Y-8411317D01*
X9289230Y-8411317D02*
X9270182Y-8401793D01*
X9270182Y-8401793D02*
X9260658Y-8382746D01*
X9260658Y-8382746D02*
X9260658Y-8373222D01*
X9260658Y-8373222D02*
X9270182Y-8354174D01*
X9270182Y-8354174D02*
X9289230Y-8344650D01*
X9289230Y-8344650D02*
X9317801Y-8344650D01*
X9317801Y-8344650D02*
X9336849Y-8354174D01*
X9413039Y-8554174D02*
X9422563Y-8544650D01*
X9422563Y-8544650D02*
X9441611Y-8516079D01*
X9441611Y-8516079D02*
X9451134Y-8497031D01*
X9451134Y-8497031D02*
X9460658Y-8468460D01*
X9460658Y-8468460D02*
X9470182Y-8420841D01*
X9470182Y-8420841D02*
X9470182Y-8382746D01*
X9470182Y-8382746D02*
X9460658Y-8335127D01*
X9460658Y-8335127D02*
X9451134Y-8306555D01*
X9451134Y-8306555D02*
X9441611Y-8287508D01*
X9441611Y-8287508D02*
X9422563Y-8258936D01*
X9422563Y-8258936D02*
X9413039Y-8249412D01*
D13*
X4447500Y-8650500D02*
G75*
G02*
X4345900Y-8650500I-50800J0D01*
G01*
X4345900Y-8650500D02*
G75*
G02*
X4447500Y-8650500I50800J0D01*
G01*
D11*
X4813039Y-8741984D02*
X4698753Y-8741984D01*
X4755896Y-8741984D02*
X4755896Y-8541984D01*
X4755896Y-8541984D02*
X4736848Y-8570555D01*
X4736848Y-8570555D02*
X4717801Y-8589603D01*
X4717801Y-8589603D02*
X4698753Y-8599127D01*
X4898753Y-8722936D02*
X4908277Y-8732460D01*
X4908277Y-8732460D02*
X4898753Y-8741984D01*
X4898753Y-8741984D02*
X4889229Y-8732460D01*
X4889229Y-8732460D02*
X4898753Y-8722936D01*
X4898753Y-8722936D02*
X4898753Y-8741984D01*
X5032086Y-8541984D02*
X5051134Y-8541984D01*
X5051134Y-8541984D02*
X5070182Y-8551508D01*
X5070182Y-8551508D02*
X5079705Y-8561031D01*
X5079705Y-8561031D02*
X5089229Y-8580079D01*
X5089229Y-8580079D02*
X5098753Y-8618174D01*
X5098753Y-8618174D02*
X5098753Y-8665793D01*
X5098753Y-8665793D02*
X5089229Y-8703889D01*
X5089229Y-8703889D02*
X5079705Y-8722936D01*
X5079705Y-8722936D02*
X5070182Y-8732460D01*
X5070182Y-8732460D02*
X5051134Y-8741984D01*
X5051134Y-8741984D02*
X5032086Y-8741984D01*
X5032086Y-8741984D02*
X5013039Y-8732460D01*
X5013039Y-8732460D02*
X5003515Y-8722936D01*
X5003515Y-8722936D02*
X4993991Y-8703889D01*
X4993991Y-8703889D02*
X4984467Y-8665793D01*
X4984467Y-8665793D02*
X4984467Y-8618174D01*
X4984467Y-8618174D02*
X4993991Y-8580079D01*
X4993991Y-8580079D02*
X5003515Y-8561031D01*
X5003515Y-8561031D02*
X5013039Y-8551508D01*
X5013039Y-8551508D02*
X5032086Y-8541984D01*
X5289229Y-8741984D02*
X5174944Y-8741984D01*
X5232086Y-8741984D02*
X5232086Y-8541984D01*
X5232086Y-8541984D02*
X5213039Y-8570555D01*
X5213039Y-8570555D02*
X5193991Y-8589603D01*
X5193991Y-8589603D02*
X5174944Y-8599127D01*
X5460658Y-8541984D02*
X5422563Y-8541984D01*
X5422563Y-8541984D02*
X5403515Y-8551508D01*
X5403515Y-8551508D02*
X5393991Y-8561031D01*
X5393991Y-8561031D02*
X5374944Y-8589603D01*
X5374944Y-8589603D02*
X5365420Y-8627698D01*
X5365420Y-8627698D02*
X5365420Y-8703889D01*
X5365420Y-8703889D02*
X5374944Y-8722936D01*
X5374944Y-8722936D02*
X5384467Y-8732460D01*
X5384467Y-8732460D02*
X5403515Y-8741984D01*
X5403515Y-8741984D02*
X5441610Y-8741984D01*
X5441610Y-8741984D02*
X5460658Y-8732460D01*
X5460658Y-8732460D02*
X5470182Y-8722936D01*
X5470182Y-8722936D02*
X5479705Y-8703889D01*
X5479705Y-8703889D02*
X5479705Y-8656270D01*
X5479705Y-8656270D02*
X5470182Y-8637222D01*
X5470182Y-8637222D02*
X5460658Y-8627698D01*
X5460658Y-8627698D02*
X5441610Y-8618174D01*
X5441610Y-8618174D02*
X5403515Y-8618174D01*
X5403515Y-8618174D02*
X5384467Y-8627698D01*
X5384467Y-8627698D02*
X5374944Y-8637222D01*
X5374944Y-8637222D02*
X5365420Y-8656270D01*
X5565420Y-8741984D02*
X5565420Y-8608650D01*
X5565420Y-8627698D02*
X5574944Y-8618174D01*
X5574944Y-8618174D02*
X5593991Y-8608650D01*
X5593991Y-8608650D02*
X5622563Y-8608650D01*
X5622563Y-8608650D02*
X5641610Y-8618174D01*
X5641610Y-8618174D02*
X5651134Y-8637222D01*
X5651134Y-8637222D02*
X5651134Y-8741984D01*
X5651134Y-8637222D02*
X5660658Y-8618174D01*
X5660658Y-8618174D02*
X5679705Y-8608650D01*
X5679705Y-8608650D02*
X5708277Y-8608650D01*
X5708277Y-8608650D02*
X5727324Y-8618174D01*
X5727324Y-8618174D02*
X5736848Y-8637222D01*
X5736848Y-8637222D02*
X5736848Y-8741984D01*
X5832086Y-8741984D02*
X5832086Y-8608650D01*
X5832086Y-8627698D02*
X5841610Y-8618174D01*
X5841610Y-8618174D02*
X5860658Y-8608650D01*
X5860658Y-8608650D02*
X5889229Y-8608650D01*
X5889229Y-8608650D02*
X5908277Y-8618174D01*
X5908277Y-8618174D02*
X5917801Y-8637222D01*
X5917801Y-8637222D02*
X5917801Y-8741984D01*
X5917801Y-8637222D02*
X5927324Y-8618174D01*
X5927324Y-8618174D02*
X5946372Y-8608650D01*
X5946372Y-8608650D02*
X5974943Y-8608650D01*
X5974943Y-8608650D02*
X5993991Y-8618174D01*
X5993991Y-8618174D02*
X6003515Y-8637222D01*
X6003515Y-8637222D02*
X6003515Y-8741984D01*
X6393991Y-8532460D02*
X6222563Y-8789603D01*
X6651134Y-8541984D02*
X6670182Y-8541984D01*
X6670182Y-8541984D02*
X6689229Y-8551508D01*
X6689229Y-8551508D02*
X6698753Y-8561031D01*
X6698753Y-8561031D02*
X6708277Y-8580079D01*
X6708277Y-8580079D02*
X6717801Y-8618174D01*
X6717801Y-8618174D02*
X6717801Y-8665793D01*
X6717801Y-8665793D02*
X6708277Y-8703889D01*
X6708277Y-8703889D02*
X6698753Y-8722936D01*
X6698753Y-8722936D02*
X6689229Y-8732460D01*
X6689229Y-8732460D02*
X6670182Y-8741984D01*
X6670182Y-8741984D02*
X6651134Y-8741984D01*
X6651134Y-8741984D02*
X6632086Y-8732460D01*
X6632086Y-8732460D02*
X6622563Y-8722936D01*
X6622563Y-8722936D02*
X6613039Y-8703889D01*
X6613039Y-8703889D02*
X6603515Y-8665793D01*
X6603515Y-8665793D02*
X6603515Y-8618174D01*
X6603515Y-8618174D02*
X6613039Y-8580079D01*
X6613039Y-8580079D02*
X6622563Y-8561031D01*
X6622563Y-8561031D02*
X6632086Y-8551508D01*
X6632086Y-8551508D02*
X6651134Y-8541984D01*
X6803515Y-8722936D02*
X6813039Y-8732460D01*
X6813039Y-8732460D02*
X6803515Y-8741984D01*
X6803515Y-8741984D02*
X6793991Y-8732460D01*
X6793991Y-8732460D02*
X6803515Y-8722936D01*
X6803515Y-8722936D02*
X6803515Y-8741984D01*
X6936848Y-8541984D02*
X6955896Y-8541984D01*
X6955896Y-8541984D02*
X6974944Y-8551508D01*
X6974944Y-8551508D02*
X6984467Y-8561031D01*
X6984467Y-8561031D02*
X6993991Y-8580079D01*
X6993991Y-8580079D02*
X7003515Y-8618174D01*
X7003515Y-8618174D02*
X7003515Y-8665793D01*
X7003515Y-8665793D02*
X6993991Y-8703889D01*
X6993991Y-8703889D02*
X6984467Y-8722936D01*
X6984467Y-8722936D02*
X6974944Y-8732460D01*
X6974944Y-8732460D02*
X6955896Y-8741984D01*
X6955896Y-8741984D02*
X6936848Y-8741984D01*
X6936848Y-8741984D02*
X6917801Y-8732460D01*
X6917801Y-8732460D02*
X6908277Y-8722936D01*
X6908277Y-8722936D02*
X6898753Y-8703889D01*
X6898753Y-8703889D02*
X6889229Y-8665793D01*
X6889229Y-8665793D02*
X6889229Y-8618174D01*
X6889229Y-8618174D02*
X6898753Y-8580079D01*
X6898753Y-8580079D02*
X6908277Y-8561031D01*
X6908277Y-8561031D02*
X6917801Y-8551508D01*
X6917801Y-8551508D02*
X6936848Y-8541984D01*
X7174944Y-8608650D02*
X7174944Y-8741984D01*
X7127325Y-8532460D02*
X7079706Y-8675317D01*
X7079706Y-8675317D02*
X7203515Y-8675317D01*
X7317801Y-8541984D02*
X7336848Y-8541984D01*
X7336848Y-8541984D02*
X7355896Y-8551508D01*
X7355896Y-8551508D02*
X7365420Y-8561031D01*
X7365420Y-8561031D02*
X7374944Y-8580079D01*
X7374944Y-8580079D02*
X7384467Y-8618174D01*
X7384467Y-8618174D02*
X7384467Y-8665793D01*
X7384467Y-8665793D02*
X7374944Y-8703889D01*
X7374944Y-8703889D02*
X7365420Y-8722936D01*
X7365420Y-8722936D02*
X7355896Y-8732460D01*
X7355896Y-8732460D02*
X7336848Y-8741984D01*
X7336848Y-8741984D02*
X7317801Y-8741984D01*
X7317801Y-8741984D02*
X7298753Y-8732460D01*
X7298753Y-8732460D02*
X7289229Y-8722936D01*
X7289229Y-8722936D02*
X7279706Y-8703889D01*
X7279706Y-8703889D02*
X7270182Y-8665793D01*
X7270182Y-8665793D02*
X7270182Y-8618174D01*
X7270182Y-8618174D02*
X7279706Y-8580079D01*
X7279706Y-8580079D02*
X7289229Y-8561031D01*
X7289229Y-8561031D02*
X7298753Y-8551508D01*
X7298753Y-8551508D02*
X7317801Y-8541984D01*
X7508277Y-8541984D02*
X7527325Y-8541984D01*
X7527325Y-8541984D02*
X7546372Y-8551508D01*
X7546372Y-8551508D02*
X7555896Y-8561031D01*
X7555896Y-8561031D02*
X7565420Y-8580079D01*
X7565420Y-8580079D02*
X7574944Y-8618174D01*
X7574944Y-8618174D02*
X7574944Y-8665793D01*
X7574944Y-8665793D02*
X7565420Y-8703889D01*
X7565420Y-8703889D02*
X7555896Y-8722936D01*
X7555896Y-8722936D02*
X7546372Y-8732460D01*
X7546372Y-8732460D02*
X7527325Y-8741984D01*
X7527325Y-8741984D02*
X7508277Y-8741984D01*
X7508277Y-8741984D02*
X7489229Y-8732460D01*
X7489229Y-8732460D02*
X7479706Y-8722936D01*
X7479706Y-8722936D02*
X7470182Y-8703889D01*
X7470182Y-8703889D02*
X7460658Y-8665793D01*
X7460658Y-8665793D02*
X7460658Y-8618174D01*
X7460658Y-8618174D02*
X7470182Y-8580079D01*
X7470182Y-8580079D02*
X7479706Y-8561031D01*
X7479706Y-8561031D02*
X7489229Y-8551508D01*
X7489229Y-8551508D02*
X7508277Y-8541984D01*
X7651134Y-8541984D02*
X7651134Y-8580079D01*
X7727325Y-8541984D02*
X7727325Y-8580079D01*
X8022563Y-8818174D02*
X8013039Y-8808650D01*
X8013039Y-8808650D02*
X7993991Y-8780079D01*
X7993991Y-8780079D02*
X7984468Y-8761031D01*
X7984468Y-8761031D02*
X7974944Y-8732460D01*
X7974944Y-8732460D02*
X7965420Y-8684841D01*
X7965420Y-8684841D02*
X7965420Y-8646746D01*
X7965420Y-8646746D02*
X7974944Y-8599127D01*
X7974944Y-8599127D02*
X7984468Y-8570555D01*
X7984468Y-8570555D02*
X7993991Y-8551508D01*
X7993991Y-8551508D02*
X8013039Y-8522936D01*
X8013039Y-8522936D02*
X8022563Y-8513412D01*
X8184468Y-8608650D02*
X8184468Y-8741984D01*
X8136848Y-8532460D02*
X8089229Y-8675317D01*
X8089229Y-8675317D02*
X8213039Y-8675317D01*
X8374944Y-8608650D02*
X8374944Y-8741984D01*
X8327325Y-8532460D02*
X8279706Y-8675317D01*
X8279706Y-8675317D02*
X8403515Y-8675317D01*
X8632087Y-8741984D02*
X8632087Y-8541984D01*
X8717801Y-8741984D02*
X8717801Y-8637222D01*
X8717801Y-8637222D02*
X8708277Y-8618174D01*
X8708277Y-8618174D02*
X8689230Y-8608650D01*
X8689230Y-8608650D02*
X8660658Y-8608650D01*
X8660658Y-8608650D02*
X8641611Y-8618174D01*
X8641611Y-8618174D02*
X8632087Y-8627698D01*
X8841611Y-8741984D02*
X8822563Y-8732460D01*
X8822563Y-8732460D02*
X8813039Y-8722936D01*
X8813039Y-8722936D02*
X8803515Y-8703889D01*
X8803515Y-8703889D02*
X8803515Y-8646746D01*
X8803515Y-8646746D02*
X8813039Y-8627698D01*
X8813039Y-8627698D02*
X8822563Y-8618174D01*
X8822563Y-8618174D02*
X8841611Y-8608650D01*
X8841611Y-8608650D02*
X8870182Y-8608650D01*
X8870182Y-8608650D02*
X8889230Y-8618174D01*
X8889230Y-8618174D02*
X8898753Y-8627698D01*
X8898753Y-8627698D02*
X8908277Y-8646746D01*
X8908277Y-8646746D02*
X8908277Y-8703889D01*
X8908277Y-8703889D02*
X8898753Y-8722936D01*
X8898753Y-8722936D02*
X8889230Y-8732460D01*
X8889230Y-8732460D02*
X8870182Y-8741984D01*
X8870182Y-8741984D02*
X8841611Y-8741984D01*
X9022563Y-8741984D02*
X9003515Y-8732460D01*
X9003515Y-8732460D02*
X8993992Y-8713412D01*
X8993992Y-8713412D02*
X8993992Y-8541984D01*
X9174944Y-8732460D02*
X9155896Y-8741984D01*
X9155896Y-8741984D02*
X9117801Y-8741984D01*
X9117801Y-8741984D02*
X9098753Y-8732460D01*
X9098753Y-8732460D02*
X9089230Y-8713412D01*
X9089230Y-8713412D02*
X9089230Y-8637222D01*
X9089230Y-8637222D02*
X9098753Y-8618174D01*
X9098753Y-8618174D02*
X9117801Y-8608650D01*
X9117801Y-8608650D02*
X9155896Y-8608650D01*
X9155896Y-8608650D02*
X9174944Y-8618174D01*
X9174944Y-8618174D02*
X9184468Y-8637222D01*
X9184468Y-8637222D02*
X9184468Y-8656270D01*
X9184468Y-8656270D02*
X9089230Y-8675317D01*
X9260658Y-8732460D02*
X9279706Y-8741984D01*
X9279706Y-8741984D02*
X9317801Y-8741984D01*
X9317801Y-8741984D02*
X9336849Y-8732460D01*
X9336849Y-8732460D02*
X9346373Y-8713412D01*
X9346373Y-8713412D02*
X9346373Y-8703889D01*
X9346373Y-8703889D02*
X9336849Y-8684841D01*
X9336849Y-8684841D02*
X9317801Y-8675317D01*
X9317801Y-8675317D02*
X9289230Y-8675317D01*
X9289230Y-8675317D02*
X9270182Y-8665793D01*
X9270182Y-8665793D02*
X9260658Y-8646746D01*
X9260658Y-8646746D02*
X9260658Y-8637222D01*
X9260658Y-8637222D02*
X9270182Y-8618174D01*
X9270182Y-8618174D02*
X9289230Y-8608650D01*
X9289230Y-8608650D02*
X9317801Y-8608650D01*
X9317801Y-8608650D02*
X9336849Y-8618174D01*
X9413039Y-8818174D02*
X9422563Y-8808650D01*
X9422563Y-8808650D02*
X9441611Y-8780079D01*
X9441611Y-8780079D02*
X9451134Y-8761031D01*
X9451134Y-8761031D02*
X9460658Y-8732460D01*
X9460658Y-8732460D02*
X9470182Y-8684841D01*
X9470182Y-8684841D02*
X9470182Y-8646746D01*
X9470182Y-8646746D02*
X9460658Y-8599127D01*
X9460658Y-8599127D02*
X9451134Y-8570555D01*
X9451134Y-8570555D02*
X9441611Y-8551508D01*
X9441611Y-8551508D02*
X9422563Y-8522936D01*
X9422563Y-8522936D02*
X9413039Y-8513412D01*
D14*
X4377500Y-8844500D02*
X4377500Y-8984500D01*
X4307500Y-8914500D02*
X4447500Y-8914500D01*
D11*
X4813039Y-9005984D02*
X4698753Y-9005984D01*
X4755896Y-9005984D02*
X4755896Y-8805984D01*
X4755896Y-8805984D02*
X4736848Y-8834555D01*
X4736848Y-8834555D02*
X4717801Y-8853603D01*
X4717801Y-8853603D02*
X4698753Y-8863127D01*
X4898753Y-8986936D02*
X4908277Y-8996460D01*
X4908277Y-8996460D02*
X4898753Y-9005984D01*
X4898753Y-9005984D02*
X4889229Y-8996460D01*
X4889229Y-8996460D02*
X4898753Y-8986936D01*
X4898753Y-8986936D02*
X4898753Y-9005984D01*
X5079705Y-8872650D02*
X5079705Y-9005984D01*
X5032086Y-8796460D02*
X4984467Y-8939317D01*
X4984467Y-8939317D02*
X5108277Y-8939317D01*
X5222563Y-8805984D02*
X5241610Y-8805984D01*
X5241610Y-8805984D02*
X5260658Y-8815508D01*
X5260658Y-8815508D02*
X5270182Y-8825031D01*
X5270182Y-8825031D02*
X5279705Y-8844079D01*
X5279705Y-8844079D02*
X5289229Y-8882174D01*
X5289229Y-8882174D02*
X5289229Y-8929793D01*
X5289229Y-8929793D02*
X5279705Y-8967889D01*
X5279705Y-8967889D02*
X5270182Y-8986936D01*
X5270182Y-8986936D02*
X5260658Y-8996460D01*
X5260658Y-8996460D02*
X5241610Y-9005984D01*
X5241610Y-9005984D02*
X5222563Y-9005984D01*
X5222563Y-9005984D02*
X5203515Y-8996460D01*
X5203515Y-8996460D02*
X5193991Y-8986936D01*
X5193991Y-8986936D02*
X5184467Y-8967889D01*
X5184467Y-8967889D02*
X5174944Y-8929793D01*
X5174944Y-8929793D02*
X5174944Y-8882174D01*
X5174944Y-8882174D02*
X5184467Y-8844079D01*
X5184467Y-8844079D02*
X5193991Y-8825031D01*
X5193991Y-8825031D02*
X5203515Y-8815508D01*
X5203515Y-8815508D02*
X5222563Y-8805984D01*
X5413039Y-8805984D02*
X5432086Y-8805984D01*
X5432086Y-8805984D02*
X5451134Y-8815508D01*
X5451134Y-8815508D02*
X5460658Y-8825031D01*
X5460658Y-8825031D02*
X5470182Y-8844079D01*
X5470182Y-8844079D02*
X5479705Y-8882174D01*
X5479705Y-8882174D02*
X5479705Y-8929793D01*
X5479705Y-8929793D02*
X5470182Y-8967889D01*
X5470182Y-8967889D02*
X5460658Y-8986936D01*
X5460658Y-8986936D02*
X5451134Y-8996460D01*
X5451134Y-8996460D02*
X5432086Y-9005984D01*
X5432086Y-9005984D02*
X5413039Y-9005984D01*
X5413039Y-9005984D02*
X5393991Y-8996460D01*
X5393991Y-8996460D02*
X5384467Y-8986936D01*
X5384467Y-8986936D02*
X5374944Y-8967889D01*
X5374944Y-8967889D02*
X5365420Y-8929793D01*
X5365420Y-8929793D02*
X5365420Y-8882174D01*
X5365420Y-8882174D02*
X5374944Y-8844079D01*
X5374944Y-8844079D02*
X5384467Y-8825031D01*
X5384467Y-8825031D02*
X5393991Y-8815508D01*
X5393991Y-8815508D02*
X5413039Y-8805984D01*
X5565420Y-9005984D02*
X5565420Y-8872650D01*
X5565420Y-8891698D02*
X5574944Y-8882174D01*
X5574944Y-8882174D02*
X5593991Y-8872650D01*
X5593991Y-8872650D02*
X5622563Y-8872650D01*
X5622563Y-8872650D02*
X5641610Y-8882174D01*
X5641610Y-8882174D02*
X5651134Y-8901222D01*
X5651134Y-8901222D02*
X5651134Y-9005984D01*
X5651134Y-8901222D02*
X5660658Y-8882174D01*
X5660658Y-8882174D02*
X5679705Y-8872650D01*
X5679705Y-8872650D02*
X5708277Y-8872650D01*
X5708277Y-8872650D02*
X5727324Y-8882174D01*
X5727324Y-8882174D02*
X5736848Y-8901222D01*
X5736848Y-8901222D02*
X5736848Y-9005984D01*
X5832086Y-9005984D02*
X5832086Y-8872650D01*
X5832086Y-8891698D02*
X5841610Y-8882174D01*
X5841610Y-8882174D02*
X5860658Y-8872650D01*
X5860658Y-8872650D02*
X5889229Y-8872650D01*
X5889229Y-8872650D02*
X5908277Y-8882174D01*
X5908277Y-8882174D02*
X5917801Y-8901222D01*
X5917801Y-8901222D02*
X5917801Y-9005984D01*
X5917801Y-8901222D02*
X5927324Y-8882174D01*
X5927324Y-8882174D02*
X5946372Y-8872650D01*
X5946372Y-8872650D02*
X5974943Y-8872650D01*
X5974943Y-8872650D02*
X5993991Y-8882174D01*
X5993991Y-8882174D02*
X6003515Y-8901222D01*
X6003515Y-8901222D02*
X6003515Y-9005984D01*
X6393991Y-8796460D02*
X6222563Y-9053603D01*
X6651134Y-8805984D02*
X6670182Y-8805984D01*
X6670182Y-8805984D02*
X6689229Y-8815508D01*
X6689229Y-8815508D02*
X6698753Y-8825031D01*
X6698753Y-8825031D02*
X6708277Y-8844079D01*
X6708277Y-8844079D02*
X6717801Y-8882174D01*
X6717801Y-8882174D02*
X6717801Y-8929793D01*
X6717801Y-8929793D02*
X6708277Y-8967889D01*
X6708277Y-8967889D02*
X6698753Y-8986936D01*
X6698753Y-8986936D02*
X6689229Y-8996460D01*
X6689229Y-8996460D02*
X6670182Y-9005984D01*
X6670182Y-9005984D02*
X6651134Y-9005984D01*
X6651134Y-9005984D02*
X6632086Y-8996460D01*
X6632086Y-8996460D02*
X6622563Y-8986936D01*
X6622563Y-8986936D02*
X6613039Y-8967889D01*
X6613039Y-8967889D02*
X6603515Y-8929793D01*
X6603515Y-8929793D02*
X6603515Y-8882174D01*
X6603515Y-8882174D02*
X6613039Y-8844079D01*
X6613039Y-8844079D02*
X6622563Y-8825031D01*
X6622563Y-8825031D02*
X6632086Y-8815508D01*
X6632086Y-8815508D02*
X6651134Y-8805984D01*
X6803515Y-8986936D02*
X6813039Y-8996460D01*
X6813039Y-8996460D02*
X6803515Y-9005984D01*
X6803515Y-9005984D02*
X6793991Y-8996460D01*
X6793991Y-8996460D02*
X6803515Y-8986936D01*
X6803515Y-8986936D02*
X6803515Y-9005984D01*
X6936848Y-8805984D02*
X6955896Y-8805984D01*
X6955896Y-8805984D02*
X6974944Y-8815508D01*
X6974944Y-8815508D02*
X6984467Y-8825031D01*
X6984467Y-8825031D02*
X6993991Y-8844079D01*
X6993991Y-8844079D02*
X7003515Y-8882174D01*
X7003515Y-8882174D02*
X7003515Y-8929793D01*
X7003515Y-8929793D02*
X6993991Y-8967889D01*
X6993991Y-8967889D02*
X6984467Y-8986936D01*
X6984467Y-8986936D02*
X6974944Y-8996460D01*
X6974944Y-8996460D02*
X6955896Y-9005984D01*
X6955896Y-9005984D02*
X6936848Y-9005984D01*
X6936848Y-9005984D02*
X6917801Y-8996460D01*
X6917801Y-8996460D02*
X6908277Y-8986936D01*
X6908277Y-8986936D02*
X6898753Y-8967889D01*
X6898753Y-8967889D02*
X6889229Y-8929793D01*
X6889229Y-8929793D02*
X6889229Y-8882174D01*
X6889229Y-8882174D02*
X6898753Y-8844079D01*
X6898753Y-8844079D02*
X6908277Y-8825031D01*
X6908277Y-8825031D02*
X6917801Y-8815508D01*
X6917801Y-8815508D02*
X6936848Y-8805984D01*
X7184467Y-8805984D02*
X7089229Y-8805984D01*
X7089229Y-8805984D02*
X7079706Y-8901222D01*
X7079706Y-8901222D02*
X7089229Y-8891698D01*
X7089229Y-8891698D02*
X7108277Y-8882174D01*
X7108277Y-8882174D02*
X7155896Y-8882174D01*
X7155896Y-8882174D02*
X7174944Y-8891698D01*
X7174944Y-8891698D02*
X7184467Y-8901222D01*
X7184467Y-8901222D02*
X7193991Y-8920270D01*
X7193991Y-8920270D02*
X7193991Y-8967889D01*
X7193991Y-8967889D02*
X7184467Y-8986936D01*
X7184467Y-8986936D02*
X7174944Y-8996460D01*
X7174944Y-8996460D02*
X7155896Y-9005984D01*
X7155896Y-9005984D02*
X7108277Y-9005984D01*
X7108277Y-9005984D02*
X7089229Y-8996460D01*
X7089229Y-8996460D02*
X7079706Y-8986936D01*
X7374944Y-8805984D02*
X7279706Y-8805984D01*
X7279706Y-8805984D02*
X7270182Y-8901222D01*
X7270182Y-8901222D02*
X7279706Y-8891698D01*
X7279706Y-8891698D02*
X7298753Y-8882174D01*
X7298753Y-8882174D02*
X7346372Y-8882174D01*
X7346372Y-8882174D02*
X7365420Y-8891698D01*
X7365420Y-8891698D02*
X7374944Y-8901222D01*
X7374944Y-8901222D02*
X7384467Y-8920270D01*
X7384467Y-8920270D02*
X7384467Y-8967889D01*
X7384467Y-8967889D02*
X7374944Y-8986936D01*
X7374944Y-8986936D02*
X7365420Y-8996460D01*
X7365420Y-8996460D02*
X7346372Y-9005984D01*
X7346372Y-9005984D02*
X7298753Y-9005984D01*
X7298753Y-9005984D02*
X7279706Y-8996460D01*
X7279706Y-8996460D02*
X7270182Y-8986936D01*
X7574944Y-9005984D02*
X7460658Y-9005984D01*
X7517801Y-9005984D02*
X7517801Y-8805984D01*
X7517801Y-8805984D02*
X7498753Y-8834555D01*
X7498753Y-8834555D02*
X7479706Y-8853603D01*
X7479706Y-8853603D02*
X7460658Y-8863127D01*
X7651134Y-8805984D02*
X7651134Y-8844079D01*
X7727325Y-8805984D02*
X7727325Y-8844079D01*
X8022563Y-9082174D02*
X8013039Y-9072650D01*
X8013039Y-9072650D02*
X7993991Y-9044079D01*
X7993991Y-9044079D02*
X7984468Y-9025031D01*
X7984468Y-9025031D02*
X7974944Y-8996460D01*
X7974944Y-8996460D02*
X7965420Y-8948841D01*
X7965420Y-8948841D02*
X7965420Y-8910746D01*
X7965420Y-8910746D02*
X7974944Y-8863127D01*
X7974944Y-8863127D02*
X7984468Y-8834555D01*
X7984468Y-8834555D02*
X7993991Y-8815508D01*
X7993991Y-8815508D02*
X8013039Y-8786936D01*
X8013039Y-8786936D02*
X8022563Y-8777412D01*
X8089229Y-8825031D02*
X8098753Y-8815508D01*
X8098753Y-8815508D02*
X8117801Y-8805984D01*
X8117801Y-8805984D02*
X8165420Y-8805984D01*
X8165420Y-8805984D02*
X8184468Y-8815508D01*
X8184468Y-8815508D02*
X8193991Y-8825031D01*
X8193991Y-8825031D02*
X8203515Y-8844079D01*
X8203515Y-8844079D02*
X8203515Y-8863127D01*
X8203515Y-8863127D02*
X8193991Y-8891698D01*
X8193991Y-8891698D02*
X8079706Y-9005984D01*
X8079706Y-9005984D02*
X8203515Y-9005984D01*
X8374944Y-8805984D02*
X8336848Y-8805984D01*
X8336848Y-8805984D02*
X8317801Y-8815508D01*
X8317801Y-8815508D02*
X8308277Y-8825031D01*
X8308277Y-8825031D02*
X8289229Y-8853603D01*
X8289229Y-8853603D02*
X8279706Y-8891698D01*
X8279706Y-8891698D02*
X8279706Y-8967889D01*
X8279706Y-8967889D02*
X8289229Y-8986936D01*
X8289229Y-8986936D02*
X8298753Y-8996460D01*
X8298753Y-8996460D02*
X8317801Y-9005984D01*
X8317801Y-9005984D02*
X8355896Y-9005984D01*
X8355896Y-9005984D02*
X8374944Y-8996460D01*
X8374944Y-8996460D02*
X8384468Y-8986936D01*
X8384468Y-8986936D02*
X8393991Y-8967889D01*
X8393991Y-8967889D02*
X8393991Y-8920270D01*
X8393991Y-8920270D02*
X8384468Y-8901222D01*
X8384468Y-8901222D02*
X8374944Y-8891698D01*
X8374944Y-8891698D02*
X8355896Y-8882174D01*
X8355896Y-8882174D02*
X8317801Y-8882174D01*
X8317801Y-8882174D02*
X8298753Y-8891698D01*
X8298753Y-8891698D02*
X8289229Y-8901222D01*
X8289229Y-8901222D02*
X8279706Y-8920270D01*
X8632087Y-9005984D02*
X8632087Y-8805984D01*
X8717801Y-9005984D02*
X8717801Y-8901222D01*
X8717801Y-8901222D02*
X8708277Y-8882174D01*
X8708277Y-8882174D02*
X8689230Y-8872650D01*
X8689230Y-8872650D02*
X8660658Y-8872650D01*
X8660658Y-8872650D02*
X8641611Y-8882174D01*
X8641611Y-8882174D02*
X8632087Y-8891698D01*
X8841611Y-9005984D02*
X8822563Y-8996460D01*
X8822563Y-8996460D02*
X8813039Y-8986936D01*
X8813039Y-8986936D02*
X8803515Y-8967889D01*
X8803515Y-8967889D02*
X8803515Y-8910746D01*
X8803515Y-8910746D02*
X8813039Y-8891698D01*
X8813039Y-8891698D02*
X8822563Y-8882174D01*
X8822563Y-8882174D02*
X8841611Y-8872650D01*
X8841611Y-8872650D02*
X8870182Y-8872650D01*
X8870182Y-8872650D02*
X8889230Y-8882174D01*
X8889230Y-8882174D02*
X8898753Y-8891698D01*
X8898753Y-8891698D02*
X8908277Y-8910746D01*
X8908277Y-8910746D02*
X8908277Y-8967889D01*
X8908277Y-8967889D02*
X8898753Y-8986936D01*
X8898753Y-8986936D02*
X8889230Y-8996460D01*
X8889230Y-8996460D02*
X8870182Y-9005984D01*
X8870182Y-9005984D02*
X8841611Y-9005984D01*
X9022563Y-9005984D02*
X9003515Y-8996460D01*
X9003515Y-8996460D02*
X8993992Y-8977412D01*
X8993992Y-8977412D02*
X8993992Y-8805984D01*
X9174944Y-8996460D02*
X9155896Y-9005984D01*
X9155896Y-9005984D02*
X9117801Y-9005984D01*
X9117801Y-9005984D02*
X9098753Y-8996460D01*
X9098753Y-8996460D02*
X9089230Y-8977412D01*
X9089230Y-8977412D02*
X9089230Y-8901222D01*
X9089230Y-8901222D02*
X9098753Y-8882174D01*
X9098753Y-8882174D02*
X9117801Y-8872650D01*
X9117801Y-8872650D02*
X9155896Y-8872650D01*
X9155896Y-8872650D02*
X9174944Y-8882174D01*
X9174944Y-8882174D02*
X9184468Y-8901222D01*
X9184468Y-8901222D02*
X9184468Y-8920270D01*
X9184468Y-8920270D02*
X9089230Y-8939317D01*
X9260658Y-8996460D02*
X9279706Y-9005984D01*
X9279706Y-9005984D02*
X9317801Y-9005984D01*
X9317801Y-9005984D02*
X9336849Y-8996460D01*
X9336849Y-8996460D02*
X9346373Y-8977412D01*
X9346373Y-8977412D02*
X9346373Y-8967889D01*
X9346373Y-8967889D02*
X9336849Y-8948841D01*
X9336849Y-8948841D02*
X9317801Y-8939317D01*
X9317801Y-8939317D02*
X9289230Y-8939317D01*
X9289230Y-8939317D02*
X9270182Y-8929793D01*
X9270182Y-8929793D02*
X9260658Y-8910746D01*
X9260658Y-8910746D02*
X9260658Y-8901222D01*
X9260658Y-8901222D02*
X9270182Y-8882174D01*
X9270182Y-8882174D02*
X9289230Y-8872650D01*
X9289230Y-8872650D02*
X9317801Y-8872650D01*
X9317801Y-8872650D02*
X9336849Y-8882174D01*
X9413039Y-9082174D02*
X9422563Y-9072650D01*
X9422563Y-9072650D02*
X9441611Y-9044079D01*
X9441611Y-9044079D02*
X9451134Y-9025031D01*
X9451134Y-9025031D02*
X9460658Y-8996460D01*
X9460658Y-8996460D02*
X9470182Y-8948841D01*
X9470182Y-8948841D02*
X9470182Y-8910746D01*
X9470182Y-8910746D02*
X9460658Y-8863127D01*
X9460658Y-8863127D02*
X9451134Y-8834555D01*
X9451134Y-8834555D02*
X9441611Y-8815508D01*
X9441611Y-8815508D02*
X9422563Y-8786936D01*
X9422563Y-8786936D02*
X9413039Y-8777412D01*
X4418211Y-9249211D02*
X4418211Y-9107789D01*
X4276789Y-9107789D01*
X4276789Y-9249211D01*
X4418211Y-9249211D01*
X4698753Y-9089031D02*
X4708277Y-9079508D01*
X4708277Y-9079508D02*
X4727324Y-9069984D01*
X4727324Y-9069984D02*
X4774944Y-9069984D01*
X4774944Y-9069984D02*
X4793991Y-9079508D01*
X4793991Y-9079508D02*
X4803515Y-9089031D01*
X4803515Y-9089031D02*
X4813039Y-9108079D01*
X4813039Y-9108079D02*
X4813039Y-9127127D01*
X4813039Y-9127127D02*
X4803515Y-9155698D01*
X4803515Y-9155698D02*
X4689229Y-9269984D01*
X4689229Y-9269984D02*
X4813039Y-9269984D01*
X4898753Y-9250936D02*
X4908277Y-9260460D01*
X4908277Y-9260460D02*
X4898753Y-9269984D01*
X4898753Y-9269984D02*
X4889229Y-9260460D01*
X4889229Y-9260460D02*
X4898753Y-9250936D01*
X4898753Y-9250936D02*
X4898753Y-9269984D01*
X4974944Y-9069984D02*
X5108277Y-9069984D01*
X5108277Y-9069984D02*
X5022563Y-9269984D01*
X5279705Y-9069984D02*
X5184467Y-9069984D01*
X5184467Y-9069984D02*
X5174944Y-9165222D01*
X5174944Y-9165222D02*
X5184467Y-9155698D01*
X5184467Y-9155698D02*
X5203515Y-9146174D01*
X5203515Y-9146174D02*
X5251134Y-9146174D01*
X5251134Y-9146174D02*
X5270182Y-9155698D01*
X5270182Y-9155698D02*
X5279705Y-9165222D01*
X5279705Y-9165222D02*
X5289229Y-9184270D01*
X5289229Y-9184270D02*
X5289229Y-9231889D01*
X5289229Y-9231889D02*
X5279705Y-9250936D01*
X5279705Y-9250936D02*
X5270182Y-9260460D01*
X5270182Y-9260460D02*
X5251134Y-9269984D01*
X5251134Y-9269984D02*
X5203515Y-9269984D01*
X5203515Y-9269984D02*
X5184467Y-9260460D01*
X5184467Y-9260460D02*
X5174944Y-9250936D01*
X5413039Y-9069984D02*
X5432086Y-9069984D01*
X5432086Y-9069984D02*
X5451134Y-9079508D01*
X5451134Y-9079508D02*
X5460658Y-9089031D01*
X5460658Y-9089031D02*
X5470182Y-9108079D01*
X5470182Y-9108079D02*
X5479705Y-9146174D01*
X5479705Y-9146174D02*
X5479705Y-9193793D01*
X5479705Y-9193793D02*
X5470182Y-9231889D01*
X5470182Y-9231889D02*
X5460658Y-9250936D01*
X5460658Y-9250936D02*
X5451134Y-9260460D01*
X5451134Y-9260460D02*
X5432086Y-9269984D01*
X5432086Y-9269984D02*
X5413039Y-9269984D01*
X5413039Y-9269984D02*
X5393991Y-9260460D01*
X5393991Y-9260460D02*
X5384467Y-9250936D01*
X5384467Y-9250936D02*
X5374944Y-9231889D01*
X5374944Y-9231889D02*
X5365420Y-9193793D01*
X5365420Y-9193793D02*
X5365420Y-9146174D01*
X5365420Y-9146174D02*
X5374944Y-9108079D01*
X5374944Y-9108079D02*
X5384467Y-9089031D01*
X5384467Y-9089031D02*
X5393991Y-9079508D01*
X5393991Y-9079508D02*
X5413039Y-9069984D01*
X5565420Y-9269984D02*
X5565420Y-9136650D01*
X5565420Y-9155698D02*
X5574944Y-9146174D01*
X5574944Y-9146174D02*
X5593991Y-9136650D01*
X5593991Y-9136650D02*
X5622563Y-9136650D01*
X5622563Y-9136650D02*
X5641610Y-9146174D01*
X5641610Y-9146174D02*
X5651134Y-9165222D01*
X5651134Y-9165222D02*
X5651134Y-9269984D01*
X5651134Y-9165222D02*
X5660658Y-9146174D01*
X5660658Y-9146174D02*
X5679705Y-9136650D01*
X5679705Y-9136650D02*
X5708277Y-9136650D01*
X5708277Y-9136650D02*
X5727324Y-9146174D01*
X5727324Y-9146174D02*
X5736848Y-9165222D01*
X5736848Y-9165222D02*
X5736848Y-9269984D01*
X5832086Y-9269984D02*
X5832086Y-9136650D01*
X5832086Y-9155698D02*
X5841610Y-9146174D01*
X5841610Y-9146174D02*
X5860658Y-9136650D01*
X5860658Y-9136650D02*
X5889229Y-9136650D01*
X5889229Y-9136650D02*
X5908277Y-9146174D01*
X5908277Y-9146174D02*
X5917801Y-9165222D01*
X5917801Y-9165222D02*
X5917801Y-9269984D01*
X5917801Y-9165222D02*
X5927324Y-9146174D01*
X5927324Y-9146174D02*
X5946372Y-9136650D01*
X5946372Y-9136650D02*
X5974943Y-9136650D01*
X5974943Y-9136650D02*
X5993991Y-9146174D01*
X5993991Y-9146174D02*
X6003515Y-9165222D01*
X6003515Y-9165222D02*
X6003515Y-9269984D01*
X6393991Y-9060460D02*
X6222563Y-9317603D01*
X6651134Y-9069984D02*
X6670182Y-9069984D01*
X6670182Y-9069984D02*
X6689229Y-9079508D01*
X6689229Y-9079508D02*
X6698753Y-9089031D01*
X6698753Y-9089031D02*
X6708277Y-9108079D01*
X6708277Y-9108079D02*
X6717801Y-9146174D01*
X6717801Y-9146174D02*
X6717801Y-9193793D01*
X6717801Y-9193793D02*
X6708277Y-9231889D01*
X6708277Y-9231889D02*
X6698753Y-9250936D01*
X6698753Y-9250936D02*
X6689229Y-9260460D01*
X6689229Y-9260460D02*
X6670182Y-9269984D01*
X6670182Y-9269984D02*
X6651134Y-9269984D01*
X6651134Y-9269984D02*
X6632086Y-9260460D01*
X6632086Y-9260460D02*
X6622563Y-9250936D01*
X6622563Y-9250936D02*
X6613039Y-9231889D01*
X6613039Y-9231889D02*
X6603515Y-9193793D01*
X6603515Y-9193793D02*
X6603515Y-9146174D01*
X6603515Y-9146174D02*
X6613039Y-9108079D01*
X6613039Y-9108079D02*
X6622563Y-9089031D01*
X6622563Y-9089031D02*
X6632086Y-9079508D01*
X6632086Y-9079508D02*
X6651134Y-9069984D01*
X6803515Y-9250936D02*
X6813039Y-9260460D01*
X6813039Y-9260460D02*
X6803515Y-9269984D01*
X6803515Y-9269984D02*
X6793991Y-9260460D01*
X6793991Y-9260460D02*
X6803515Y-9250936D01*
X6803515Y-9250936D02*
X6803515Y-9269984D01*
X7003515Y-9269984D02*
X6889229Y-9269984D01*
X6946372Y-9269984D02*
X6946372Y-9069984D01*
X6946372Y-9069984D02*
X6927325Y-9098555D01*
X6927325Y-9098555D02*
X6908277Y-9117603D01*
X6908277Y-9117603D02*
X6889229Y-9127127D01*
X7127325Y-9069984D02*
X7146372Y-9069984D01*
X7146372Y-9069984D02*
X7165420Y-9079508D01*
X7165420Y-9079508D02*
X7174944Y-9089031D01*
X7174944Y-9089031D02*
X7184467Y-9108079D01*
X7184467Y-9108079D02*
X7193991Y-9146174D01*
X7193991Y-9146174D02*
X7193991Y-9193793D01*
X7193991Y-9193793D02*
X7184467Y-9231889D01*
X7184467Y-9231889D02*
X7174944Y-9250936D01*
X7174944Y-9250936D02*
X7165420Y-9260460D01*
X7165420Y-9260460D02*
X7146372Y-9269984D01*
X7146372Y-9269984D02*
X7127325Y-9269984D01*
X7127325Y-9269984D02*
X7108277Y-9260460D01*
X7108277Y-9260460D02*
X7098753Y-9250936D01*
X7098753Y-9250936D02*
X7089229Y-9231889D01*
X7089229Y-9231889D02*
X7079706Y-9193793D01*
X7079706Y-9193793D02*
X7079706Y-9146174D01*
X7079706Y-9146174D02*
X7089229Y-9108079D01*
X7089229Y-9108079D02*
X7098753Y-9089031D01*
X7098753Y-9089031D02*
X7108277Y-9079508D01*
X7108277Y-9079508D02*
X7127325Y-9069984D01*
X7308277Y-9155698D02*
X7289229Y-9146174D01*
X7289229Y-9146174D02*
X7279706Y-9136650D01*
X7279706Y-9136650D02*
X7270182Y-9117603D01*
X7270182Y-9117603D02*
X7270182Y-9108079D01*
X7270182Y-9108079D02*
X7279706Y-9089031D01*
X7279706Y-9089031D02*
X7289229Y-9079508D01*
X7289229Y-9079508D02*
X7308277Y-9069984D01*
X7308277Y-9069984D02*
X7346372Y-9069984D01*
X7346372Y-9069984D02*
X7365420Y-9079508D01*
X7365420Y-9079508D02*
X7374944Y-9089031D01*
X7374944Y-9089031D02*
X7384467Y-9108079D01*
X7384467Y-9108079D02*
X7384467Y-9117603D01*
X7384467Y-9117603D02*
X7374944Y-9136650D01*
X7374944Y-9136650D02*
X7365420Y-9146174D01*
X7365420Y-9146174D02*
X7346372Y-9155698D01*
X7346372Y-9155698D02*
X7308277Y-9155698D01*
X7308277Y-9155698D02*
X7289229Y-9165222D01*
X7289229Y-9165222D02*
X7279706Y-9174746D01*
X7279706Y-9174746D02*
X7270182Y-9193793D01*
X7270182Y-9193793D02*
X7270182Y-9231889D01*
X7270182Y-9231889D02*
X7279706Y-9250936D01*
X7279706Y-9250936D02*
X7289229Y-9260460D01*
X7289229Y-9260460D02*
X7308277Y-9269984D01*
X7308277Y-9269984D02*
X7346372Y-9269984D01*
X7346372Y-9269984D02*
X7365420Y-9260460D01*
X7365420Y-9260460D02*
X7374944Y-9250936D01*
X7374944Y-9250936D02*
X7384467Y-9231889D01*
X7384467Y-9231889D02*
X7384467Y-9193793D01*
X7384467Y-9193793D02*
X7374944Y-9174746D01*
X7374944Y-9174746D02*
X7365420Y-9165222D01*
X7365420Y-9165222D02*
X7346372Y-9155698D01*
X7451134Y-9069984D02*
X7574944Y-9069984D01*
X7574944Y-9069984D02*
X7508277Y-9146174D01*
X7508277Y-9146174D02*
X7536848Y-9146174D01*
X7536848Y-9146174D02*
X7555896Y-9155698D01*
X7555896Y-9155698D02*
X7565420Y-9165222D01*
X7565420Y-9165222D02*
X7574944Y-9184270D01*
X7574944Y-9184270D02*
X7574944Y-9231889D01*
X7574944Y-9231889D02*
X7565420Y-9250936D01*
X7565420Y-9250936D02*
X7555896Y-9260460D01*
X7555896Y-9260460D02*
X7536848Y-9269984D01*
X7536848Y-9269984D02*
X7479706Y-9269984D01*
X7479706Y-9269984D02*
X7460658Y-9260460D01*
X7460658Y-9260460D02*
X7451134Y-9250936D01*
X7651134Y-9069984D02*
X7651134Y-9108079D01*
X7727325Y-9069984D02*
X7727325Y-9108079D01*
X8022563Y-9346174D02*
X8013039Y-9336650D01*
X8013039Y-9336650D02*
X7993991Y-9308079D01*
X7993991Y-9308079D02*
X7984468Y-9289031D01*
X7984468Y-9289031D02*
X7974944Y-9260460D01*
X7974944Y-9260460D02*
X7965420Y-9212841D01*
X7965420Y-9212841D02*
X7965420Y-9174746D01*
X7965420Y-9174746D02*
X7974944Y-9127127D01*
X7974944Y-9127127D02*
X7984468Y-9098555D01*
X7984468Y-9098555D02*
X7993991Y-9079508D01*
X7993991Y-9079508D02*
X8013039Y-9050936D01*
X8013039Y-9050936D02*
X8022563Y-9041412D01*
X8184468Y-9136650D02*
X8184468Y-9269984D01*
X8136848Y-9060460D02*
X8089229Y-9203317D01*
X8089229Y-9203317D02*
X8213039Y-9203317D01*
X8441611Y-9269984D02*
X8441611Y-9069984D01*
X8527325Y-9269984D02*
X8527325Y-9165222D01*
X8527325Y-9165222D02*
X8517801Y-9146174D01*
X8517801Y-9146174D02*
X8498753Y-9136650D01*
X8498753Y-9136650D02*
X8470182Y-9136650D01*
X8470182Y-9136650D02*
X8451134Y-9146174D01*
X8451134Y-9146174D02*
X8441611Y-9155698D01*
X8651134Y-9269984D02*
X8632087Y-9260460D01*
X8632087Y-9260460D02*
X8622563Y-9250936D01*
X8622563Y-9250936D02*
X8613039Y-9231889D01*
X8613039Y-9231889D02*
X8613039Y-9174746D01*
X8613039Y-9174746D02*
X8622563Y-9155698D01*
X8622563Y-9155698D02*
X8632087Y-9146174D01*
X8632087Y-9146174D02*
X8651134Y-9136650D01*
X8651134Y-9136650D02*
X8679706Y-9136650D01*
X8679706Y-9136650D02*
X8698753Y-9146174D01*
X8698753Y-9146174D02*
X8708277Y-9155698D01*
X8708277Y-9155698D02*
X8717801Y-9174746D01*
X8717801Y-9174746D02*
X8717801Y-9231889D01*
X8717801Y-9231889D02*
X8708277Y-9250936D01*
X8708277Y-9250936D02*
X8698753Y-9260460D01*
X8698753Y-9260460D02*
X8679706Y-9269984D01*
X8679706Y-9269984D02*
X8651134Y-9269984D01*
X8832087Y-9269984D02*
X8813039Y-9260460D01*
X8813039Y-9260460D02*
X8803515Y-9241412D01*
X8803515Y-9241412D02*
X8803515Y-9069984D01*
X8984468Y-9260460D02*
X8965420Y-9269984D01*
X8965420Y-9269984D02*
X8927325Y-9269984D01*
X8927325Y-9269984D02*
X8908277Y-9260460D01*
X8908277Y-9260460D02*
X8898753Y-9241412D01*
X8898753Y-9241412D02*
X8898753Y-9165222D01*
X8898753Y-9165222D02*
X8908277Y-9146174D01*
X8908277Y-9146174D02*
X8927325Y-9136650D01*
X8927325Y-9136650D02*
X8965420Y-9136650D01*
X8965420Y-9136650D02*
X8984468Y-9146174D01*
X8984468Y-9146174D02*
X8993992Y-9165222D01*
X8993992Y-9165222D02*
X8993992Y-9184270D01*
X8993992Y-9184270D02*
X8898753Y-9203317D01*
X9070182Y-9260460D02*
X9089230Y-9269984D01*
X9089230Y-9269984D02*
X9127325Y-9269984D01*
X9127325Y-9269984D02*
X9146373Y-9260460D01*
X9146373Y-9260460D02*
X9155896Y-9241412D01*
X9155896Y-9241412D02*
X9155896Y-9231889D01*
X9155896Y-9231889D02*
X9146373Y-9212841D01*
X9146373Y-9212841D02*
X9127325Y-9203317D01*
X9127325Y-9203317D02*
X9098753Y-9203317D01*
X9098753Y-9203317D02*
X9079706Y-9193793D01*
X9079706Y-9193793D02*
X9070182Y-9174746D01*
X9070182Y-9174746D02*
X9070182Y-9165222D01*
X9070182Y-9165222D02*
X9079706Y-9146174D01*
X9079706Y-9146174D02*
X9098753Y-9136650D01*
X9098753Y-9136650D02*
X9127325Y-9136650D01*
X9127325Y-9136650D02*
X9146373Y-9146174D01*
X9222563Y-9346174D02*
X9232087Y-9336650D01*
X9232087Y-9336650D02*
X9251134Y-9308079D01*
X9251134Y-9308079D02*
X9260658Y-9289031D01*
X9260658Y-9289031D02*
X9270182Y-9260460D01*
X9270182Y-9260460D02*
X9279706Y-9212841D01*
X9279706Y-9212841D02*
X9279706Y-9174746D01*
X9279706Y-9174746D02*
X9270182Y-9127127D01*
X9270182Y-9127127D02*
X9260658Y-9098555D01*
X9260658Y-9098555D02*
X9251134Y-9079508D01*
X9251134Y-9079508D02*
X9232087Y-9050936D01*
X9232087Y-9050936D02*
X9222563Y-9041412D01*
X4347500Y-9598500D02*
X4447500Y-9498500D01*
X4347500Y-9398500D01*
X4247500Y-9498500D01*
X4347500Y-9598500D01*
X4793991Y-9456650D02*
X4793991Y-9589984D01*
X4746372Y-9380460D02*
X4698753Y-9523317D01*
X4698753Y-9523317D02*
X4822563Y-9523317D01*
X4898753Y-9570936D02*
X4908277Y-9580460D01*
X4908277Y-9580460D02*
X4898753Y-9589984D01*
X4898753Y-9589984D02*
X4889229Y-9580460D01*
X4889229Y-9580460D02*
X4898753Y-9570936D01*
X4898753Y-9570936D02*
X4898753Y-9589984D01*
X5089229Y-9389984D02*
X4993991Y-9389984D01*
X4993991Y-9389984D02*
X4984467Y-9485222D01*
X4984467Y-9485222D02*
X4993991Y-9475698D01*
X4993991Y-9475698D02*
X5013039Y-9466174D01*
X5013039Y-9466174D02*
X5060658Y-9466174D01*
X5060658Y-9466174D02*
X5079705Y-9475698D01*
X5079705Y-9475698D02*
X5089229Y-9485222D01*
X5089229Y-9485222D02*
X5098753Y-9504270D01*
X5098753Y-9504270D02*
X5098753Y-9551889D01*
X5098753Y-9551889D02*
X5089229Y-9570936D01*
X5089229Y-9570936D02*
X5079705Y-9580460D01*
X5079705Y-9580460D02*
X5060658Y-9589984D01*
X5060658Y-9589984D02*
X5013039Y-9589984D01*
X5013039Y-9589984D02*
X4993991Y-9580460D01*
X4993991Y-9580460D02*
X4984467Y-9570936D01*
X5279705Y-9389984D02*
X5184467Y-9389984D01*
X5184467Y-9389984D02*
X5174944Y-9485222D01*
X5174944Y-9485222D02*
X5184467Y-9475698D01*
X5184467Y-9475698D02*
X5203515Y-9466174D01*
X5203515Y-9466174D02*
X5251134Y-9466174D01*
X5251134Y-9466174D02*
X5270182Y-9475698D01*
X5270182Y-9475698D02*
X5279705Y-9485222D01*
X5279705Y-9485222D02*
X5289229Y-9504270D01*
X5289229Y-9504270D02*
X5289229Y-9551889D01*
X5289229Y-9551889D02*
X5279705Y-9570936D01*
X5279705Y-9570936D02*
X5270182Y-9580460D01*
X5270182Y-9580460D02*
X5251134Y-9589984D01*
X5251134Y-9589984D02*
X5203515Y-9589984D01*
X5203515Y-9589984D02*
X5184467Y-9580460D01*
X5184467Y-9580460D02*
X5174944Y-9570936D01*
X5413039Y-9389984D02*
X5432086Y-9389984D01*
X5432086Y-9389984D02*
X5451134Y-9399508D01*
X5451134Y-9399508D02*
X5460658Y-9409031D01*
X5460658Y-9409031D02*
X5470182Y-9428079D01*
X5470182Y-9428079D02*
X5479705Y-9466174D01*
X5479705Y-9466174D02*
X5479705Y-9513793D01*
X5479705Y-9513793D02*
X5470182Y-9551889D01*
X5470182Y-9551889D02*
X5460658Y-9570936D01*
X5460658Y-9570936D02*
X5451134Y-9580460D01*
X5451134Y-9580460D02*
X5432086Y-9589984D01*
X5432086Y-9589984D02*
X5413039Y-9589984D01*
X5413039Y-9589984D02*
X5393991Y-9580460D01*
X5393991Y-9580460D02*
X5384467Y-9570936D01*
X5384467Y-9570936D02*
X5374944Y-9551889D01*
X5374944Y-9551889D02*
X5365420Y-9513793D01*
X5365420Y-9513793D02*
X5365420Y-9466174D01*
X5365420Y-9466174D02*
X5374944Y-9428079D01*
X5374944Y-9428079D02*
X5384467Y-9409031D01*
X5384467Y-9409031D02*
X5393991Y-9399508D01*
X5393991Y-9399508D02*
X5413039Y-9389984D01*
X5565420Y-9589984D02*
X5565420Y-9456650D01*
X5565420Y-9475698D02*
X5574944Y-9466174D01*
X5574944Y-9466174D02*
X5593991Y-9456650D01*
X5593991Y-9456650D02*
X5622563Y-9456650D01*
X5622563Y-9456650D02*
X5641610Y-9466174D01*
X5641610Y-9466174D02*
X5651134Y-9485222D01*
X5651134Y-9485222D02*
X5651134Y-9589984D01*
X5651134Y-9485222D02*
X5660658Y-9466174D01*
X5660658Y-9466174D02*
X5679705Y-9456650D01*
X5679705Y-9456650D02*
X5708277Y-9456650D01*
X5708277Y-9456650D02*
X5727324Y-9466174D01*
X5727324Y-9466174D02*
X5736848Y-9485222D01*
X5736848Y-9485222D02*
X5736848Y-9589984D01*
X5832086Y-9589984D02*
X5832086Y-9456650D01*
X5832086Y-9475698D02*
X5841610Y-9466174D01*
X5841610Y-9466174D02*
X5860658Y-9456650D01*
X5860658Y-9456650D02*
X5889229Y-9456650D01*
X5889229Y-9456650D02*
X5908277Y-9466174D01*
X5908277Y-9466174D02*
X5917801Y-9485222D01*
X5917801Y-9485222D02*
X5917801Y-9589984D01*
X5917801Y-9485222D02*
X5927324Y-9466174D01*
X5927324Y-9466174D02*
X5946372Y-9456650D01*
X5946372Y-9456650D02*
X5974943Y-9456650D01*
X5974943Y-9456650D02*
X5993991Y-9466174D01*
X5993991Y-9466174D02*
X6003515Y-9485222D01*
X6003515Y-9485222D02*
X6003515Y-9589984D01*
X6393991Y-9380460D02*
X6222563Y-9637603D01*
X6651134Y-9389984D02*
X6670182Y-9389984D01*
X6670182Y-9389984D02*
X6689229Y-9399508D01*
X6689229Y-9399508D02*
X6698753Y-9409031D01*
X6698753Y-9409031D02*
X6708277Y-9428079D01*
X6708277Y-9428079D02*
X6717801Y-9466174D01*
X6717801Y-9466174D02*
X6717801Y-9513793D01*
X6717801Y-9513793D02*
X6708277Y-9551889D01*
X6708277Y-9551889D02*
X6698753Y-9570936D01*
X6698753Y-9570936D02*
X6689229Y-9580460D01*
X6689229Y-9580460D02*
X6670182Y-9589984D01*
X6670182Y-9589984D02*
X6651134Y-9589984D01*
X6651134Y-9589984D02*
X6632086Y-9580460D01*
X6632086Y-9580460D02*
X6622563Y-9570936D01*
X6622563Y-9570936D02*
X6613039Y-9551889D01*
X6613039Y-9551889D02*
X6603515Y-9513793D01*
X6603515Y-9513793D02*
X6603515Y-9466174D01*
X6603515Y-9466174D02*
X6613039Y-9428079D01*
X6613039Y-9428079D02*
X6622563Y-9409031D01*
X6622563Y-9409031D02*
X6632086Y-9399508D01*
X6632086Y-9399508D02*
X6651134Y-9389984D01*
X6803515Y-9570936D02*
X6813039Y-9580460D01*
X6813039Y-9580460D02*
X6803515Y-9589984D01*
X6803515Y-9589984D02*
X6793991Y-9580460D01*
X6793991Y-9580460D02*
X6803515Y-9570936D01*
X6803515Y-9570936D02*
X6803515Y-9589984D01*
X7003515Y-9589984D02*
X6889229Y-9589984D01*
X6946372Y-9589984D02*
X6946372Y-9389984D01*
X6946372Y-9389984D02*
X6927325Y-9418555D01*
X6927325Y-9418555D02*
X6908277Y-9437603D01*
X6908277Y-9437603D02*
X6889229Y-9447127D01*
X7070182Y-9389984D02*
X7203515Y-9389984D01*
X7203515Y-9389984D02*
X7117801Y-9589984D01*
X7289229Y-9589984D02*
X7327325Y-9589984D01*
X7327325Y-9589984D02*
X7346372Y-9580460D01*
X7346372Y-9580460D02*
X7355896Y-9570936D01*
X7355896Y-9570936D02*
X7374944Y-9542365D01*
X7374944Y-9542365D02*
X7384467Y-9504270D01*
X7384467Y-9504270D02*
X7384467Y-9428079D01*
X7384467Y-9428079D02*
X7374944Y-9409031D01*
X7374944Y-9409031D02*
X7365420Y-9399508D01*
X7365420Y-9399508D02*
X7346372Y-9389984D01*
X7346372Y-9389984D02*
X7308277Y-9389984D01*
X7308277Y-9389984D02*
X7289229Y-9399508D01*
X7289229Y-9399508D02*
X7279706Y-9409031D01*
X7279706Y-9409031D02*
X7270182Y-9428079D01*
X7270182Y-9428079D02*
X7270182Y-9475698D01*
X7270182Y-9475698D02*
X7279706Y-9494746D01*
X7279706Y-9494746D02*
X7289229Y-9504270D01*
X7289229Y-9504270D02*
X7308277Y-9513793D01*
X7308277Y-9513793D02*
X7346372Y-9513793D01*
X7346372Y-9513793D02*
X7365420Y-9504270D01*
X7365420Y-9504270D02*
X7374944Y-9494746D01*
X7374944Y-9494746D02*
X7384467Y-9475698D01*
X7574944Y-9589984D02*
X7460658Y-9589984D01*
X7517801Y-9589984D02*
X7517801Y-9389984D01*
X7517801Y-9389984D02*
X7498753Y-9418555D01*
X7498753Y-9418555D02*
X7479706Y-9437603D01*
X7479706Y-9437603D02*
X7460658Y-9447127D01*
X7651134Y-9389984D02*
X7651134Y-9428079D01*
X7727325Y-9389984D02*
X7727325Y-9428079D01*
X8022563Y-9666174D02*
X8013039Y-9656650D01*
X8013039Y-9656650D02*
X7993991Y-9628079D01*
X7993991Y-9628079D02*
X7984468Y-9609031D01*
X7984468Y-9609031D02*
X7974944Y-9580460D01*
X7974944Y-9580460D02*
X7965420Y-9532841D01*
X7965420Y-9532841D02*
X7965420Y-9494746D01*
X7965420Y-9494746D02*
X7974944Y-9447127D01*
X7974944Y-9447127D02*
X7984468Y-9418555D01*
X7984468Y-9418555D02*
X7993991Y-9399508D01*
X7993991Y-9399508D02*
X8013039Y-9370936D01*
X8013039Y-9370936D02*
X8022563Y-9361412D01*
X8089229Y-9409031D02*
X8098753Y-9399508D01*
X8098753Y-9399508D02*
X8117801Y-9389984D01*
X8117801Y-9389984D02*
X8165420Y-9389984D01*
X8165420Y-9389984D02*
X8184468Y-9399508D01*
X8184468Y-9399508D02*
X8193991Y-9409031D01*
X8193991Y-9409031D02*
X8203515Y-9428079D01*
X8203515Y-9428079D02*
X8203515Y-9447127D01*
X8203515Y-9447127D02*
X8193991Y-9475698D01*
X8193991Y-9475698D02*
X8079706Y-9589984D01*
X8079706Y-9589984D02*
X8203515Y-9589984D01*
X8441611Y-9589984D02*
X8441611Y-9389984D01*
X8527325Y-9589984D02*
X8527325Y-9485222D01*
X8527325Y-9485222D02*
X8517801Y-9466174D01*
X8517801Y-9466174D02*
X8498753Y-9456650D01*
X8498753Y-9456650D02*
X8470182Y-9456650D01*
X8470182Y-9456650D02*
X8451134Y-9466174D01*
X8451134Y-9466174D02*
X8441611Y-9475698D01*
X8651134Y-9589984D02*
X8632087Y-9580460D01*
X8632087Y-9580460D02*
X8622563Y-9570936D01*
X8622563Y-9570936D02*
X8613039Y-9551889D01*
X8613039Y-9551889D02*
X8613039Y-9494746D01*
X8613039Y-9494746D02*
X8622563Y-9475698D01*
X8622563Y-9475698D02*
X8632087Y-9466174D01*
X8632087Y-9466174D02*
X8651134Y-9456650D01*
X8651134Y-9456650D02*
X8679706Y-9456650D01*
X8679706Y-9456650D02*
X8698753Y-9466174D01*
X8698753Y-9466174D02*
X8708277Y-9475698D01*
X8708277Y-9475698D02*
X8717801Y-9494746D01*
X8717801Y-9494746D02*
X8717801Y-9551889D01*
X8717801Y-9551889D02*
X8708277Y-9570936D01*
X8708277Y-9570936D02*
X8698753Y-9580460D01*
X8698753Y-9580460D02*
X8679706Y-9589984D01*
X8679706Y-9589984D02*
X8651134Y-9589984D01*
X8832087Y-9589984D02*
X8813039Y-9580460D01*
X8813039Y-9580460D02*
X8803515Y-9561412D01*
X8803515Y-9561412D02*
X8803515Y-9389984D01*
X8984468Y-9580460D02*
X8965420Y-9589984D01*
X8965420Y-9589984D02*
X8927325Y-9589984D01*
X8927325Y-9589984D02*
X8908277Y-9580460D01*
X8908277Y-9580460D02*
X8898753Y-9561412D01*
X8898753Y-9561412D02*
X8898753Y-9485222D01*
X8898753Y-9485222D02*
X8908277Y-9466174D01*
X8908277Y-9466174D02*
X8927325Y-9456650D01*
X8927325Y-9456650D02*
X8965420Y-9456650D01*
X8965420Y-9456650D02*
X8984468Y-9466174D01*
X8984468Y-9466174D02*
X8993992Y-9485222D01*
X8993992Y-9485222D02*
X8993992Y-9504270D01*
X8993992Y-9504270D02*
X8898753Y-9523317D01*
X9070182Y-9580460D02*
X9089230Y-9589984D01*
X9089230Y-9589984D02*
X9127325Y-9589984D01*
X9127325Y-9589984D02*
X9146373Y-9580460D01*
X9146373Y-9580460D02*
X9155896Y-9561412D01*
X9155896Y-9561412D02*
X9155896Y-9551889D01*
X9155896Y-9551889D02*
X9146373Y-9532841D01*
X9146373Y-9532841D02*
X9127325Y-9523317D01*
X9127325Y-9523317D02*
X9098753Y-9523317D01*
X9098753Y-9523317D02*
X9079706Y-9513793D01*
X9079706Y-9513793D02*
X9070182Y-9494746D01*
X9070182Y-9494746D02*
X9070182Y-9485222D01*
X9070182Y-9485222D02*
X9079706Y-9466174D01*
X9079706Y-9466174D02*
X9098753Y-9456650D01*
X9098753Y-9456650D02*
X9127325Y-9456650D01*
X9127325Y-9456650D02*
X9146373Y-9466174D01*
X9222563Y-9666174D02*
X9232087Y-9656650D01*
X9232087Y-9656650D02*
X9251134Y-9628079D01*
X9251134Y-9628079D02*
X9260658Y-9609031D01*
X9260658Y-9609031D02*
X9270182Y-9580460D01*
X9270182Y-9580460D02*
X9279706Y-9532841D01*
X9279706Y-9532841D02*
X9279706Y-9494746D01*
X9279706Y-9494746D02*
X9270182Y-9447127D01*
X9270182Y-9447127D02*
X9260658Y-9418555D01*
X9260658Y-9418555D02*
X9251134Y-9399508D01*
X9251134Y-9399508D02*
X9232087Y-9370936D01*
X9232087Y-9370936D02*
X9222563Y-9361412D01*
M02*
